<?xml version="1.0" standalone="no"?>
<!DOCTYPE svg PUBLIC "-//W3C//DTD SVG 1.1//EN" "http://www.w3.org/Graphics/SVG/1.1/DTD/svg11.dtd" >
<svg xmlns="http://www.w3.org/2000/svg" xmlns:xlink="http://www.w3.org/1999/xlink" version="1.1">
<metadata>
Created by FontForge 20170731 at Sat Mar 30 15:23:29 2013
 By Aleksey,,,
Copyright (c) 2010 by exljbris Font Foundry. All rights reserved.
</metadata>
<defs>
<font id="UVFGeotica" horiz-adv-x="900" >
  <font-face 
    font-family="UVF Geotica"
    font-weight="400"
    font-stretch="normal"
    units-per-em="1000"
    panose-1="2 0 0 0 0 0 0 0 0 0"
    ascent="775"
    descent="-225"
    x-height="498"
    cap-height="748"
    bbox="-100 -233 1553 1129"
    underline-thickness="50"
    underline-position="-150"
    unicode-range="U+0020-FB06"
  />
<missing-glyph horiz-adv-x="260" 
 />
    <glyph glyph-name="ff" unicode="ff" horiz-adv-x="764" 
d="M20 12h90v474h-85v12h85v66q0 40 12 76t36 62.5t59.5 42t82.5 15.5q51 0 88.5 -21t61.5 -66l-11 -6q-23 42 -57 61.5t-82 19.5q-33 0 -57 -7v-243h249v66q0 40 11 76t33.5 62.5t56.5 42t79 15.5q27 0 54.5 -6t50 -17.5t37 -29.5t14.5 -42q0 -29 -18 -44.5t-41 -15.5
t-41 17t-18 42q0 12 5 23t12 20t14.5 15.5t13.5 10.5q-20 8 -41.5 11.5t-41.5 3.5q-26 0 -47 -6v-244h134v-12h-134v-474h90v-12h-313v12h90v474h-249v-474h90v-12h-313v12zM613 12v727q-55 -18 -82 -65.5t-27 -109.5v-552h109zM231 12v725q-55 -20 -82 -66.5t-27 -106.5
v-552h109zM722 664q0 -20 14 -33.5t33 -13.5q18 0 32.5 12.5t14.5 35.5q0 21 -13.5 36.5t-34.5 26.5q-3 -2 -10.5 -7.5t-15.5 -13.5t-14 -19t-6 -24zM524 564q0 49 16 87t53 58v-677h-69v532zM142 564q0 45 17.5 82t51.5 59v-673h-69v532zM742 664q0 13 10 23t18 17
q26 -16 26 -39q0 -14 -8 -21t-19 -7t-19 7.5t-8 19.5z" />
    <glyph glyph-name="fi" unicode="fi" horiz-adv-x="725" 
d="M20 12h90v474h-85v12h85v37q0 48 16 91.5t47.5 77.5t79.5 54t113 20q34 0 69.5 -8t63.5 -23t46 -36t18 -47q0 -29 -18 -44.5t-41 -15.5t-41 17t-18 42q0 13 5.5 24.5t13 21t15.5 17t14 11.5q-27 14 -60.5 21.5t-66.5 7.5q-36 0 -66.5 -7t-56.5 -19v-242h384v-486h90v-12
h-313v12h90v474h-251v-474h90v-12h-313v12zM231 12v721q-55 -31 -82 -84t-27 -114v-523h109zM504 616q18 0 32.5 12.5t14.5 35.5q0 20 -13 36.5t-34 29.5q-3 -2 -10.5 -8t-16 -15t-14.5 -20t-6 -24q0 -20 14 -33.5t33 -13.5zM504 636q-11 0 -19 7.5t-8 19.5t10 23.5t18 19.5
q26 -20 26 -42q0 -14 -8 -21t-19 -7zM142 535q0 47 17 88.5t52 71.5v-663h-69v503zM615 12v474h-109v-474h109zM526 466h69v-434h-69v434z" />
    <glyph glyph-name="fl" unicode="fl" horiz-adv-x="716" 
d="M20 12h90v474h-85v12h85v76q0 43 11.5 80.5t34 65t55.5 43t76 15.5q25 0 54 -8.5t50 -25.5q16 2 31 3t29 1h165v-736h90v-12h-313v12h90v724h-32q-11 0 -23 -0.5t-26 -2.5q21 -23 21 -55q0 -31 -18 -47t-41 -16q-21 0 -38.5 15t-17.5 41q0 23 14.5 39.5t35.5 24.5l17 6
q-19 13 -43 19t-45 6q-22 0 -44 -5v-263h134v-12h-134v-474h90v-12h-313v12zM231 12v745q-54 -18 -81.5 -67t-27.5 -116v-562h109zM604 12v724h-109v-724h109zM364 627q19 0 33 13t14 38q0 17 -6 29.5t-17 23.5q-8 -2 -14.5 -4t-12.5 -4q-18 -8 -29.5 -20.5t-11.5 -31.5
q0 -20 13.5 -32t30.5 -12zM142 574q0 50 18.5 90t50.5 62v-694h-69v542zM515 716h69v-684h-69v684z" />
    <glyph glyph-name="f_f_i" unicode="ffi" horiz-adv-x="1107" 
d="M20 12h90v474h-85v12h85v66q0 40 12.5 76t37 62.5t61 42t84.5 15.5q53 0 90 -21t62 -66l-11 -5q-23 42 -57.5 61t-83.5 19q-33 0 -62 -8v-242h249v37q0 48 16 91.5t47.5 77.5t79.5 54t113 20q34 0 69.5 -8t63.5 -23t46 -36t18 -47q0 -29 -18 -44.5t-41 -15.5t-41 17
t-18 42q0 13 5.5 24.5t13 21t15.5 17t14 11.5q-27 14 -60.5 21.5t-66.5 7.5q-36 0 -66.5 -7t-56.5 -19v-242h384v-486h90v-12h-313v12h90v474h-251v-474h90v-12h-313v12h90v474h-249v-474h90v-12h-313v12zM231 12v724q-54 -20 -81.5 -66.5t-27.5 -105.5v-552h109zM613 12
v721q-55 -31 -82 -84t-27 -114v-523h109zM839 663q0 -20 14 -33.5t33 -13.5q18 0 32.5 12.5t14.5 35.5q0 20 -13 36.5t-34 29.5q-3 -2 -10.5 -8t-16 -15t-14.5 -20t-6 -24zM859 663q0 12 10 23.5t18 19.5q26 -20 26 -42q0 -14 -8 -21t-19 -7t-19 7.5t-8 19.5zM142 564
q0 44 18.5 80.5t50.5 58.5v-671h-69v532zM524 535q0 47 17 88.5t52 71.5v-663h-69v503zM997 12v474h-109v-474h109zM908 466h69v-434h-69v434z" />
    <glyph glyph-name="f_f_l" unicode="ffl" horiz-adv-x="1095" 
d="M19 12h88v474h-83v12h83v66q0 40 12.5 76t37 62.5t61 42t84.5 15.5q53 0 90 -21t62 -66l-11 -5q-23 42 -57.5 61t-83.5 19q-33 0 -62 -8v-242h249v76q0 44 11.5 81.5t34 64.5t55.5 42.5t76 15.5q30 0 58 -9t48 -26q12 2 25.5 3.5t27.5 1.5h170v-736h90v-12h-313v12h90
v724h-37q-24 0 -43 -3q20 -23 20 -55t-18 -47.5t-41 -15.5q-21 0 -38.5 15t-17.5 41q0 24 19.5 41.5t51.5 26.5q-18 14 -42 20.5t-50 6.5q-22 0 -44 -5v-263h134v-12h-134v-474h90v-12h-313v12h90v474h-249v-474h92v-12h-313v12zM610 12v745q-54 -17 -81.5 -66.5
t-27.5 -116.5v-562h109zM983 12v724h-109v-724h109zM228 12v724q-54 -20 -81.5 -66.5t-27.5 -105.5v-552h109zM699 671q0 -20 13.5 -32t30.5 -12q18 0 32.5 12.5t14.5 38.5q0 29 -21 52q-32 -8 -51 -23t-19 -36zM521 574q0 51 17 91t52 61v-694h-69v542zM894 716h69v-684
h-69v684zM139 564q0 44 18.5 80.5t50.5 58.5v-671h-69v532z" />
    <glyph glyph-name="f_j" unicode="fj" horiz-adv-x="700" 
d="M20 12h90v474h-85v12h85v66q0 42 15 80.5t44 68t71.5 47.5t98.5 18q35 0 71.5 -8t66.5 -23t49.5 -36t19.5 -47q0 -27 -18.5 -43t-40.5 -16q-23 0 -41 17t-18 42q0 13 5 24t12.5 20t15 16t13.5 11q-29 14 -65 22.5t-70 8.5q-28 0 -52 -5t-44 -13v-250h373v-505
q0 -43 -8.5 -81t-27 -66t-47.5 -44.5t-70 -16.5q-22 0 -42 6.5t-35.5 18.5t-24.5 28.5t-9 35.5q0 28 17.5 42.5t39.5 14.5q23 0 38.5 -16.5t15.5 -38.5q0 -14 -5 -25t-11.5 -20t-14 -15.5t-13.5 -10.5q21 -8 44 -8t41.5 5.5t32.5 15.5q-3 6 -12 26t-18.5 49.5t-16.5 66.5
t-7 79v447h-240v-474h90v-12h-313v12zM231 12v730q-54 -26 -81.5 -74.5t-27.5 -103.5v-552h109zM487 617q17 0 32 13t15 34q0 19 -13 35.5t-35 29.5l-10.5 -7t-15.5 -13.5t-14 -20t-6 -24.5q0 -20 14 -33.5t33 -13.5zM142 564q0 42 17.5 79t51.5 63v-674h-69v532zM487 637
q-11 0 -19 7.5t-8 19.5q0 14 9 24.5t17 16.5q28 -19 28 -41q0 -12 -8.5 -19.5t-18.5 -7.5zM495 39q0 -39 6.5 -74.5t15.5 -63.5t17.5 -47.5t12.5 -27.5q30 26 43.5 69.5t13.5 97.5v493h-109v-447zM515 466h69v-473q0 -40 -7 -74t-24 -58q-12 28 -25 74.5t-13 103.5v427z
M364 -126q0 -20 11.5 -36.5t31.5 -26.5q3 2 10.5 7.5t15 13.5t13 19t5.5 25q0 17 -12 30t-30 13q-17 0 -31 -11.5t-14 -33.5zM384 -126q0 12 7.5 18.5t17.5 6.5t16 -7t6 -16q0 -15 -8 -25t-16 -16q-23 15 -23 39z" />
    <glyph glyph-name="f_b" unicode="fb" horiz-adv-x="1005" 
d="M20 12h90v474h-85v12h85v66q0 40 11.5 76t34 62.5t55.5 42t76 15.5q51 0 92 -22q16 5 33.5 7.5t36.5 2.5h148v-369q11 46 37 76q23 26 54.5 40.5t72.5 14.5q48 0 85.5 -20.5t63.5 -56t39.5 -82.5t13.5 -101q0 -58 -15.5 -106t-43.5 -82.5t-68 -54t-88 -19.5q-42 0 -74 12
t-57 25q-18 9 -35.5 17t-35.5 8q-20 0 -39.5 -12t-31.5 -38h-11v736h-15q-15 0 -29 -2t-27 -5q15 -12 24 -27.5t9 -35.5q0 -30 -18 -45.5t-41 -15.5t-41 16.5t-18 42.5q0 22 15 39.5t41 28.5q-17 8 -37 12t-40 4q-22 0 -44 -5v-245h134v-12h-134v-474h90v-12h-313v12z
M231 12v727q-53 -17 -81 -65.5t-28 -109.5v-552h109zM476 23q11 17 29.5 28t41.5 11q17 0 38 -8v682h-109v-713zM367 617q18 0 32.5 12.5t14.5 36.5q0 19 -9.5 33.5t-26.5 25.5q-26 -10 -42 -25.5t-16 -35.5t14 -33.5t33 -13.5zM496 716h69v-635q-4 1 -9 1h-9q-27 0 -51 -13
v647zM142 564q0 46 18 84.5t51 59.5v-676h-69v532zM623 35q23 -13 54.5 -24t69.5 -11q39 0 71 13v476q-27 9 -57 9q-39 0 -69.5 -15t-51.5 -41t-32 -61t-11 -76v-257zM830 18q57 27 89 88t32 144q0 40 -8 77t-23.5 67.5t-38 53.5t-51.5 36v-466zM850 450q41 -29 61 -81.5
t20 -118.5q0 -64 -21.5 -115t-59.5 -81v396z" />
    <glyph glyph-name="f_h" unicode="fh" horiz-adv-x="1073" 
d="M20 12h90v474h-85v12h85v66q0 40 11.5 76t34 62.5t55.5 42t76 15.5q51 0 92 -22q16 5 33.5 7.5t36.5 2.5h167v-372q8 31 24 54q25 37 64 58.5t90 21.5q42 0 74.5 -15t54 -42t33 -64t11.5 -80v-304q20 2 37.5 12t30.5 26.5t20.5 38t7.5 45.5h12q0 -28 -9.5 -52.5
t-25 -42.5t-37 -28.5t-45.5 -10.5q-29 0 -51.5 10.5t-39 29t-25 43.5t-8.5 54v364q-17 4 -40 4q-39 0 -72 -15t-56.5 -40.5t-36.5 -60t-13 -73.5v-297h90v-12h-313v12h90v724h-34q-15 0 -29 -2t-27 -5q15 -12 24 -27.5t9 -35.5q0 -30 -18 -45.5t-41 -15.5t-41 16.5t-18 42.5
q0 22 15 39.5t41 28.5q-17 8 -37 12t-40 4q-22 0 -44 -5v-245h134v-12h-134v-474h90v-12h-313v12zM231 12v727q-53 -17 -81 -65.5t-28 -109.5v-552h109zM604 12v724h-109v-724h109zM367 617q18 0 32.5 12.5t14.5 36.5q0 19 -9.5 33.5t-26.5 25.5q-26 -10 -42 -25.5
t-16 -35.5t14 -33.5t33 -13.5zM515 716h69v-684h-69v684zM142 564q0 46 18 84.5t51 59.5v-676h-69v532zM846 130q0 -53 29 -88.5t80 -36.5v304q0 67 -28 115.5t-81 65.5v-360zM866 460q35 -20 52 -59.5t17 -91.5v-282q-35 6 -52 34t-17 69v330z" />
    <glyph glyph-name="f_k" unicode="fk" horiz-adv-x="1028" 
d="M20 12h90v474h-85v12h85v66q0 40 11.5 76t34 62.5t55.5 42t76 15.5q51 0 92 -22q16 5 33.5 7.5t36.5 2.5h167v-525l274 263h-98v12h192v-12h-77l-143 -137l195 -323q20 17 33 43t13 58h12q0 -28 -9.5 -52.5t-25.5 -42.5t-37 -28.5t-44 -10.5q-35 0 -66.5 15.5t-54.5 57.5
l-110 194l-54 -52v-196h90v-12h-313v12h90v724h-34q-15 0 -29 -2t-27 -5q15 -12 24 -27.5t9 -35.5q0 -30 -18 -45.5t-41 -15.5t-41 16.5t-18 42.5q0 22 15 39.5t41 28.5q-17 8 -37 12t-40 4q-22 0 -44 -5v-245h134v-12h-134v-474h90v-12h-313v12zM231 12v727
q-53 -17 -81 -65.5t-28 -109.5v-552h109zM604 12v724h-109v-724h109zM367 617q18 0 32.5 12.5t14.5 36.5q0 19 -9.5 33.5t-26.5 25.5q-26 -10 -42 -25.5t-16 -35.5t14 -33.5t33 -13.5zM515 716h69v-684h-69v684zM142 564q0 46 18 84.5t51 59.5v-676h-69v532zM790 73
q21 -38 50 -53t61 -15q26 0 49 14l-195 322l-76 -73zM751 310l170 -282q-9 -3 -20 -3q-27 0 -51.5 13t-42.5 45l-103 181z" />
    <glyph glyph-name="f_f_b" unicode="ffb" horiz-adv-x="1387" 
d="M20 12h90v474h-85v12h85v66q0 40 12 76t36 62.5t59.5 42t82.5 15.5q51 0 88.5 -21t61.5 -66l-11 -6q-23 42 -57 61.5t-82 19.5q-33 0 -57 -7v-243h249v76q0 44 11.5 81.5t34 64.5t55.5 42.5t76 15.5q30 0 58 -8.5t48 -25.5q12 2 25.5 3t27.5 1h151v-369q11 46 37 76
q23 26 54.5 40.5t72.5 14.5q48 0 85.5 -20.5t63.5 -56t39.5 -82.5t13.5 -101q0 -58 -15.5 -106t-43.5 -82.5t-68 -54t-88 -19.5q-42 0 -74 12t-57 25q-18 9 -35.5 17t-35.5 8q-20 0 -39.5 -12t-31.5 -38h-11v736h-18q-24 0 -43 -3q20 -23 20 -55t-18 -47.5t-41 -15.5
q-21 0 -38.5 15t-17.5 41t19 43.5t51 25.5q-18 13 -42 19.5t-49 6.5q-22 0 -44 -5v-263h134v-12h-134v-474h90v-12h-313v12h90v474h-249v-474h90v-12h-313v12zM613 12v745q-54 -17 -81.5 -66.5t-27.5 -116.5v-562h109zM231 12v725q-55 -20 -82 -66.5t-27 -106.5v-552h109z
M858 23q11 17 29.5 28t41.5 11q17 0 38 -8v682h-109v-713zM702 671q0 -20 13.5 -32t30.5 -12q18 0 32.5 12.5t14.5 38.5q0 16 -6 29t-16 24q-32 -7 -50.5 -22t-18.5 -38zM524 574q0 51 17 91t52 61v-694h-69v542zM878 716h69v-635q-4 1 -9 1h-9q-27 0 -51 -13v647zM142 564
q0 45 17.5 82t51.5 59v-673h-69v532zM1005 35q23 -13 54.5 -24t69.5 -11q39 0 71 13v476q-27 9 -57 9q-39 0 -69.5 -15t-51.5 -41t-32 -61t-11 -76v-257zM1212 18q57 27 89 88t32 144q0 40 -8 77t-23.5 67.5t-38 53.5t-51.5 36v-466zM1232 450q41 -29 61 -81.5t20 -118.5
q0 -64 -21.5 -115t-59.5 -81v396z" />
    <glyph glyph-name="f_f_h" unicode="ffh" horiz-adv-x="1455" 
d="M20 12h90v474h-85v12h85v66q0 40 12 76t36 62.5t59.5 42t82.5 15.5q51 0 88.5 -21t61.5 -66l-11 -6q-23 42 -57 61.5t-82 19.5q-33 0 -57 -7v-243h249v76q0 44 11.5 81.5t34 64.5t55.5 42.5t76 15.5q30 0 58 -8.5t48 -25.5q12 2 25.5 3t27.5 1h170v-372q8 31 24 54
q25 37 64 58.5t90 21.5q42 0 74.5 -15t54 -42t33 -64t11.5 -80v-304q20 2 37.5 12t30.5 26.5t20.5 38t7.5 45.5h12q0 -28 -9.5 -52.5t-25 -42.5t-37 -28.5t-45.5 -10.5q-29 0 -51.5 10.5t-39 29t-25 43.5t-8.5 54v364q-17 4 -40 4q-39 0 -72 -15t-56.5 -40.5t-36.5 -60
t-13 -73.5v-297h90v-12h-313v12h90v724h-37q-24 0 -43 -3q20 -23 20 -55t-18 -47.5t-41 -15.5q-21 0 -38.5 15t-17.5 41t19 43.5t51 25.5q-18 13 -42 19.5t-49 6.5q-22 0 -44 -5v-263h134v-12h-134v-474h90v-12h-313v12h90v474h-249v-474h90v-12h-313v12zM613 12v745
q-54 -17 -81.5 -66.5t-27.5 -116.5v-562h109zM231 12v725q-55 -20 -82 -66.5t-27 -106.5v-552h109zM986 12v724h-109v-724h109zM702 671q0 -20 13.5 -32t30.5 -12q18 0 32.5 12.5t14.5 38.5q0 16 -6 29t-16 24q-32 -7 -50.5 -22t-18.5 -38zM524 574q0 51 17 91t52 61v-694
h-69v542zM897 716h69v-684h-69v684zM142 564q0 45 17.5 82t51.5 59v-673h-69v532zM1228 130q0 -53 29 -88.5t80 -36.5v304q0 67 -28 115.5t-81 65.5v-360zM1248 460q35 -20 52 -59.5t17 -91.5v-282q-35 6 -52 34t-17 69v330z" />
    <glyph glyph-name="f_f_k" unicode="ffk" horiz-adv-x="1410" 
d="M20 12h90v474h-85v12h85v66q0 40 12 76t36 62.5t59.5 42t82.5 15.5q51 0 88.5 -21t61.5 -66l-11 -6q-23 42 -57 61.5t-82 19.5q-33 0 -57 -7v-243h249v76q0 44 11.5 81.5t34 64.5t55.5 42.5t76 15.5q30 0 58 -9t48 -26q12 2 25.5 3.5t27.5 1.5h170v-525l274 263h-98v12
h192v-12h-77l-143 -137l195 -323q20 17 33 43t13 58h12q0 -28 -9.5 -52.5t-25.5 -42.5t-37 -28.5t-44 -10.5q-35 0 -66.5 15.5t-54.5 57.5l-110 194l-54 -52v-196h90v-12h-313v12h90v724h-37q-24 0 -43 -3q20 -23 20 -55t-18 -47.5t-41 -15.5q-21 0 -38.5 15t-17.5 41
q0 24 19.5 41.5t51.5 26.5q-18 14 -42 20.5t-50 6.5q-22 0 -44 -5v-263h134v-12h-134v-474h90v-12h-313v12h90v474h-249v-474h90v-12h-313v12zM613 12v745q-54 -17 -81.5 -66.5t-27.5 -116.5v-562h109zM231 12v725q-55 -20 -82 -66.5t-27 -106.5v-552h109zM986 12v724h-109
v-724h109zM702 671q0 -20 13.5 -32t30.5 -12q18 0 32.5 12.5t14.5 38.5q0 29 -21 52q-32 -8 -51 -23t-19 -36zM524 574q0 51 17 91t52 61v-694h-69v542zM897 716h69v-684h-69v684zM142 564q0 45 17.5 82t51.5 59v-673h-69v532zM1172 73q21 -38 50 -53t61 -15q26 0 49 14
l-195 322l-76 -73zM1133 310l170 -282q-9 -3 -20 -3q-27 0 -51.5 13t-42.5 45l-103 181z" />
    <glyph glyph-name="f_f_j" unicode="ffj" horiz-adv-x="1082" 
d="M20 12h90v474h-85v12h85v66q0 40 12.5 76t37 62.5t61 42t84.5 15.5q53 0 91.5 -21t63.5 -66l-11 -6q-23 42 -59 61.5t-85 19.5q-33 0 -62 -8v-242h249v66q0 42 15 80.5t44 68t71.5 47.5t98.5 18q35 0 71.5 -8t66.5 -23t49.5 -36t19.5 -47q0 -27 -18.5 -43t-40.5 -16
q-23 0 -41 17t-18 42q0 13 5 24t12.5 20t15 16t13.5 11q-29 14 -65 22.5t-70 8.5q-28 0 -52 -5t-44 -13v-250h373v-505q0 -43 -8.5 -81t-27 -66t-47.5 -44.5t-70 -16.5q-22 0 -42 6.5t-35.5 18.5t-24.5 28.5t-9 35.5q0 28 17.5 42.5t39.5 14.5q23 0 38.5 -16.5t15.5 -38.5
q0 -14 -5 -25t-11.5 -20t-14 -15.5t-13.5 -10.5q21 -8 44 -8t41.5 5.5t32.5 15.5q-3 6 -12 26t-18.5 49.5t-16.5 66.5t-7 79v447h-240v-474h90v-12h-313v12h90v474h-249v-474h90v-12h-313v12zM613 12v730q-54 -26 -81.5 -74.5t-27.5 -103.5v-552h109zM231 12v724
q-54 -20 -81.5 -66.5t-27.5 -105.5v-552h109zM822 664q0 -20 14 -33.5t33 -13.5q17 0 32 13t15 34q0 19 -13 35.5t-35 29.5l-10.5 -7t-15.5 -13.5t-14 -20t-6 -24.5zM524 564q0 42 17.5 79t51.5 63v-674h-69v532zM842 664q0 14 9 24.5t17 16.5q28 -19 28 -41
q0 -12 -8.5 -19.5t-18.5 -7.5q-11 0 -19 7.5t-8 19.5zM142 564q0 44 18.5 80.5t50.5 58.5v-671h-69v532zM877 39q0 -39 6.5 -74.5t15.5 -63.5t17.5 -47.5t12.5 -27.5q30 26 43.5 69.5t13.5 97.5v493h-109v-447zM897 466h69v-473q0 -40 -7 -74t-24 -58q-12 28 -25 74.5
t-13 103.5v427zM746 -126q0 -20 11.5 -36.5t31.5 -26.5q3 2 10.5 7.5t15 13.5t13 19t5.5 25q0 17 -12 30t-30 13q-17 0 -31 -11.5t-14 -33.5zM766 -126q0 12 7.5 18.5t17.5 6.5t16 -7t6 -16q0 -15 -8 -25t-16 -16q-23 15 -23 39z" />
    <glyph glyph-name=".notdef" horiz-adv-x="260" 
 />
    <glyph glyph-name=".null" horiz-adv-x="0" 
 />
    <glyph glyph-name="nonmarkingreturn" horiz-adv-x="260" 
 />
    <glyph glyph-name="space" unicode=" " horiz-adv-x="260" 
 />
    <glyph glyph-name="exclam" unicode="!" horiz-adv-x="305" 
d="M146 191q-15 97 -26 167t-18.5 119.5t-12 81t-7 51.5t-3.5 31.5t-1 21.5q0 46 15.5 73t59.5 27t59.5 -26.5t15.5 -70.5q0 -10 -1 -21.5t-3.5 -31.5t-7.5 -52t-13 -81.5t-19.5 -120t-27.5 -168.5h-10zM151 224q15 90 25.5 155.5t17.5 112t11.5 76t7 48.5t3 30t0.5 20
q0 38 -13.5 61.5t-49.5 23.5t-49.5 -24t-13.5 -64q0 -9 0.5 -20t2.5 -30t6 -48t11 -75t17 -111t24 -155zM151 350q-14 91 -22.5 147.5t-12.5 89.5t-5 49t-1 27q0 31 9 49.5t34 18.5t34 -18t9 -47q0 -11 -1.5 -26.5t-6 -48.5t-13.5 -90t-24 -151zM80 59q0 29 21 50t50 21
t50 -21t21 -50t-21 -50t-50 -21t-50 21t-21 50zM92 59q0 -25 17 -42t42 -17t42 17t17 42t-17 42t-42 17t-42 -17t-17 -42zM112 59q0 17 11 28t28 11t28 -11t11 -28t-11 -28t-28 -11t-28 11t-11 28z" />
    <glyph glyph-name="quotedbl" unicode="&#x22;" horiz-adv-x="342" 
d="M90 483q-18 69 -28 110.5t-15 64.5t-6.5 33.5t-1.5 17.5q0 23 12 37t45 14q34 0 46 -14t12 -35q0 -7 -1.5 -17.5t-7.5 -34t-16.5 -65t-28.5 -111.5h-10zM95 504q16 63 25.5 101t14 59.5t6 31t1.5 15.5q0 17 -10 27t-36 10t-35.5 -11t-9.5 -28q0 -6 1 -15.5t5.5 -30.5
t13.5 -58.5t24 -100.5zM95 584q-9 36 -13.5 58t-7 35.5t-3 20t-0.5 11.5q0 8 5.5 13.5t19.5 5.5q15 0 20.5 -4.5t5.5 -12.5q0 -9 -5.5 -37t-21.5 -90zM240 483q-18 69 -28 110.5t-15 64.5t-6.5 33.5t-1.5 17.5q0 23 12 37t45 14q34 0 46 -14t12 -35q0 -7 -1.5 -17.5
t-7.5 -34t-16.5 -65t-28.5 -111.5h-10zM245 504q16 63 25.5 101t14 59.5t6 31t1.5 15.5q0 17 -10 27t-36 10t-35.5 -11t-9.5 -28q0 -6 1 -15.5t5.5 -30.5t13.5 -58.5t24 -100.5zM245 584q-9 36 -13.5 58t-7 35.5t-3 20t-0.5 11.5q0 8 5.5 13.5t19.5 5.5q15 0 20.5 -4.5
t5.5 -12.5q0 -9 -5.5 -37t-21.5 -90z" />
    <glyph glyph-name="numbersign" unicode="#" horiz-adv-x="767" 
d="M255 264h-220v12h222l38 210h-221v12h223l45 245h12l-45 -245h188l45 245h12l-45 -245h223v-12h-225l-38 -210h224v-12h-226l-48 -264h-12l48 264h-188l-48 -264h-12zM457 276l38 210h-188l-38 -210h188z" />
    <glyph glyph-name="dollar" unicode="$" horiz-adv-x="582" 
d="M54 224h12v-70q2 -3 16.5 -20t40.5 -37.5t62 -39.5t82 -27v278l-100 65q-33 21 -55 40t-36 38t-20 39.5t-6 44.5q0 45 17.5 80t47 59.5t69 38t83.5 16.5v74h12v-73q17 0 27.5 -0.5t20.5 -1.5v75h12v-77q31 -5 56 -14t44.5 -19.5t33.5 -21t22 -17.5v88h12v-209h-12v103
q-2 3 -13 13t-30.5 22.5t-48 24.5t-64.5 18v-282l86 -54q28 -18 50 -35t37 -36t23 -42t8 -52q0 -44 -17 -78.5t-45 -59.5t-65 -40t-77 -19v-80h-12v79q-9 -1 -17.5 -0.5t-15.5 1.5q-8 1 -15 1v-81h-12v82q-39 6 -72 21t-58.5 33t-43 35.5t-27.5 28.5v-136h-12v224zM327 440
v276q-10 1 -20.5 1.5t-27.5 0.5v-248zM267 717q-64 -4 -116 -32.5t-75 -79.5q2 -3 14 -13t45 -31l132 -84v240zM461 197q22 -15 36.5 -27.5t21.5 -19.5q12 28 12 63q0 52 -30 87.5t-82 67.5l-290 183q-24 15 -37.5 26t-19.5 18q-10 -26 -10 -60q0 -45 25.5 -79t85.5 -73z
M184 400q-53 35 -77.5 66t-24.5 69v12t1 11q15 -12 35 -24l290 -183q48 -29 75.5 -60.5t27.5 -77.5q0 -6 -0.5 -13.5t-1.5 -13.5q-3 3 -5.5 5t-5.5 4.5t-9 6t-17 11.5zM279 29q6 0 14 -1q7 -1 15 -1.5t19 0.5v242l-48 31v-271zM339 28q56 5 104 33.5t71 75.5q-4 5 -18.5 19
t-40.5 31l-116 75v-234z" />
    <glyph glyph-name="percent" unicode="%" horiz-adv-x="676" 
d="M166 494q-27 0 -51.5 10.5t-42.5 28.5t-28.5 42.5t-10.5 51.5t10.5 51.5t28.5 42.5t42.5 28.5t51.5 10.5t51.5 -10.5t42.5 -28.5t28.5 -42.5t10.5 -51.5t-10.5 -51.5t-28.5 -42.5t-42.5 -28.5t-51.5 -10.5zM602 748l10 -6l-536 -742l-10 6zM166 506q25 0 47 9.5t38.5 26
t26 38.5t9.5 47t-9.5 47t-26 38.5t-38.5 26t-47 9.5t-47 -9.5t-38.5 -26t-26 -38.5t-9.5 -47t9.5 -47t26 -38.5t38.5 -26t47 -9.5zM377 121q0 27 10.5 51.5t28.5 42.5t42.5 28.5t51.5 10.5t51.5 -10.5t42.5 -28.5t28.5 -42.5t10.5 -51.5t-10.5 -51.5t-28.5 -42.5
t-42.5 -28.5t-51.5 -10.5t-51.5 10.5t-42.5 28.5t-28.5 42.5t-10.5 51.5zM389 121q0 -25 9.5 -47t26 -38.5t38.5 -26t47 -9.5t47 9.5t38.5 26t26 38.5t9.5 47t-9.5 47t-26 38.5t-38.5 26t-47 9.5t-47 -9.5t-38.5 -26t-26 -38.5t-9.5 -47z" />
    <glyph glyph-name="ampersand" unicode="&#x26;" horiz-adv-x="733" 
d="M205 21q57 -21 123 -21q57 0 104.5 16t82.5 44t54.5 66t19.5 83q0 44 -16.5 83t-45.5 69l-14 8q-23 11 -46 20.5t-48 9.5q-36 0 -63 -25t-27 -66q0 -21 9 -40.5t32 -36.5l-8 -10q-25 19 -35 40.5t-10 46.5q0 23 8.5 42t22.5 32.5t32.5 21t38.5 7.5q26 0 50 -9.5t49 -22.5
t51.5 -23t55.5 -10q38 0 62.5 22.5t24.5 58.5q0 19 -8.5 36t-28.5 31l6 10q23 -17 33 -36t10 -41q0 -42 -27 -67.5t-72 -25.5q-20 0 -38 4.5t-35 11.5q23 -29 36 -65.5t13 -75.5q0 -47 -20.5 -87.5t-57 -70t-86.5 -46.5t-109 -17q-54 0 -105.5 15t-91 43.5t-64 70.5
t-24.5 96q0 45 15.5 77.5t37 54.5t45 34.5t38.5 18.5q-19 10 -36 25t-30.5 35.5t-21.5 46t-8 57.5q0 52 22 89.5t55 61.5t72.5 35.5t75.5 11.5q37 0 72.5 -9t63 -24t44 -34t16.5 -40q0 -32 -18.5 -45.5t-40.5 -13.5q-23 0 -41 14.5t-18 43.5q0 11 6 21.5t14 19t16.5 15
t14.5 10.5q-26 14 -59.5 22t-69.5 8q-25 0 -51 -5.5t-52 -17.5v-704zM193 719q-41 -21 -69.5 -59.5t-28.5 -97.5q0 -31 8.5 -56t22 -44.5t31 -33.5t36.5 -23v314zM445 606q17 0 32 10.5t15 36.5q0 16 -11.5 30.5t-31.5 27.5q-3 -2 -11.5 -7t-17 -13t-15.5 -18t-7 -21
q0 -23 14.5 -34.5t32.5 -11.5zM445 626q-11 0 -19 6.5t-8 19.5q0 11 10.5 20.5t19.5 14.5q11 -8 17.5 -17t6.5 -17q0 -15 -8.5 -21t-18.5 -6zM173 440q-25 19 -41.5 49t-16.5 73q0 41 16.5 70.5t41.5 49.5v-242zM193 390q-11 -3 -33.5 -13.5t-46 -31.5t-41 -53t-17.5 -79
q0 -68 39 -115t99 -72v364zM173 57q-43 24 -70.5 63.5t-27.5 92.5q0 32 10 56.5t25 42.5t32 30t31 19v-304z" />
    <glyph glyph-name="quotesingle" unicode="'" horiz-adv-x="192" 
d="M90 483q-18 69 -28 110.5t-15 64.5t-6.5 33.5t-1.5 17.5q0 23 12 37t45 14q34 0 46 -14t12 -35q0 -7 -1.5 -17.5t-7.5 -34t-16.5 -65t-28.5 -111.5h-10zM95 504q16 63 25.5 101t14 59.5t6 31t1.5 15.5q0 17 -10 27t-36 10t-35.5 -11t-9.5 -28q0 -6 1 -15.5t5.5 -30.5
t13.5 -58.5t24 -100.5zM95 584q-9 36 -13.5 58t-7 35.5t-3 20t-0.5 11.5q0 8 5.5 13.5t19.5 5.5q15 0 20.5 -4.5t5.5 -12.5q0 -9 -5.5 -37t-21.5 -90z" />
    <glyph glyph-name="parenleft" unicode="(" horiz-adv-x="264" 
d="M45 299q0 95 20.5 180t55 148.5t80 100.5t95.5 37v-12q-48 0 -91.5 -36t-76 -98t-52 -144.5t-19.5 -175.5q0 -89 19.5 -170t52 -142.5t76 -98t91.5 -36.5v-12q-50 0 -95.5 37.5t-80 101t-55 146.5t-20.5 174z" />
    <glyph glyph-name="parenright" unicode=")" horiz-adv-x="264" 
d="M-32 -148q48 0 91.5 36t76 98t52 144.5t19.5 175.5q0 89 -19.5 170t-52 142.5t-76 98t-91.5 36.5v12q50 0 95.5 -37.5t80 -101t55 -146.5t20.5 -174q0 -95 -20.5 -180t-55 -148.5t-80 -100.5t-95.5 -37v12v0z" />
    <glyph glyph-name="asterisk" unicode="*" horiz-adv-x="466" 
d="M227 757h12v-177h-12v177zM43 644l6 10l153 -89l-6 -10zM263 564l154 89l6 -10l-154 -89zM269 526l154 -89l-6 -10l-154 89zM43 438l153 88l6 -10l-153 -88zM227 502h12v-178h-12v178z" />
    <glyph glyph-name="plus" unicode="+" horiz-adv-x="700" 
d="M64 347h275v319h12v-319h283v-12h-283v-289h-12v289h-275v12z" />
    <glyph glyph-name="comma" unicode="," horiz-adv-x="261" 
d="M57 57q0 26 18 46.5t50 20.5q23 0 39 -10.5t26 -27t14.5 -37.5t4.5 -43q0 -32 -8.5 -63.5t-26 -56.5t-43 -40.5t-58.5 -15.5v12q30 0 53.5 14.5t39 38t23.5 52.5t8 59v9q-12 -11 -30 -19t-40 -8q-34 0 -52 21.5t-18 47.5zM69 57q0 -22 15 -39.5t43 -17.5q23 0 40.5 9.5
t27.5 19.5q-4 33 -20 58t-50 25q-26 0 -41 -17t-15 -38zM89 57q0 14 9.5 24.5t26.5 10.5q22 0 33.5 -16.5t15.5 -39.5q-8 -6 -20.5 -11t-26.5 -5q-18 0 -28 11.5t-10 25.5z" />
    <glyph glyph-name="hyphen" unicode="-" horiz-adv-x="420" 
d="M63 327h294v-76h-294v76zM345 263v52h-270v-52h270zM95 295h230v-12h-230v12z" />
    <glyph glyph-name="period" unicode="." horiz-adv-x="252" 
d="M55 59q0 29 21 50t50 21t50 -21t21 -50t-21 -50t-50 -21t-50 21t-21 50zM67 59q0 -25 17 -42t42 -17t42 17t17 42t-17 42t-42 17t-42 -17t-17 -42zM87 59q0 17 11 28t28 11t28 -11t11 -28t-11 -28t-28 -11t-28 11t-11 28z" />
    <glyph glyph-name="slash" unicode="/" horiz-adv-x="367" 
d="M326 749l12 -4l-302 -948l-12 4z" />
    <glyph glyph-name="zero" unicode="0" horiz-adv-x="762" 
d="M50 370q0 78 24.5 148.5t68 124.5t104.5 85.5t134 31.5t134 -31.5t104.5 -85.5t68 -124.5t24.5 -148.5q0 -74 -24.5 -142.5t-68 -122t-104.5 -85.5t-134 -32t-134 32t-104.5 85.5t-68 122t-24.5 142.5zM212 56q36 -26 78.5 -41t90.5 -15t90.5 15t78.5 41v637
q-36 26 -78.5 40.5t-90.5 14.5t-90.5 -14.5t-78.5 -40.5v-637zM562 65q64 53 101 133.5t37 171.5q0 96 -37 178.5t-101 134.5v-618zM200 683q-65 -52 -101.5 -134.5t-36.5 -178.5q0 -91 36.5 -171.5t101.5 -133.5v618zM582 637q46 -50 72 -119.5t26 -147.5q0 -75 -25 -141.5
t-73 -117.5v526zM180 112q-47 51 -72.5 118t-25.5 140q0 79 25 148t73 119v-525z" />
    <glyph glyph-name="one" unicode="1" horiz-adv-x="456" 
d="M36 12h140v629q-28 -12 -60.5 -18.5t-74.5 -6.5v12q71 0 120.5 20t81.5 44q37 28 60 65h11v-745h140v-12h-418v12zM302 12v723q-12 -16 -40 -42t-74 -47v-634h114zM208 633q23 11 41.5 24.5t32.5 25.5v-651h-74v601z" />
    <glyph glyph-name="two" unicode="2" horiz-adv-x="621" 
d="M46 0q0 78 20.5 131t52.5 88q41 45 98 72.5t112 48.5q14 5 28.5 10.5t28.5 11.5v372q-48 14 -95 14q-55 0 -102 -17t-78 -43q7 -6 17 -14.5t19 -19t15.5 -22.5t6.5 -25q0 -23 -17.5 -40t-40.5 -17q-9 0 -19.5 3.5t-19 10.5t-14.5 18.5t-6 26.5q0 27 19 53.5t51.5 48.5
t76 35.5t92.5 13.5q45 0 90.5 -12.5t82.5 -38.5t60.5 -66.5t23.5 -96.5q0 -50 -18 -84t-48 -58.5t-69 -42t-81 -33.5q-55 -21 -111 -48t-94 -69q-33 -36 -50 -85h483q3 18 3 37q0 14 -1.5 28t-3.5 28l12 2q2 -14 3.5 -28.5t1.5 -29.5q0 -31 -8.5 -60t-27 -52t-49 -37
t-74.5 -14h-370zM398 367q29 13 54.5 29t44 37t29 49t10.5 64t-11 65.5t-30 52t-44 39t-53 26.5v-362zM418 699q42 -21 70 -58.5t28 -94.5q0 -56 -28 -90.5t-70 -57.5v301zM111 562q18 0 32 13.5t14 31.5q0 12 -6 23t-15 20.5t-18.5 17t-15.5 12.5q-18 -17 -28 -35t-10 -36
q0 -25 16 -36t31 -11zM111 582q-8 0 -17.5 6.5t-9.5 20.5q0 21 21 45q11 -9 21.5 -22t10.5 -25q0 -10 -7.5 -17.5t-18.5 -7.5zM416 12q64 0 97 29.5t44 72.5h-484q-14 -45 -15 -102h358zM79 32l4 32t5 30h441q-13 -27 -40.5 -44.5t-72.5 -17.5h-337z" />
    <glyph glyph-name="three" unicode="3" horiz-adv-x="621" 
d="M103 60q32 -26 81.5 -43t107.5 -17q26 0 52.5 4t52.5 12v360h-107v12h107v345q-48 15 -98 15q-57 0 -104 -17t-79 -43q7 -6 17.5 -14t19.5 -18.5t15.5 -23t6.5 -25.5q0 -23 -17.5 -40t-40.5 -17q-10 0 -20.5 3.5t-19 10.5t-14 18.5t-5.5 26.5q0 27 19 53.5t51.5 48.5
t76.5 35.5t94 13.5q43 0 88.5 -11.5t82.5 -35.5t60.5 -62t23.5 -92q0 -35 -10.5 -62.5t-28.5 -49t-43 -37.5t-53 -27q31 -11 57.5 -27.5t46 -39t30.5 -51.5t11 -65q0 -55 -25 -95t-64 -66t-87.5 -38.5t-95.5 -12.5q-51 0 -96.5 13.5t-79.5 35.5t-53.5 48.5t-19.5 53.5
q0 15 6 26.5t14.5 18.5t19 10.5t19.5 3.5q23 0 40.5 -17t17.5 -40q0 -14 -6 -26t-15 -22.5t-19 -18.5t-17 -14zM409 391q27 10 51.5 25.5t42.5 36t28.5 47t10.5 59.5q0 34 -10.5 61t-28.5 48t-42.5 36t-51.5 25v-338zM429 699q41 -20 67 -54.5t26 -85.5q0 -50 -26.5 -83.5
t-66.5 -53.5v277zM117 562q18 0 32 13.5t14 31.5q0 12 -6 23.5t-15 21t-18.5 17t-15.5 12.5q-38 -36 -38 -72q0 -25 16 -36t31 -11zM117 582q-8 0 -17.5 6.5t-9.5 20.5q0 21 20 46q11 -9 22 -22t11 -26q0 -10 -7.5 -17.5t-18.5 -7.5zM409 19q30 10 56 26.5t45.5 39
t30.5 51.5t11 64q0 34 -11 61.5t-30 49t-45.5 37t-56.5 25.5v-354zM429 344q48 -19 75.5 -53.5t27.5 -90.5q0 -54 -29.5 -92t-73.5 -59v295zM94 68q6 4 15.5 11.5t18 17.5t14.5 21t6 23q0 18 -14 31.5t-32 13.5q-15 0 -31 -11t-16 -36q0 -37 39 -71zM95 94q-20 21 -20 45
q0 14 9.5 20.5t17.5 6.5q11 0 18.5 -7.5t7.5 -17.5q0 -13 -11 -25.5t-22 -21.5z" />
    <glyph glyph-name="four" unicode="4" horiz-adv-x="644" 
d="M11 249l371 499h115v-497h124v-12h-124v-227h95v-12h-328v12h95v227h-348v10zM485 12v724h-95l-19 -26v-698h114zM391 703l9 13h65v-684h-74v671zM359 251v443l-331 -443h331z" />
    <glyph glyph-name="five" unicode="5" horiz-adv-x="601" 
d="M101 60q32 -26 81 -43t107 -17q53 0 106 18v402q-54 17 -109 17q-56 0 -107 -15t-85 -32l-9 7l10 351h418q0 8 0.5 17t0.5 18v15h12v-15q0 -35 -4.5 -66t-20 -53.5t-46.5 -35.5t-83 -13h-269l-6 -211q35 17 85 31t104 14q50 0 99.5 -13.5t88.5 -41t63.5 -70.5t24.5 -102
q0 -60 -25 -104t-64 -73t-87.5 -43t-96.5 -14q-51 0 -96 13.5t-78.5 35.5t-53.5 48.5t-20 53.5q0 15 6 26.5t14.5 18.5t19 10.5t19.5 3.5q23 0 40.5 -17t17.5 -40q0 -14 -6 -26t-15 -22.5t-19 -18.5t-17 -14zM372 627q39 0 65 8t41.5 22.5t23 34.5t10.5 44h-405l-3 -109h268
zM126 716h362q-4 -16 -11.5 -29t-21 -22t-33.5 -13.5t-50 -4.5h-247zM407 23q30 12 56 30t45.5 43t30.5 56.5t11 69.5t-11 69t-30.5 55t-45.5 41.5t-56 28.5v-393zM427 386q48 -22 75.5 -61.5t27.5 -102.5q0 -60 -29 -101.5t-74 -65.5v331zM92 68q6 4 15.5 11.5t18 17.5
t14.5 21t6 23q0 18 -14 31.5t-32 13.5q-15 0 -31 -11t-16 -36q0 -37 39 -71zM93 94q-20 21 -20 45q0 14 9.5 20.5t17.5 6.5q11 0 18.5 -7.5t7.5 -17.5q0 -13 -11 -25.5t-22 -21.5z" />
    <glyph glyph-name="six" unicode="6" horiz-adv-x="663" 
d="M357 -12q-61 0 -116.5 26.5t-97.5 75.5t-66.5 116.5t-24.5 150.5q0 78 23 150.5t65.5 129t102.5 90t135 33.5q39 0 78 -9.5t69.5 -27t50 -41.5t19.5 -53q0 -16 -5.5 -27t-14 -18t-19 -10.5t-20.5 -3.5q-23 0 -40.5 16.5t-17.5 40.5q0 13 5.5 24.5t13.5 21.5t17.5 18.5
t17.5 14.5q-30 20 -71 31t-83 11q-49 0 -91.5 -15.5t-77.5 -43.5v-296q31 28 72.5 47.5t92.5 19.5q43 0 86 -15.5t78 -44t57 -70t22 -93.5q0 -50 -20 -95t-55.5 -79t-83 -54.5t-101.5 -20.5zM536 582q15 0 31 11t16 37q0 20 -11 37t-30 31q-8 -5 -17 -12.5t-16.5 -17
t-13 -20t-5.5 -22.5q0 -19 14 -31.5t32 -12.5zM197 679q-32 -27 -56.5 -63t-41.5 -77.5t-26 -87.5t-9 -94q0 -101 36.5 -178.5t96.5 -122.5v623zM536 602q-11 0 -18.5 6.5t-7.5 17.5q0 14 10 26t21 21q10 -10 16 -21t6 -22q0 -15 -9.5 -21.5t-17.5 -6.5zM177 100
q-44 45 -68.5 109.5t-24.5 147.5q0 78 24 149t69 124v-530zM209 47q67 -47 148 -47q26 0 50.5 5t47.5 14v414q-41 15 -81 15q-48 0 -90.5 -19t-74.5 -51v-331zM467 25q62 30 100 87t38 124q0 35 -11 65.5t-30 55t-44 42.5t-53 30v-404zM487 397q41 -24 69.5 -65.5
t28.5 -95.5q0 -53 -26.5 -99.5t-71.5 -76.5v337z" />
    <glyph glyph-name="seven" unicode="7" horiz-adv-x="585" 
d="M135 50q0 20 9 39t23 38t31.5 36.5t35.5 34.5l170 163l115 254h-468v-90h-12v223h547v-10l-298 -658q-8 -18 -17.5 -34.5t-21 -29.5t-25.5 -20.5t-31 -7.5q-25 0 -41.5 16.5t-16.5 45.5zM524 627l50 109h-523v-109h473zM71 716h473q-11 -23 -17.5 -36.5t-15.5 -32.5h-440
v69zM147 50q0 -23 13 -36.5t33 -13.5q15 0 27 7t22.5 19t19 27t16.5 31l114 252l-150 -146q-17 -17 -34 -33.5t-30.5 -34t-22 -35.5t-8.5 -37zM167 50q0 16 8 32t20.5 31.5t28.5 31.5t32 31l74 71q-14 -31 -22 -48t-14 -30.5t-13.5 -30t-20.5 -46.5q-13 -27 -29 -49.5
t-38 -22.5q-11 0 -18.5 8t-7.5 22z" />
    <glyph glyph-name="eight" unicode="8" horiz-adv-x="674" 
d="M51 203q0 66 43 116.5t111 76.5q-57 25 -92.5 68.5t-35.5 100.5q0 42 20.5 78t56 62t83 40.5t100.5 14.5t100.5 -14.5t83 -40.5t56 -62t20.5 -78q0 -57 -36 -100.5t-93 -68.5q68 -26 111.5 -76.5t43.5 -116.5q0 -47 -23 -86.5t-62 -68t-91 -44.5t-110 -16q-59 0 -111 16
t-91 44.5t-61.5 68t-22.5 86.5zM445 402v328q-25 8 -52 13t-56 5t-56.5 -5t-51.5 -13v-328h216zM457 404q57 23 92.5 65t35.5 96q0 55 -35.5 96.5t-92.5 64.5v-322zM217 726q-57 -23 -92.5 -64.5t-35.5 -96.5q0 -54 35.5 -96t92.5 -65v322zM197 435q-40 22 -64 55.5
t-24 74.5q0 42 24 75t64 55v-260zM477 694q40 -22 64 -54.5t24 -74.5q0 -41 -24.5 -74t-63.5 -55v258zM229 15q49 -15 108 -15q58 0 108 15v375h-216v-375zM457 19q69 24 111.5 72t42.5 112q0 31 -11.5 59.5t-32 52.5t-48.5 42.5t-62 30.5v-369zM63 203q0 -64 42.5 -112
t111.5 -72v369q-34 -12 -62.5 -30.5t-48.5 -42.5t-31.5 -52.5t-11.5 -59.5zM477 358q51 -24 82.5 -64.5t31.5 -90.5q0 -51 -30 -90.5t-84 -63.5v309zM197 49q-50 25 -82 65t-32 89q0 48 32 88.5t82 65.5v-308z" />
    <glyph glyph-name="nine" unicode="9" horiz-adv-x="660" 
d="M127 42q30 -20 71.5 -31t83.5 -11q49 0 91.5 16.5t77.5 45.5v302q-33 -31 -75.5 -52.5t-93.5 -21.5q-39 0 -80.5 15t-75.5 43.5t-56 69.5t-22 93q0 49 20 94t55 79.5t81 55t99 20.5q61 0 116.5 -25t97.5 -70.5t66.5 -110.5t24.5 -144q0 -81 -23 -157t-65.5 -135
t-102.5 -94.5t-135 -35.5q-39 0 -78 9.5t-69.5 26.5t-50 41t-19.5 53q0 16 6 27.5t14.5 18.5t19 10.5t19.5 3.5q23 0 40.5 -17t17.5 -40q0 -13 -5.5 -25t-14 -22t-18 -18t-17.5 -14zM210 314q36 -12 72 -12q51 0 94 23.5t75 55.5v323q-33 21 -70.5 32.5t-77.5 11.5
q-49 0 -93 -19v-415zM198 723q-31 -15 -56.5 -37t-43.5 -50t-28 -59.5t-10 -65.5q0 -36 11.5 -66t30.5 -54.5t44 -42.5t52 -29v404zM463 72q63 58 98 148t35 190q0 97 -36.5 170t-96.5 116v-624zM178 350q-42 23 -70 63.5t-28 97.5q0 54 26.5 101t71.5 77v-339zM483 653
q42 -42 67.5 -104.5t25.5 -138.5q0 -79 -25.5 -155t-67.5 -132v530zM117 49q7 5 16 12.5t17 17t14 20t6 22.5q0 18 -14 31.5t-32 13.5q-15 0 -31 -11t-16 -37q0 -20 11 -37.5t29 -31.5zM118 74q-21 21 -21 44q0 15 9.5 21.5t17.5 6.5q11 0 18.5 -7.5t7.5 -17.5
q0 -12 -10.5 -25t-21.5 -22z" />
    <glyph glyph-name="colon" unicode=":" horiz-adv-x="294" 
d="M147 368q-29 0 -50 21t-21 50t21 50t50 21t50 -21t21 -50t-21 -50t-50 -21zM147 380q25 0 42 17t17 42t-17 42t-42 17t-42 -17t-17 -42t17 -42t42 -17zM147 400q-17 0 -28 11t-11 28t11 28t28 11t28 -11t11 -28t-11 -28t-28 -11zM76 59q0 29 21 50t50 21t50 -21t21 -50
t-21 -50t-50 -21t-50 21t-21 50zM88 59q0 -25 17 -42t42 -17t42 17t17 42t-17 42t-42 17t-42 -17t-17 -42zM108 59q0 17 11 28t28 11t28 -11t11 -28t-11 -28t-28 -11t-28 11t-11 28z" />
    <glyph glyph-name="semicolon" unicode=";" horiz-adv-x="299" 
d="M151 368q-29 0 -50 21t-21 50t21 50t50 21t50 -21t21 -50t-21 -50t-50 -21zM151 380q25 0 42 17t17 42t-17 42t-42 17t-42 -17t-17 -42t17 -42t42 -17zM151 400q-17 0 -28 11t-11 28t11 28t28 11t28 -11t11 -28t-11 -28t-28 -11zM74 57q0 26 18 46.5t50 20.5
q23 0 39 -10.5t26 -27t14.5 -37.5t4.5 -43q0 -32 -8.5 -63.5t-26 -56.5t-43 -40.5t-58.5 -15.5v12q30 0 53.5 14.5t39 38t23.5 52.5t8 59v9q-12 -11 -30 -19t-40 -8q-34 0 -52 21.5t-18 47.5zM86 57q0 -22 15 -39.5t43 -17.5q23 0 40.5 9.5t27.5 19.5q-4 33 -20 58t-50 25
q-26 0 -41 -17t-15 -38zM106 57q0 14 9.5 24.5t26.5 10.5q22 0 33.5 -16.5t15.5 -39.5q-8 -6 -20.5 -11t-26.5 -5q-18 0 -28 11.5t-10 25.5z" />
    <glyph glyph-name="less" unicode="&#x3c;" horiz-adv-x="700" 
d="M41 345l570 300l6 -10l-561 -295l561 -295l-6 -10l-570 300v10z" />
    <glyph glyph-name="equal" unicode="=" horiz-adv-x="700" 
d="M65 447h570v-12h-570v12zM65 247h570v-12h-570v12z" />
    <glyph glyph-name="greater" unicode="&#x3e;" horiz-adv-x="700" 
d="M642 340l-560 295l6 10l570 -300v-10l-570 -300l-6 10z" />
    <glyph glyph-name="question" unicode="?" horiz-adv-x="531" 
d="M241 228q0 25 7.5 45t19.5 36t28.5 29t34.5 25v374q-39 11 -76 11q-51 0 -94 -16.5t-72 -41.5q8 -6 18 -15t18.5 -19.5t14.5 -22.5t6 -25q0 -23 -17.5 -40.5t-40.5 -17.5q-9 0 -19.5 3.5t-19 10t-14.5 17.5t-6 26q0 25 17.5 52t47.5 49.5t71.5 37t89.5 14.5
q44 0 87 -13.5t76.5 -40t54 -65.5t20.5 -90q0 -38 -12 -66t-31 -49t-42.5 -37.5t-47.5 -30.5q-20 -12 -39 -25.5t-34 -30t-24.5 -37.5t-9.5 -47v-36h-12v36zM343 371q25 15 49.5 31t44 36.5t32 47.5t12.5 65q0 35 -10.5 64t-29.5 52t-44 39.5t-54 26.5v-362zM363 703
q41 -21 69.5 -59.5t28.5 -92.5q0 -29 -8 -50.5t-21.5 -38.5t-31.5 -30.5t-37 -25.5v297zM88 562q18 0 32 13.5t14 32.5q0 11 -6 22.5t-14 21t-17.5 17.5t-16.5 13q-39 -37 -39 -75q0 -24 16 -34.5t31 -10.5zM88 582q-8 0 -17.5 5.5t-9.5 19.5q0 22 21 48q11 -10 21.5 -23
t10.5 -24t-7.5 -18.5t-18.5 -7.5zM180 59q0 29 21 50t50 21t50 -21t21 -50t-21 -50t-50 -21t-50 21t-21 50zM192 59q0 -25 17 -42t42 -17t42 17t17 42t-17 42t-42 17t-42 -17t-17 -42zM212 59q0 17 11 28t28 11t28 -11t11 -28t-11 -28t-28 -11t-28 11t-11 28z" />
    <glyph glyph-name="at" unicode="@" horiz-adv-x="889" 
d="M36 262q0 83 29 158.5t83.5 133t132 91.5t174.5 34q82 0 152.5 -25.5t121.5 -72t80 -112.5t29 -146q0 -71 -19 -125t-49 -90.5t-67 -55.5t-73 -19q-23 0 -44.5 6.5t-38.5 19t-28.5 31.5t-14.5 44q-5 -16 -11.5 -32t-16.5 -29q-17 -22 -41 -35t-59 -13q-70 0 -108.5 55.5
t-38.5 147.5q0 76 25 126t62 79.5t79 41t76 11.5q29 0 57.5 -7t51.5 -15q26 -10 49 -22v-397q35 0 70 18t63.5 53.5t46 87t17.5 119.5q0 77 -28 140.5t-77.5 108.5t-117.5 70t-148 25q-94 0 -169.5 -33t-128 -88.5t-81 -129t-28.5 -154.5q0 -90 33.5 -166.5t91 -132.5
t135.5 -88t167 -32v-12q-91 0 -171 33t-139.5 90.5t-94 136.5t-34.5 171zM376 37q36 0 60 16.5t39 42t21.5 56t6.5 58.5v262q-8 1 -16 1.5t-16 0.5q-24 0 -52 -5.5t-55 -19.5v-412h12zM515 147q0 -24 8.5 -42t23 -31t32.5 -20t38 -9v391q-9 5 -37 16t-65 18v-323zM535 445
q21 -5 36.5 -11t25.5 -11v-354q-25 8 -43.5 27.5t-18.5 50.5v298zM241 228q0 -78 28.5 -128t82.5 -61v404q-23 -13 -43 -32t-35 -45t-24 -60.5t-9 -77.5zM332 67q-34 17 -52.5 59t-18.5 102q0 66 20 108.5t51 68.5v-338z" />
    <glyph glyph-name="A" unicode="A" horiz-adv-x="724" 
d="M-24 12h71l305 739h12l321 -739h63v-12h-307v12h95l-87 205h-303l-85 -205h107v-12h-192v12zM671 12l-313 721l-56 -136l248 -585h121zM563 32q-60 144 -120 282.5t-120 282.5l35 85q37 -86 72 -166.5t69.5 -160t69.5 -159t72 -164.5h-78zM444 229l-149 352l-144 -352
h293z" />
    <glyph glyph-name="B" unicode="B" horiz-adv-x="748" 
d="M46 12h95v724h-95v12h398q54 0 96 -14.5t71 -40t44.5 -59.5t15.5 -72q0 -58 -36 -99t-98 -64q67 -27 105.5 -77.5t38.5 -113.5q0 -42 -15.5 -79.5t-46 -66t-74.5 -45.5t-101 -17h-398v12zM514 405v323q-35 8 -70 8h-165v-331h235zM267 12v724h-114v-724h114zM526 407
q62 20 97.5 60t35.5 95q0 56 -35 100t-98 63v-318zM173 716h74v-684h-74v684zM546 696q45 -20 69 -54.5t24 -79.5q0 -43 -24 -74.5t-69 -51.5v260zM444 12q35 0 70 8v373h-235v-381h165zM526 23q69 21 106 71.5t37 113.5q0 61 -38.5 109.5t-104.5 72.5v-367zM546 360
q48 -24 75.5 -64t27.5 -88q0 -51 -26 -92t-77 -64v308z" />
    <glyph glyph-name="C" unicode="C" horiz-adv-x="802" 
d="M217 64q42 -31 95 -47.5t115 -16.5q76 0 132.5 24.5t95 62t59 82.5t26.5 86l12 -2q-6 -43 -27.5 -89.5t-61 -85.5t-98.5 -64.5t-138 -25.5q-86 0 -154.5 30.5t-116.5 83.5t-74 124t-26 152q0 82 29.5 152t81 121t120 80t146.5 29q55 0 101 -13.5t81 -32t59.5 -37.5
t36.5 -31v111h12v-194h-12v65q-3 3 -23 22.5t-56 41t-86 39t-113 17.5q-61 0 -116 -18.5t-100 -51.5v-614zM205 669q-63 -50 -100 -124.5t-37 -166.5q0 -94 35.5 -173.5t101.5 -131.5v596zM185 118q-46 49 -71.5 116t-25.5 144q0 75 26 138t71 109v-507z" />
    <glyph glyph-name="D" unicode="D" horiz-adv-x="851" 
d="M46 12h95v724h-95v12h361q85 0 156.5 -29.5t123 -80t80 -118t28.5 -144.5q0 -78 -28.5 -146.5t-80 -119.5t-123 -80.5t-156.5 -29.5h-361v12zM407 12q66 0 124 18.5t105 52.5v582q-47 34 -105 52.5t-124 18.5h-128v-724h128zM267 12v724h-114v-724h114zM173 716h74v-684
h-74v684zM648 92q63 50 99 123.5t36 160.5q0 85 -36 157.5t-99 122.5v-564zM668 612q45 -46 70 -106.5t25 -129.5q0 -144 -95 -239v475z" />
    <glyph glyph-name="E" unicode="E" horiz-adv-x="726" 
d="M46 12h95v724h-95v12h602v-185h-12v173h-357v-354h249v109h12v-226h-12v105h-249v-358h367v178h12v-190h-612v12zM267 12v724h-114v-724h114zM173 716h74v-684h-74v684z" />
    <glyph glyph-name="F" unicode="F" horiz-adv-x="681" 
d="M46 12h95v724h-95v12h602v-185h-12v173h-357v-359h263v109h12v-226h-12v105h-263v-353h100v-12h-333v12zM267 12v724h-114v-724h114zM173 716h74v-684h-74v684z" />
    <glyph glyph-name="G" unicode="G" horiz-adv-x="855" 
d="M217 71q45 -34 100.5 -52.5t119.5 -18.5q58 0 95 12.5t64 26.5q5 2 8.5 4t8.5 4v269h-95v12h303v-12h-70v-313h-12q-16 26 -35 36.5t-37 10.5q-16 0 -32 -6.5t-33 -14.5q-29 -14 -68 -27.5t-97 -13.5q-84 0 -154 31t-120.5 84.5t-78.5 124.5t-28 152q0 82 29 151.5
t81 120.5t124.5 79.5t159.5 28.5q59 0 105 -12.5t79 -30t54 -35.5t31 -29v104h12v-194h-12v72q-25 31 -64 56q-33 21 -83.5 39t-121.5 18q-69 0 -127 -18.5t-106 -51.5v-607zM205 669q-65 -50 -101 -124t-36 -165t36 -169t101 -130v588zM185 127q-47 49 -72 114t-25 139
q0 75 25 136.5t72 108.5v-498zM625 52q11 5 21 7.5t21 2.5q17 0 37 -9t35 -29v292h-114v-264zM645 296h74v-228q-14 8 -26.5 11t-25.5 3q-10 0 -22 -3v217z" />
    <glyph glyph-name="H" unicode="H" horiz-adv-x="945" 
d="M46 12h95v724h-95v12h328v-12h-95v-352h387v352h-95v12h328v-12h-95v-724h95v-12h-328v12h95v360h-387v-360h95v-12h-328v12zM792 12v724h-114v-724h114zM267 12v724h-114v-724h114zM698 716h74v-684h-74v684zM173 716h74v-684h-74v684z" />
    <glyph glyph-name="I" unicode="I" horiz-adv-x="420" 
d="M46 12h95v724h-95v12h328v-12h-95v-724h95v-12h-328v12zM267 12v724h-114v-724h114zM173 716h74v-684h-74v684z" />
    <glyph glyph-name="J" unicode="J" horiz-adv-x="473" 
d="M87 16q20 -8 42.5 -12t42.5 -4q18 0 35 3v733h-95v12h328v-12h-95v-547q0 -42 -11 -79t-32.5 -64t-54 -42.5t-75.5 -15.5q-26 0 -54.5 6t-51.5 18.5t-38 31.5t-15 45q0 30 19 46t43 16q27 0 45 -18t18 -41t-16 -43t-35 -33zM219 6q57 15 85.5 65t28.5 118v547h-114v-730z
M239 716h74v-527q0 -54 -18 -94.5t-56 -59.5v681zM75 21q19 11 35 30.5t16 40.5q0 19 -14 33t-36 14q-20 0 -35.5 -13t-15.5 -37q0 -23 14 -40t36 -28zM74 44q-13 8 -21 19.5t-8 25.5t9.5 22t21.5 8q13 0 21.5 -8t8.5 -19q0 -13 -10 -26t-22 -22z" />
    <glyph glyph-name="K" unicode="K" horiz-adv-x="802" 
d="M46 12h95v724h-95v12h328v-12h-95v-383l371 383h-111v12h202v-12h-75l-235 -243l283 -472q28 17 44 47.5t16 68.5h12q0 -30 -9.5 -56t-27 -45.5t-41.5 -31t-52 -11.5q-35 0 -72.5 17.5t-62.5 60.5l-187 323l-55 -57v-325h95v-12h-328v12zM267 12v724h-114v-724h114z
M173 716h74v-684h-74v684zM531 78q12 -21 27.5 -35t32 -22.5t33 -12t31.5 -3.5q28 0 48 10l-281 470l-79 -82zM418 452l256 -426q-5 -1 -9.5 -1h-9.5q-25 0 -56 14t-51 49l-181 312z" />
    <glyph glyph-name="L" unicode="L" horiz-adv-x="671" 
d="M46 12h95v724h-95v12h328v-12h-95v-724h352v198h12v-210h-597v12zM267 12v724h-114v-724h114zM173 716h74v-684h-74v684z" />
    <glyph glyph-name="M" unicode="M" horiz-adv-x="1024" 
d="M46 12h95v724h-95v12h215l253 -571l229 571h235v-12h-95v-724h95v-12h-328v12h95v709l-224 -560l-65 -161h-11l-292 648v-636h95v-12h-202v12zM871 12v724h-114v-724h114zM508 161l-254 575h-101v-59l297 -660zM777 716h74v-684h-74v684zM173 680v36h68
q62 -141 123 -277.5t123 -277.5l-38 -93z" />
    <glyph glyph-name="N" unicode="N" horiz-adv-x="869" 
d="M46 12h95v724h-95v12h209l467 -538v526h-95v12h202v-12h-95v-736h-12l-569 649v-637h95v-12h-202v12zM722 19v172l-473 545h-96v-67zM173 716h67l462 -532v-112l-529 604v40z" />
    <glyph glyph-name="O" unicode="O" 
d="M54 370q0 81 31 152.5t85 124t126 83t154 30.5t154 -30.5t126 -83t85 -124t31 -152.5q0 -79 -31 -148.5t-85 -121.5t-126 -82t-154 -30t-154 30t-126 82t-85 121.5t-31 148.5zM216 76q49 -36 108.5 -56t125.5 -20t125.5 20t108.5 56v594q-49 37 -108.5 57.5t-125.5 20.5
t-125.5 -20.5t-108.5 -57.5v-594zM696 86q63 51 100.5 124t37.5 160q0 89 -37.5 164t-100.5 127v-575zM204 661q-64 -52 -101 -127t-37 -164q0 -87 37 -160t101 -124v575zM716 615q45 -48 71.5 -111t26.5 -134q0 -70 -26 -131t-72 -108v484zM184 130q-46 47 -72 109t-26 131
q0 72 25.5 134.5t72.5 110.5v-485z" />
    <glyph glyph-name="P" unicode="P" horiz-adv-x="730" 
d="M46 12h95v724h-95v12h413q55 0 99.5 -18t76 -48.5t49 -72t17.5 -88.5q0 -45 -17.5 -85t-49 -70t-76 -47.5t-99.5 -17.5h-180v-289h95v-12h-328v12zM459 313q49 0 90 15v392q-43 16 -90 16h-180v-423h180zM267 12v724h-114v-724h114zM173 716h74v-684h-74v684zM561 332
q60 25 94 75.5t34 113.5q0 65 -34 116.5t-94 77.5v-383zM581 683q42 -26 65 -68.5t23 -93.5q0 -50 -23 -90.5t-65 -66.5v319z" />
    <glyph glyph-name="Q" unicode="Q" 
d="M54 372q0 80 31 151t85 123.5t126 83t154 30.5t154 -30.5t126 -83t85 -123.5t31 -151q0 -64 -20 -122t-56 -105t-85.5 -82.5t-108.5 -54.5q7 -18 15.5 -44t22 -49t32.5 -39.5t48 -16.5q19 0 35 7.5t27.5 21t18 31.5t6.5 38h12q0 -23 -7.5 -43t-20.5 -35t-31.5 -23.5
t-39.5 -8.5q-29 0 -50 15t-35.5 38t-25 50.5t-18.5 53.5q-27 -8 -56 -12t-59 -4q-82 0 -154 30t-126 82t-85 122t-31 150zM216 76q61 -46 142 -66q3 49 32.5 79.5t73.5 30.5q22 0 39.5 -9t30 -23t22 -32t16.5 -37q61 19 112 57v594q-49 37 -108.5 57.5t-125.5 20.5
t-125.5 -20.5t-108.5 -57.5v-594zM696 85q63 51 100.5 125t37.5 162t-37.5 162.5t-100.5 126.5v-576zM204 661q-64 -52 -101 -126.5t-37 -162.5t37 -162t101 -125v576zM716 615q45 -48 71.5 -111t26.5 -132q0 -146 -98 -241v484zM184 130q-46 48 -72 110t-26 132
q0 71 25.5 133t72.5 110v-485zM370 8q20 -4 39.5 -6t40.5 -2q58 0 111 15q-6 18 -14.5 34.5t-20 29.5t-27 21t-35.5 8q-40 0 -66 -28t-28 -72z" />
    <glyph glyph-name="R" unicode="R" horiz-adv-x="787" 
d="M46 12h95v724h-95v12h383q54 0 97.5 -15.5t74.5 -42.5t48 -64t17 -79q0 -59 -32 -109.5t-95 -79.5q63 -24 90.5 -70t27.5 -106v-182q47 5 76.5 40.5t29.5 86.5h12q0 -29 -10 -54.5t-27 -44t-41 -29.5t-52 -11t-52 11t-41.5 30.5t-27.5 45.5t-10 57v219h-235v-339h95v-12
h-328v12zM514 363v360q-20 6 -41 9.5t-44 3.5h-150v-373h235zM267 12v724h-114v-724h114zM526 364q63 27 95.5 76.5t32.5 106.5q0 59 -34 104.5t-94 67.5v-355zM173 716h74v-684h-74v684zM546 688q42 -23 65 -59.5t23 -81.5q0 -44 -24 -84.5t-64 -66.5v292zM526 132
q0 -29 9 -53t24.5 -41.5t37.5 -27.5t48 -10v182q0 57 -28 101.5t-91 66.5v-218zM546 319q39 -22 59 -57.5t20 -79.5v-160q-35 7 -57 37t-22 73v187z" />
    <glyph glyph-name="S" unicode="S" horiz-adv-x="645" 
d="M71 219h12v-91q2 -3 21 -23.5t52.5 -43.5t80.5 -42t107 -19q35 0 68 8t61.5 23t50.5 37.5t36 52.5q-2 6 -12.5 23.5t-39.5 35.5l-314 199q-32 21 -54.5 39.5t-36.5 38t-20 41.5t-6 48q0 54 20 94t54 66.5t79 40t96 13.5q43 0 78.5 -9.5t62.5 -22t46 -26.5t29 -23v78h12
v-194h-12v98q-2 1 -16.5 15t-41.5 30t-67 29t-91 13q-74 0 -133.5 -29t-86.5 -88q2 -5 11.5 -21.5t41.5 -37.5l314 -201q56 -36 86.5 -73t30.5 -94q0 -52 -20.5 -92.5t-54.5 -68t-78.5 -41.5t-92.5 -14q-52 0 -95 14t-76 33.5t-56 40t-34 33.5v-109h-12v219zM514 190
q23 -15 35 -30t17 -26q12 31 12 70q0 27 -6.5 48t-20.5 39t-35 35t-49 35l-314 201q-23 14 -35.5 28.5t-17.5 25.5q-11 -33 -11 -70q0 -25 5.5 -45t18 -38t34 -36t53.5 -38zM211 406q-55 36 -78.5 66.5t-23.5 73.5v12t1 12q14 -13 32 -25l314 -201q51 -33 76.5 -63t25.5 -77
v-11.5t-1 -11.5q-6 6 -14.5 13t-17.5 13z" />
    <glyph glyph-name="T" unicode="T" horiz-adv-x="735" 
d="M203 12h95v724h-261v-173h-12v185h685v-185h-12v173h-262v-724h95v-12h-328v12zM424 12v724h-114v-724h114zM330 716h74v-684h-74v684z" />
    <glyph glyph-name="U" unicode="U" horiz-adv-x="842" 
d="M255 42q37 -22 81 -32t93 -10q58 0 109.5 17t90.5 52.5t61.5 89t22.5 126.5v451h-95v12h202v-12h-95v-451q0 -76 -23.5 -132t-64 -92.5t-94.5 -54.5t-114 -18q-64 0 -120.5 18t-99 54.5t-67.5 92.5t-25 132v451h-95v12h328v-12h-95v-694zM243 736h-114v-451
q0 -85 31 -142.5t83 -92.5v686zM223 92q-36 32 -55 79.5t-19 113.5v431h74v-624z" />
    <glyph glyph-name="V" unicode="V" horiz-adv-x="731" 
d="M39 736h-64v12h312v-12h-94l242 -567l232 567h-101v12h192v-12h-78l-303 -741h-11zM429 153l-250 583h-127l319 -723zM82 716h84l242 -563l-38 -89z" />
    <glyph glyph-name="W" unicode="W" horiz-adv-x="1051" 
d="M39 736h-64v12h793v-12h-77l-86 -217l150 -352l232 569h-101v12h192v-12h-78l-303 -741h-11l-159 361l-149 -361h-12zM429 151l-250 585h-128l320 -724zM748 151l-250 585h-127l320 -724zM520 371l-161 365h-167l243 -570zM81 716h85l242 -566l-38 -88zM401 716h84
l242 -565l-36 -89zM678 736h-166l86 -200z" />
    <glyph glyph-name="X" unicode="X" horiz-adv-x="761" 
d="M3 12h77l243 328l-258 396h-64v12h316v-12h-89l201 -308l225 308h-103v12h202v-12h-84l-233 -319l264 -405h63v-12h-307v12h82l-208 318l-235 -318h105v-12h-197v12zM686 12l-473 724h-133l472 -724h134zM117 716h85l447 -684h-86z" />
    <glyph glyph-name="Y" unicode="Y" horiz-adv-x="732" 
d="M212 12h94v324l-274 400h-61v12h333v-12h-110l243 -357l218 357h-107v12h202v-12h-81l-225 -369v-355h96v-12h-328v12zM432 12v355l-252 369h-134l272 -396v-328h114zM338 347l-254 369h85l243 -356v-328h-74v315z" />
    <glyph glyph-name="Z" unicode="Z" horiz-adv-x="720" 
d="M43 10l460 726h-427v-173h-12v185h601v-10l-461 -726h446v178h12v-190h-619v10zM190 12l459 724h-132l-459 -724h132zM528 716h84l-433 -684h-84z" />
    <glyph glyph-name="bracketleft" unicode="[" horiz-adv-x="239" 
d="M240 -148v-12h-143v925h143v-12h-131v-901h131z" />
    <glyph glyph-name="backslash" unicode="\" horiz-adv-x="366" 
d="M29 745l11 4l302 -948l-11 -4z" />
    <glyph glyph-name="bracketright" unicode="]" horiz-adv-x="239" 
d="M130 -148v901h-131v12h143v-925h-143v12h131z" />
    <glyph glyph-name="asciicircum" unicode="^" horiz-adv-x="672" 
d="M121 457l210 303h10l210 -303l-10 -6l-205 296l-205 -296z" />
    <glyph glyph-name="underscore" unicode="_" horiz-adv-x="674" 
d="M669 -87v-12h-664v12h664z" />
    <glyph glyph-name="grave" unicode="`" horiz-adv-x="300" 
d="M30 894l7 10l152 -101l-7 -10z" />
    <glyph glyph-name="a" unicode="a" horiz-adv-x="562" 
d="M32 120q0 65 41 98.5t104 33.5h38q50 0 82 21t32 56v161q-29 8 -59 8q-35 0 -68.5 -7.5t-59.5 -21.5q5 -4 12.5 -11.5t15 -17t13 -20.5t5.5 -23q0 -26 -18 -41.5t-41 -15.5q-24 0 -41.5 16.5t-17.5 42.5q0 22 17.5 42.5t46 35.5t64 24t72.5 9q89 0 141 -53t52 -153v-298
q42 5 68.5 39t26.5 82h12q0 -28 -9 -52.5t-25 -42.5t-38 -28.5t-48 -10.5q-45 0 -76 27.5t-41 72.5q-5 -20 -14.5 -36.5t-24.5 -30.5q-20 -17 -48 -27.5t-65 -10.5q-38 0 -66 10t-46.5 28t-27.5 42t-9 52zM341 130q0 -27 8 -49.5t22.5 -39.5t34.5 -26.5t44 -9.5h1v299
q0 71 -29.5 117.5t-80.5 64.5v-356zM181 0q37 0 65 11t46.5 29.5t27.5 43.5t9 53v153q-16 -28 -50 -40q-26 -10 -64 -10h-41v-240h7zM361 454q32 -20 51 -58t19 -92v-277q-32 8 -51 36t-19 67v324zM44 120q0 -48 29 -81t89 -38v238q-53 -4 -85.5 -34t-32.5 -85zM64 120
q0 41 21.5 64.5t56.5 31.5v-192q-40 8 -59 34.5t-19 61.5zM129 352q18 0 32.5 12.5t14.5 32.5q0 12 -6 22.5t-13.5 19.5t-15 15.5t-10.5 8.5q-23 -14 -36 -30t-13 -34q0 -20 13.5 -33.5t33.5 -13.5zM129 372q-11 0 -19 7.5t-8 19.5q0 20 27 40q8 -8 17.5 -19t9.5 -23
q0 -11 -8 -18t-19 -7z" />
    <glyph glyph-name="b" unicode="b" horiz-adv-x="622" 
d="M82 736h-90v12h223v-369q11 46 37 76q23 26 54.5 40.5t72.5 14.5q48 0 85.5 -20.5t63.5 -56t39.5 -82.5t13.5 -101q0 -58 -15.5 -106t-43.5 -82.5t-68 -54t-88 -19.5q-42 0 -74 12t-57 25q-18 9 -35.5 17t-35.5 8q-20 0 -39.5 -12t-31.5 -38h-11v736zM94 23
q11 17 29.5 28t41.5 11q17 0 38 -8v682h-109v-713zM114 716h69v-635q-4 1 -9 1h-9q-27 0 -51 -13v647zM241 35q23 -13 54.5 -24t69.5 -11q39 0 71 13v476q-27 9 -57 9q-39 0 -69.5 -15t-51.5 -40.5t-32 -60t-11 -73.5v-261zM448 18q57 27 89 88t32 144q0 40 -8 77
t-23.5 67.5t-38 53.5t-51.5 36v-466zM468 450q41 -29 61 -81.5t20 -118.5q0 -64 -21.5 -115t-59.5 -81v396z" />
    <glyph glyph-name="c" unicode="c" horiz-adv-x="526" 
d="M179 25q48 -25 107 -25q57 0 94.5 21t60.5 47q26 30 42 69l12 -4q-16 -41 -44 -73q-24 -27 -64.5 -49.5t-100.5 -22.5q-54 0 -99.5 20.5t-78.5 56t-51 83t-18 100.5q0 56 20 104t54.5 83t80.5 55t99 20q33 0 67.5 -8t62.5 -22.5t45.5 -35t17.5 -45.5q0 -26 -18 -42.5
t-41 -16.5t-41 17t-18 42q0 22 15 41t32 30q-26 13 -58.5 20.5t-63.5 7.5q-61 0 -114 -28v-445zM380 399q0 -20 14 -33.5t33 -13.5t33 13.5t14 33.5q0 19 -13 35.5t-35 29.5q-14 -8 -30 -26t-16 -39zM167 462q-53 -32 -84.5 -87.5t-31.5 -126.5q0 -69 31 -126.5t85 -89.5
v430zM400 399q0 12 8 23t18 19q28 -19 28 -42q0 -12 -8 -19.5t-19 -7.5t-19 7.5t-8 19.5zM147 71q-36 32 -56 77.5t-20 99.5q0 56 20 100t56 75v-352z" />
    <glyph glyph-name="d" unicode="d" horiz-adv-x="659" 
d="M242 -12q-48 0 -85.5 21.5t-63 58t-39 84.5t-13.5 101q0 62 17 110t45.5 80.5t65.5 49.5t78 17q38 0 70.5 -14t55.5 -37q14 -14 23.5 -31t15.5 -37v345h-90v12h223v-742q42 5 69 39t27 82h12q0 -28 -9 -52.5t-25 -42.5t-38.5 -28.5t-48.5 -10.5q-25 0 -46.5 9.5t-37 27
t-25.5 41t-11 50.5q-16 -59 -58 -94q-23 -18 -50.5 -28.5t-61.5 -10.5zM424 130q0 -54 30.5 -89.5t78.5 -35.5v731h-109v-606zM444 716h69v-689q-31 8 -50 36t-19 67v586zM186 9q25 -9 56 -9q39 0 70 15t53.5 40.5t34.5 60.5t12 76v146q-2 33 -15 62.5t-34.5 51t-51.5 34
t-64 12.5q-31 0 -61 -11v-478zM174 482q-53 -23 -87 -81t-34 -149q0 -41 8 -78t23 -68.5t37.5 -55.5t52.5 -37v469zM154 47q-40 30 -60.5 85t-20.5 120q0 72 22 121t59 75v-401z" />
    <glyph glyph-name="e" unicode="e" horiz-adv-x="544" 
d="M180 25q48 -25 107 -25q56 0 94.5 21t61.5 47q27 30 43 69l12 -4q-17 -41 -46 -73q-25 -27 -65 -49.5t-100 -22.5q-54 0 -99.5 21t-78.5 56.5t-51.5 82.5t-18.5 100q0 55 19 102.5t52 83t77.5 56t95.5 20.5q48 0 88.5 -18.5t70.5 -51t48 -76.5t21 -94h-331v-245zM360 282
v202q-37 14 -77 14q-56 0 -103 -26v-190h180zM498 282q-6 67 -39 119t-87 77v-196h126zM168 466q-53 -32 -85 -89.5t-32 -128.5q0 -69 31.5 -126.5t85.5 -89.5v434zM392 444q32 -23 54 -60t30 -82h-84v142zM148 70q-37 32 -57 78t-20 100t21 100.5t56 78.5v-357z" />
    <glyph glyph-name="f" unicode="f" horiz-adv-x="382" 
d="M20 12h90v474h-85v12h85v66q0 40 11 76t33.5 62.5t56.5 42t79 15.5q27 0 54.5 -6t50 -17.5t37 -29.5t14.5 -42q0 -29 -18 -44.5t-41 -15.5t-41 17t-18 42q0 12 5 23t12 20t14.5 15.5t13.5 10.5q-20 8 -41.5 11.5t-41.5 3.5q-26 0 -47 -6v-244h134v-12h-134v-474h90v-12
h-313v12zM231 12v727q-55 -18 -82 -65.5t-27 -109.5v-552h109zM387 617q18 0 32.5 12.5t14.5 35.5q0 21 -13.5 36.5t-34.5 26.5q-3 -2 -10.5 -7.5t-15.5 -13.5t-14 -19t-6 -24q0 -20 14 -33.5t33 -13.5zM142 564q0 49 16 87t53 58v-677h-69v532zM387 637q-11 0 -19 7.5
t-8 19.5q0 13 10 23t18 17q26 -16 26 -39q0 -14 -8 -21t-19 -7z" />
    <glyph glyph-name="g" unicode="g" horiz-adv-x="541" 
d="M80 10q-28 33 -28 82t26.5 79.5t61.5 43.5q-37 23 -55.5 57t-18.5 74q0 34 13.5 64t40.5 52t66 35t90 13q33 0 61 -5.5t51 -15.5q44 5 82 20q-6 4 -13.5 11t-15 16t-12.5 20.5t-5 23.5q0 22 16.5 39t42.5 17q25 0 42 -16.5t17 -42.5q0 -21 -12 -37.5t-31 -28.5
t-43.5 -19.5t-49.5 -11.5q40 -23 60.5 -57.5t20.5 -76.5q0 -33 -13.5 -63t-40.5 -52.5t-66.5 -35.5t-90.5 -13q-72 0 -122 25q-17 -5 -33.5 -14.5t-29 -24t-20 -33.5t-7.5 -43v-8h271q55 0 92.5 -11t60 -29t32 -41.5t9.5 -48.5q0 -38 -19 -69t-53 -53t-80.5 -34.5
t-101.5 -12.5q-52 0 -95 12t-73.5 32t-47.5 46t-17 55q0 48 38 80zM482 515q21 11 34.5 26.5t13.5 35.5t-13.5 33.5t-33.5 13.5t-33.5 -13.5t-13.5 -30.5q0 -12 6 -23t13.5 -19.5t15.5 -14.5t11 -8zM483 539q-8 7 -17.5 17.5t-9.5 23.5q0 10 7.5 17t19.5 7t19.5 -7.5
t7.5 -19.5q0 -11 -8 -20.5t-19 -17.5zM190 206q37 -12 86 -12t87 12v279q-19 6 -40.5 9.5t-46.5 3.5q-49 0 -86 -12v-280zM375 210q49 20 74.5 55.5t25.5 80.5t-25.5 80.5t-74.5 54.5v-271zM178 481q-49 -19 -74.5 -54.5t-25.5 -80.5t25.5 -81t74.5 -55v271zM395 449
q30 -18 45 -44.5t15 -58.5t-15 -58t-45 -45v206zM158 242q-30 18 -45 45t-15 59t15 59t45 44v-207zM65 72q8 -45 42 -71t80 -26h328q-4 19 -15.5 37t-33 31t-54 21t-77.5 8h-270zM335 52q66 0 101.5 -16.5t49.5 -40.5h-299q-33 0 -58.5 14t-36.5 43h243zM88 2
q-34 -30 -34 -72q0 -27 16 -51t45.5 -42t70 -29t89.5 -11q53 0 97.5 11.5t76.5 32.5t50 49.5t18 63.5q0 2 -0.5 4.5t-0.5 4.5h-329q-60 0 -99 39z" />
    <glyph glyph-name="h" unicode="h" horiz-adv-x="690" 
d="M10 12h90v724h-90v12h223v-372q8 31 24 54q25 37 64 58.5t90 21.5q42 0 74.5 -15t54 -42t33 -64t11.5 -80v-304q20 2 37.5 12t30.5 26.5t20.5 38t7.5 45.5h12q0 -28 -9.5 -52.5t-25 -42.5t-37 -28.5t-45.5 -10.5q-29 0 -51.5 10.5t-39 29t-25 43.5t-8.5 54v364
q-17 4 -40 4q-39 0 -72 -15t-56.5 -40.5t-36.5 -60t-13 -73.5v-297h90v-12h-313v12zM221 12v724h-109v-724h109zM132 716h69v-684h-69v684zM463 130q0 -53 29 -88.5t80 -36.5v304q0 67 -28 115.5t-81 65.5v-360zM483 460q35 -20 52 -59.5t17 -91.5v-282q-35 6 -52 34t-17 69
v330z" />
    <glyph glyph-name="i" unicode="i" horiz-adv-x="345" 
d="M178 589q-26 0 -46 20t-20 46t20 46t46 20t46 -20t20 -46t-20 -46t-46 -20zM178 601q22 0 38 16t16 38t-16 38t-38 16t-38 -16t-16 -38t16 -38t38 -16zM178 621q-14 0 -24 10t-10 24t10 24t24 10t24 -10t10 -24t-10 -24t-24 -10zM22 12h90v474h-90v12h223v-486h90v-12
h-313v12zM233 12v474h-109v-474h109zM144 466h69v-434h-69v434z" />
    <glyph glyph-name="j" unicode="j" horiz-adv-x="320" 
d="M167 589q-26 0 -46 20t-20 46t20 46t46 20t46 -20t20 -46t-20 -46t-46 -20zM167 601q22 0 38 16t16 38t-16 38t-38 16t-38 -16t-16 -38t16 -38t38 -16zM167 621q-14 0 -24 10t-10 24t10 24t24 10t24 -10t10 -24t-10 -24t-24 -10zM27 -69q23 0 38.5 -16.5t15.5 -38.5
q0 -14 -5 -25t-11.5 -20t-14 -15.5t-13.5 -10.5q21 -8 44 -8t41.5 5.5t32.5 15.5q-3 6 -12 26t-18.5 49.5t-16.5 66.5t-7 79v447h-90v12h223v-505q0 -43 -8.5 -81t-27 -66t-47.5 -44.5t-70 -16.5q-22 0 -42 6.5t-35.5 18.5t-24.5 28.5t-9 35.5q0 28 17.5 42.5t39.5 14.5z
M113 39q0 -39 6.5 -74.5t15.5 -63.5t17.5 -47.5t12.5 -27.5q30 26 43.5 69.5t13.5 97.5v493h-109v-447zM133 466h69v-473q0 -40 -7 -74t-24 -58q-12 28 -25 74.5t-13 103.5v427zM27 -81q-17 0 -31 -11.5t-14 -33.5q0 -20 12 -36.5t31 -26.5q3 2 10.5 7.5t15 13.5t13 19
t5.5 25q0 17 -12 30t-30 13zM27 -101q10 0 16 -7t6 -16q0 -15 -8 -25t-16 -16q-10 8 -16.5 18t-6.5 21q0 12 7.5 18.5t17.5 6.5z" />
    <glyph glyph-name="k" unicode="k" horiz-adv-x="645" 
d="M10 12h90v724h-90v12h223v-525l274 263h-98v12h192v-12h-77l-143 -137l195 -323q20 17 33 43t13 58h12q0 -28 -9.5 -52.5t-25.5 -42.5t-37 -28.5t-44 -10.5q-35 0 -66.5 15.5t-54.5 57.5l-110 194l-54 -52v-196h90v-12h-313v12zM221 12v724h-109v-724h109zM132 716h69
v-684h-69v684zM407 73q21 -38 50 -53t61 -15q26 0 49 14l-195 322l-76 -73zM368 310l170 -282q-9 -3 -20 -3q-27 0 -51.5 13t-42.5 45l-103 181z" />
    <glyph glyph-name="l" unicode="l" horiz-adv-x="333" 
d="M10 12h90v724h-90v12h223v-736h90v-12h-313v12zM221 12v724h-109v-724h109zM132 716h69v-684h-69v684z" />
    <glyph glyph-name="m" unicode="m" horiz-adv-x="1043" 
d="M22 12h90v474h-90v12h223v-122q8 31 24 54q25 37 63 58.5t89 21.5q69 0 111 -41t54 -107q10 40 29 68q25 37 63 58.5t89 21.5q41 0 72.5 -15t53.5 -42t33 -64t11 -80v-303q42 5 69 39t27 82h12q0 -28 -9 -52.5t-25 -42.5t-38 -28.5t-48 -10.5t-48.5 10.5t-38.5 29
t-25 43.5t-9 54v364q-16 4 -37 4q-38 0 -70 -14t-55 -38.5t-36.5 -57.5t-14.5 -71v-305h90v-12h-223v494q-16 4 -37 4q-39 0 -71 -15t-55.5 -40.5t-36.5 -60t-13 -73.5v-297h90v-12h-313v12zM233 12v474h-109v-474h109zM579 12v297q0 68 -28 116.5t-81 65.5v-479h109z
M816 130q0 -27 8 -49.5t22.5 -39.5t34.5 -26.5t44 -9.5v304q0 68 -28 116.5t-81 65.5v-361zM144 466h69v-434h-69v434zM490 461q35 -20 52 -59.5t17 -92.5v-277h-69v429zM836 461q35 -20 52 -59.5t17 -92.5v-282q-30 8 -49.5 36.5t-19.5 66.5v331z" />
    <glyph glyph-name="n" unicode="n" horiz-adv-x="702" 
d="M22 12h90v474h-90v12h223v-122q8 31 24 54q25 37 64 58.5t90 21.5q42 0 74.5 -15t54 -42t33 -64t11.5 -80v-304q20 2 37.5 12t30.5 26.5t20.5 38t7.5 45.5h12q0 -28 -9.5 -52.5t-25 -42.5t-37 -28.5t-45.5 -10.5q-29 0 -51.5 10.5t-39 29t-25 43.5t-8.5 54v364
q-17 4 -40 4q-39 0 -72 -15t-56.5 -40.5t-36.5 -60t-13 -73.5v-297h90v-12h-313v12zM475 130q0 -53 29 -88.5t80 -36.5v304q0 67 -28 115.5t-81 65.5v-360zM233 12v474h-109v-474h109zM144 466h69v-434h-69v434zM495 460q35 -20 52 -59.5t17 -91.5v-282q-35 6 -52 34t-17 69
v330z" />
    <glyph glyph-name="o" unicode="o" horiz-adv-x="608" 
d="M38 248q0 53 21 100.5t57 83.5t84.5 57t103.5 21t103.5 -21t84.5 -57t57 -83.5t21 -100.5t-21 -100t-57 -82.5t-84.5 -56.5t-103.5 -21t-103.5 21t-84.5 56.5t-57 82.5t-21 100zM178 33q28 -16 59.5 -24.5t66.5 -8.5q68 0 127 34v430q-29 16 -60.5 25t-66.5 9
q-69 0 -126 -34v-431zM443 41q52 34 83.5 88.5t31.5 118.5q0 65 -31.5 120t-83.5 89v-416zM166 457q-53 -34 -84.5 -89t-31.5 -120t31.5 -119.5t84.5 -88.5v417zM463 416q35 -32 55 -75t20 -93q0 -49 -20 -91.5t-55 -74.5v334zM146 81q-35 32 -55.5 74.5t-20.5 92.5
q0 103 76 168v-335z" />
    <glyph glyph-name="p" unicode="p" horiz-adv-x="646" 
d="M101 -191v677h-90v12h223v-120q14 60 60 96t111 36q48 0 85 -20.5t62.5 -55t39 -81.5t13.5 -99q0 -62 -17 -111.5t-45 -84t-65 -52.5t-76 -18q-61 0 -106.5 32.5t-61.5 86.5v-298h90v-12h-313v12h90zM234 168q0 -35 12.5 -66t35 -53.5t53 -35.5t67.5 -13q31 0 57 10v480
q-27 8 -54 8q-38 0 -69.5 -14.5t-54 -39.5t-35 -58.5t-12.5 -71.5v-146zM222 -191v677h-109v-677h109zM471 16q52 25 87 86t35 152q0 40 -8 76.5t-23.5 67t-38.5 53t-52 34.5v-469zM133 466h69v-637h-69v637zM491 451q39 -29 60.5 -81t21.5 -116q0 -70 -23 -121.5t-59 -80.5
v399z" />
    <glyph glyph-name="q" unicode="q" horiz-adv-x="627" 
d="M244 -12q-48 0 -85.5 20.5t-63.5 56t-39.5 82.5t-13.5 101q0 58 15.5 106t43.5 82.5t68 54t88 19.5q38 0 66.5 -9.5t51.5 -21.5t43 -21.5t41 -9.5q20 0 39.5 12t31.5 38h11v-689h90v-12h-313v12h90v310q-14 -60 -56.5 -95.5t-107.5 -35.5zM187 9q12 -5 26.5 -6.5
t30.5 -2.5q38 0 68 14t51 39t32.5 59t12.5 73v264l-26 14q-23 13 -54.5 24t-69.5 11q-37 0 -71 -13v-476zM175 480q-57 -27 -89 -88t-32 -144q0 -41 8 -77.5t23.5 -67t38 -53.5t51.5 -36v466zM529 -191v666q-11 -17 -29.5 -28t-41.5 -11q-17 0 -38 8v-635h109zM155 48
q-40 29 -60.5 82t-20.5 118q0 66 20.5 117t60.5 80v-397zM440 417q4 -1 9 -1h9q27 0 51 13v-600h-69v588z" />
    <glyph glyph-name="r" unicode="r" horiz-adv-x="473" 
d="M22 12h90v474h-90v12h223v-144q4 17 10 33t15 31q23 39 56 65.5t72 26.5q32 0 50.5 -18t18.5 -44q0 -25 -17 -43t-45 -18q-20 0 -34 10t-22.5 24t-13 28t-5.5 23q-20 -15 -35.5 -37.5t-26.5 -47.5t-17 -52t-6 -51v-272h90v-12h-313v12zM405 399q22 0 36 14.5t14 34.5
q0 21 -15.5 35.5t-41.5 14.5q-16 0 -29.5 -5t-27.5 -13q1 -6 4 -19t10 -27t19 -24.5t31 -10.5zM233 12v474h-109v-474h109zM405 419q-10 0 -17 5t-12 13t-8 16.5t-5 16.5q18 8 35 8t27 -8.5t10 -21.5q0 -12 -8.5 -20.5t-21.5 -8.5zM144 466h69v-434h-69v434z" />
    <glyph glyph-name="s" unicode="s" horiz-adv-x="483" 
d="M51 167h12v-69q3 -3 17 -19t38.5 -33.5t59.5 -31.5t79 -14t82 14.5t62 42.5q-2 3 -8 13.5t-23 21.5l-209 133q-29 18 -49 32.5t-32.5 29t-18.5 30.5t-6 37q0 40 15.5 69.5t41 48.5t59.5 28.5t72 9.5q31 0 56.5 -7t45.5 -16.5t34.5 -20.5t23.5 -19v60h12v-156h-12v78
q-2 3 -13.5 14t-32 23t-49 22t-65.5 10q-44 0 -82 -13t-62 -41q2 -5 9.5 -18.5t23.5 -23.5l215 -138q48 -30 72 -56t24 -68q0 -36 -15 -64.5t-40.5 -48t-59.5 -29.5t-71 -10q-38 0 -69.5 10.5t-56 25t-42 30t-26.5 26.5v-80h-12v167zM376 102q13 -8 20.5 -17.5t12.5 -17.5
q22 31 22 73q0 19 -5 33.5t-16 27.5t-28 25.5t-41 27.5l-215 138q-14 9 -23 20.5t-13 20.5q-23 -32 -23 -79q0 -19 5 -33t16.5 -27t30.5 -27t48 -32zM178 252q-26 17 -43.5 29t-28 23.5t-15 23t-4.5 26.5q0 11 1 20.5t4 18.5q5 -5 11.5 -9.5t11.5 -8.5l215 -138
q22 -14 37 -25t25 -21.5t14.5 -22.5t4.5 -28q0 -18 -5 -36v-1q-4 3 -8 7q-3 3 -6 5t-5 4z" />
    <glyph glyph-name="t" unicode="t" horiz-adv-x="384" 
d="M97 486h-97v12h97v90l133 95v-185h138v-12h-138v-481h1q24 0 45 9.5t36.5 26t24.5 38.5t9 48h12q0 -28 -10 -52.5t-27.5 -42.5t-40.5 -28.5t-49 -10.5q-31 0 -55.5 10.5t-42 29t-27 43.5t-9.5 54v356zM109 130q0 -51 29 -85.5t80 -39.5v653l-109 -77v-451zM129 571l69 49
v-591q-32 10 -50.5 37t-18.5 64v441z" />
    <glyph glyph-name="u" unicode="u" horiz-adv-x="693" 
d="M90 486h-90v12h223v-494q17 -4 42 -4q38 0 69.5 14.5t55 39.5t36.5 59t15 73v300h-90v12h223v-493q20 2 37.5 12t30.5 26.5t20.5 38t7.5 45.5h12q0 -28 -9.5 -52.5t-25 -42.5t-37 -28.5t-45.5 -10.5q-56 0 -89 37t-35 93q-17 -61 -63.5 -98t-112.5 -37q-44 0 -77 16
t-54.5 43.5t-32.5 64.5t-11 80v294zM453 130q0 -53 29 -88.5t80 -36.5v481h-109v-356zM211 486h-109v-294q0 -67 27 -117t82 -67v478zM473 466h69v-439q-35 6 -52 34t-17 69v336zM191 38q-34 21 -51.5 62t-17.5 92v274h69v-428z" />
    <glyph glyph-name="v" unicode="v" horiz-adv-x="543" 
d="M41 486h-56v12h289v-12h-87l154 -331l135 331h-100v12h182v-12h-68l-202 -492h-10zM335 140l-161 346h-120l228 -474zM86 466h75q39 -86 76 -163.5t76 -162.5l-33 -78z" />
    <glyph glyph-name="w" unicode="w" horiz-adv-x="902" 
d="M41 486h-56v12h289v-12h-88l154 -332l101 246l-41 86h-66v12h289v-12h-78l154 -332l136 332h-100v12h182v-12h-68l-202 -492h-10l-188 391l-161 -391h-10zM641 12l52 127l-160 347h-120zM334 139l-160 347h-120l228 -474zM445 466h75q39 -86 75.5 -164t75.5 -163l-32 -77
zM86 466h75q39 -86 75.5 -164t75.5 -163l-32 -77z" />
    <glyph glyph-name="x" unicode="x" horiz-adv-x="580" 
d="M6 12h76l153 203l-170 271h-59v12h294v-12h-84l116 -184l138 184h-96v12h192v-12h-80l-147 -196l176 -278h65v-12h-290v12h73l-120 191l-145 -191h95v-12h-187v12zM501 12l-298 474h-125l299 -474h124zM114 466h77l274 -434h-76z" />
    <glyph glyph-name="y" unicode="y" horiz-adv-x="548" 
d="M66 -67q26 0 43 -17t17 -40q0 -14 -5.5 -25.5t-14 -20.5t-17.5 -15l-15 -10q18 -8 40 -8q47 0 82 40t64 112l24 58l-246 479h-53v12h289v-12h-90l165 -322l132 322h-100v12h182v-12h-69l-222 -540q-31 -75 -68.5 -118t-89.5 -43q-21 0 -40 6.5t-34 18.5t-24 28.5t-9 35.5
q0 29 18 44t41 15zM343 150l-172 336h-120l239 -465zM83 466h75l163 -317l-33 -79zM66 -79q-19 0 -33 -12t-14 -35q0 -21 12.5 -37.5t29.5 -25.5q3 2 12 7t18 13.5t16 19.5t7 25q0 19 -13.5 32t-34.5 13zM66 -99q12 0 20 -7t8 -18q0 -14 -11.5 -25t-21.5 -17
q-9 7 -15.5 17.5t-6.5 22.5q0 14 8 20.5t19 6.5z" />
    <glyph glyph-name="z" unicode="z" horiz-adv-x="536" 
d="M21 10l319 476h-269v-123h-12v135h437v-10l-320 -476h302v136h12v-148h-469v10zM162 12l318 474h-126l-318 -474h126zM365 466h77l-291 -434h-77z" />
    <glyph glyph-name="braceleft" unicode="{" horiz-adv-x="257" 
d="M110 190q0 101 -90 115v10q45 7 67.5 36t22.5 79v166q0 36 9 67t28 53.5t47 35.5t67 13v-12q-36 0 -62 -12t-43 -33t-25.5 -49.5t-8.5 -62.5v-166q0 -94 -76 -120q38 -12 57 -42.5t19 -77.5v-181q0 -34 8.5 -62.5t25.5 -49.5t43 -33t62 -12v-12q-39 0 -67 13t-47 35.5
t-28 53.5t-9 67v181z" />
    <glyph glyph-name="bar" unicode="|" horiz-adv-x="210" 
d="M99 745h12v-799h-12v799z" />
    <glyph glyph-name="braceright" unicode="}" horiz-adv-x="257" 
d="M135 190q0 47 19 77.5t57 42.5q-76 26 -76 120v166q0 34 -8.5 62.5t-25.5 49.5t-43 33t-62 12v12q39 0 67 -13t47 -35.5t28 -53.5t9 -67v-166q0 -50 22.5 -79t67.5 -36v-10q-90 -14 -90 -115v-181q0 -36 -9 -67t-28 -53.5t-47 -35.5t-67 -13v12q36 0 62 12t43 33
t25.5 49.5t8.5 62.5v181z" />
    <glyph glyph-name="asciitilde" unicode="~" horiz-adv-x="650" 
d="M66 256q0 30 9.5 56t27.5 46t43 31.5t56 11.5q45 0 75 -22t56 -49q12 -13 25 -25t27.5 -21.5t31.5 -15.5t39 -6q28 0 51 10.5t39 28.5t25 42.5t9 51.5h12q0 -30 -9.5 -56t-27.5 -46t-43 -31.5t-56 -11.5q-23 0 -41.5 6t-34.5 16.5t-29.5 23t-26.5 26.5q-25 26 -52.5 46.5
t-69.5 20.5q-28 0 -51 -10.5t-39 -28.5t-25 -42.5t-9 -51.5h-12v0z" />
    <glyph glyph-name="uni00A0" unicode="&#xa0;" horiz-adv-x="260" 
 />
    <glyph glyph-name="exclamdown" unicode="&#xa1;" horiz-adv-x="307" 
d="M160 357q15 -97 26 -167t18.5 -119.5t12 -81t7 -51.5t3.5 -31.5t1 -21.5q0 -46 -15.5 -73t-59.5 -27t-59.5 26.5t-15.5 70.5q0 10 1 21.5t3.5 31.5t7.5 52t13 81.5t19.5 120t27.5 168.5h10zM155 324q-15 -90 -25.5 -155.5t-17.5 -112t-11.5 -76t-7 -48.5t-3 -30t-0.5 -20
q0 -38 13.5 -61.5t49.5 -23.5t49.5 24t13.5 64q0 13 -1.5 33t-7.5 65t-18.5 125.5t-33.5 215.5zM155 198q14 -92 22.5 -148t12.5 -89t5 -49t1 -27q0 -31 -9 -49.5t-34 -18.5t-34 18t-9 47q0 11 1.5 26.5t6 48.5t13.5 90t24 151zM226 489q0 -29 -21 -50t-50 -21t-50 21
t-21 50t21 50t50 21t50 -21t21 -50zM214 489q0 25 -17 42t-42 17t-42 -17t-17 -42t17 -42t42 -17t42 17t17 42zM194 489q0 -17 -11 -28t-28 -11t-28 11t-11 28t11 28t28 11t28 -11t11 -28z" />
    <glyph glyph-name="cent" unicode="&#xa2;" horiz-adv-x="531" 
d="M211 69q-40 12 -73 36t-56 57t-36 74t-13 86q0 56 20 104t54.5 83.5t80.5 55.5t99 20q11 0 23.5 -1t24.5 -3l40 165l12 -2l-40 -166q26 -5 50 -15t42.5 -23.5t29.5 -30t11 -35.5q0 -26 -18 -42.5t-41 -16.5t-41 17t-18 42q0 26 16.5 43t30.5 28q-28 14 -65 22l-118 -489
q25 -6 54 -6q57 0 94.5 21t60.5 47q26 30 42 69l12 -4q-16 -41 -44 -73q-24 -27 -64.5 -49.5t-100.5 -22.5q-30 0 -57 6l-32 -132l-12 2zM173 97q10 -5 20 -9t21 -7l118 488q-20 4 -45 4q-61 0 -114 -28v-448zM421 427q19 0 33 13.5t14 33.5q0 19 -13.5 35.5t-34.5 29.5
q-15 -10 -30.5 -28t-15.5 -37q0 -20 14 -33.5t33 -13.5zM161 537q-53 -32 -84.5 -88t-31.5 -127q0 -70 31 -128t85 -90v433zM421 447q-11 0 -19 7.5t-8 19.5q0 10 8.5 21.5t18.5 19.5q27 -19 27 -41q0 -12 -8 -19.5t-19 -7.5zM141 143q-36 32 -56 78.5t-20 100.5
q0 56 20 100.5t56 75.5v-355z" />
    <glyph glyph-name="sterling" unicode="&#xa3;" horiz-adv-x="638" 
d="M35 47q0 26 20.5 47.5t67.5 21.5q23 0 45 -5t44 -13q-9 20 -17.5 48t-16.5 61t-15 69t-13 72h-105v12h103q-9 56 -14.5 104.5t-5.5 78.5q0 60 20 101.5t51.5 67t71 37t78.5 11.5q43 0 81.5 -12.5t68 -33t46.5 -45.5t17 -50q0 -15 -6 -26t-14.5 -18.5t-19 -11t-19.5 -3.5
q-23 0 -40.5 17t-17.5 40q0 13 6 25.5t15 23t18.5 18.5t17.5 14q-28 22 -68 36t-85 14q-28 0 -56.5 -6t-54.5 -20q12 -64 21 -116.5t15.5 -97t10.5 -81t6 -67.5h171v-12h-171q1 -8 1 -15v-14q0 -78 -16 -134t-41 -96q17 -8 34 -17l34 -18q37 -21 75.5 -37.5t76.5 -16.5
q37 0 62 16t40.5 41t22.5 56.5t7 61.5q0 12 -1 24t-3 23l12 2q4 -20 4 -49q0 -33 -7.5 -66t-24.5 -60t-44.5 -44t-67.5 -17q-41 0 -80 17t-79 39q-17 9 -34 17.5t-34 16.5l-8 -11q-29 -40 -61 -59.5t-57 -19.5q-24 0 -45.5 15t-21.5 44zM225 97q23 38 39 92.5t16 129.5
q0 32 -3.5 70.5t-10 86.5t-16.5 107t-23 133q-38 -23 -62.5 -65t-24.5 -108q0 -24 3.5 -60t9.5 -78t14 -86.5t17.5 -86.5t19.5 -77t21 -58zM503 572q15 0 31 11.5t16 35.5q0 18 -10.5 36t-28.5 35q-6 -5 -15.5 -12t-18 -17t-14.5 -21t-6 -23q0 -18 14 -31.5t32 -13.5z
M228 146q-13 42 -25.5 97.5t-22 112t-15 107t-5.5 80.5q0 49 14 82t39 55q23 -132 35 -217.5t12 -143.5q0 -56 -8.5 -97.5t-23.5 -75.5zM503 592q-11 0 -18.5 7.5t-7.5 17.5q0 13 10.5 25t21.5 21q21 -23 21 -44q0 -14 -9.5 -20.5t-17.5 -6.5zM47 47q0 -23 17.5 -35
t37.5 -12q22 0 51 18.5t57 56.5l6 8q-22 9 -45 15t-48 6q-41 0 -58.5 -18t-17.5 -39z" />
    <glyph glyph-name="currency" unicode="&#xa4;" horiz-adv-x="492" 
d="M57 192l53 53q-23 26 -36.5 58t-13.5 70q0 37 13.5 69.5t37.5 57.5l-54 54l8 8l54 -54q25 23 57 36.5t70 13.5q37 0 69.5 -13.5t57.5 -36.5l54 54l8 -8l-54 -54q23 -25 36.5 -57.5t13.5 -69.5q0 -38 -13.5 -70t-36.5 -57l54 -54l-8 -8l-54 54q-25 -24 -57.5 -37.5
t-69.5 -13.5q-38 0 -70 13.5t-58 36.5l-53 -53zM246 199q36 0 67.5 13.5t55 37t37 55.5t13.5 68t-13.5 67.5t-37 55t-55 37t-67.5 13.5t-68 -13.5t-55.5 -37t-37 -55t-13.5 -67.5t13.5 -68t37 -55.5t55.5 -37t68 -13.5z" />
    <glyph glyph-name="yen" unicode="&#xa5;" horiz-adv-x="804" 
d="M249 12h94v269h-237v12h237v44l-48 75h-189v12h182l-199 312h-61v12h333v-12h-111l224 -356l199 356h-108v12h202v-12h-81l-174 -312h206v-12h-213l-24 -44v-75h237v-12h-237v-269h96v-12h-328v12zM469 12v356l-232 368h-135l253 -397v-327h114zM375 345l-237 371h88
l223 -355v-329h-74v313z" />
    <glyph glyph-name="brokenbar" unicode="&#xa6;" horiz-adv-x="180" 
d="M84 745h12v-299h-12v299zM84 245h12v-299h-12v299z" />
    <glyph glyph-name="section" unicode="&#xa7;" horiz-adv-x="553" 
d="M71 -10q0 26 18 42.5t41 16.5t41 -17t18 -42t-15.5 -42t-29.5 -28q28 -14 62.5 -21.5t67.5 -7.5q62 0 112.5 27.5t70.5 79.5l-314 198q-26 16 -46 31.5t-33 32.5t-19.5 37t-6.5 46q0 48 23.5 83.5t61.5 58.5q-26 24 -37 48.5t-11 53.5q0 42 17 74.5t45.5 54.5t65.5 33
t78 11q35 0 71 -8t65.5 -22.5t48 -35t18.5 -45.5q0 -26 -18 -42.5t-41 -16.5t-41 17t-18 42q0 26 15.5 42.5t29.5 27.5q-28 14 -62.5 21.5t-67.5 7.5q-62 0 -113 -26.5t-71 -77.5l310 -196q25 -16 45 -31.5t33 -32.5t20 -37t7 -46q0 -47 -24 -83t-59 -58q28 -25 39.5 -50
t11.5 -55q0 -42 -17 -75t-45.5 -55.5t-65.5 -34t-78 -11.5q-35 0 -71 8t-65.5 22.5t-48 35t-18.5 45.5zM425 602q19 0 33 13.5t14 33.5q0 19 -13.5 35t-35.5 29q-17 -11 -31 -27.5t-14 -36.5t14 -33.5t33 -13.5zM425 622q-11 0 -19 7.5t-8 19.5q0 11 7.5 21.5t18.5 18.5
q28 -20 28 -40q0 -12 -8 -19.5t-19 -7.5zM492 254q8 22 8 47q0 24 -6 42.5t-18.5 34t-31 30t-43.5 30.5l-308 195q-6 -21 -6 -46q0 -20 5.5 -37t17.5 -33t30.5 -31.5t44.5 -32.5zM196 470q-47 31 -68 57t-21 60q0 5 -0.5 6.5t0.5 6.5l283 -179q42 -27 66 -54t24 -66v-7.5
t-1 -7.5q-38 24 -73 47t-69 45t-69 45t-72 47zM381 196q11 -8 21 -14.5t18 -13.5q22 13 39.5 32t28.5 42l-309 201q-14 8 -25 17t-21 17q-50 -28 -71 -76zM461 9q3 11 5 22t2 24q0 41 -21.5 70t-71.5 61l-318 204q-7 -20 -7 -47q0 -47 24 -76t75 -61zM160 223
q-45 29 -67.5 54.5t-22.5 65.5v15l294 -189q42 -29 63 -54.5t21 -59.5q0 -9 -1 -14zM83 -10q0 -19 13 -35t36 -29q14 8 29.5 25.5t15.5 38.5q0 20 -14 33.5t-33 13.5t-33 -13.5t-14 -33.5zM103 -10q0 12 8 19.5t19 7.5t19 -7.5t8 -19.5q0 -13 -7.5 -23.5t-17.5 -17.5
q-13 9 -21 19.5t-8 21.5z" />
    <glyph glyph-name="dieresis" unicode="&#xa8;" horiz-adv-x="300" 
d="M248 797q-20 0 -35.5 15.5t-15.5 35.5t15.5 35.5t35.5 15.5t35.5 -15.5t15.5 -35.5t-15.5 -35.5t-35.5 -15.5zM53 797q-20 0 -35.5 15.5t-15.5 35.5t15.5 35.5t35.5 15.5t35.5 -15.5t15.5 -35.5t-15.5 -35.5t-35.5 -15.5zM248 809q16 0 27.5 11.5t11.5 27.5t-11.5 27.5
t-27.5 11.5t-27.5 -11.5t-11.5 -27.5t11.5 -27.5t27.5 -11.5zM53 809q16 0 27.5 11.5t11.5 27.5t-11.5 27.5t-27.5 11.5t-27.5 -11.5t-11.5 -27.5t11.5 -27.5t27.5 -11.5zM248 829q-8 0 -13.5 5.5t-5.5 13.5t5.5 13.5t13.5 5.5t13.5 -5.5t5.5 -13.5t-5.5 -13.5t-13.5 -5.5z
M53 829q-8 0 -13.5 5.5t-5.5 13.5t5.5 13.5t13.5 5.5t13.5 -5.5t5.5 -13.5t-5.5 -13.5t-13.5 -5.5z" />
    <glyph glyph-name="copyright" unicode="&#xa9;" horiz-adv-x="866" 
d="M37 369q0 82 31 153t85 124t126 83.5t154 30.5t154 -30.5t126 -83.5t85 -124t31 -153q0 -80 -31 -150t-85 -122t-126 -82t-154 -30t-154 30t-126 82t-85 122t-31 150zM49 369q0 -78 30 -145.5t82.5 -118t122 -79.5t149.5 -29q79 0 149 29t122.5 79.5t82.5 118t30 145.5
q0 79 -30 148.5t-82.5 120.5t-122.5 80.5t-149 29.5q-80 0 -149.5 -29.5t-122 -80.5t-82.5 -120.5t-30 -148.5zM310 188q25 -17 55 -26.5t66 -9.5q45 0 77.5 14t54.5 36t34.5 48t15.5 50l12 -2q-3 -26 -16 -53.5t-36.5 -51t-58.5 -38.5t-83 -15q-51 0 -92 18.5t-69.5 50
t-44 74t-15.5 90.5q0 49 17.5 91t48.5 72.5t71.5 48t87.5 17.5q30 0 56 -7t46.5 -17.5t35 -21.5t23.5 -18v59h12v-114h-12v37q-2 1 -13.5 12.5t-32 24t-49.5 23t-66 10.5q-35 0 -67 -10.5t-58 -29.5v-362zM298 541q-35 -29 -55.5 -72.5t-20.5 -95.5q0 -54 19.5 -99.5
t56.5 -75.5v343zM278 249q-36 53 -36 124q0 67 36 117v-241z" />
    <glyph glyph-name="ordfeminine" unicode="&#xaa;" horiz-adv-x="482" 
d="M167 387q-55 0 -81 27.5t-26 69.5q0 47 29.5 71t74.5 24h27q32 0 54 12.5t24 34.5v116q-20 6 -40 6q-49 0 -87 -19q8 -7 19.5 -20t11.5 -30q0 -20 -13 -31t-30 -11t-30 11.5t-13 31.5q0 16 12.5 30.5t32.5 25.5t45.5 17.5t51.5 6.5q63 0 100.5 -38t37.5 -109v-209
q28 4 45.5 27.5t17.5 55.5h12q0 -40 -24.5 -68t-61.5 -28q-30 0 -52 18t-31 47q-8 -27 -27 -43q-14 -12 -33.5 -19t-45.5 -7zM355 613q0 48 -19.5 80t-54.5 46v-250q0 -37 20.5 -61.5t53.5 -24.5v210zM130 649q12 0 21.5 8t9.5 22q0 7 -4 14.5t-9 13.5t-10 10t-7 6
q-32 -19 -32 -43q0 -14 9 -22.5t22 -8.5zM340 420q-20 6 -32 24.5t-12 44.5v225q20 -15 32 -40.5t12 -60.5v-193zM130 664q-16 0 -16 16q0 13 16 24q6 -5 11 -11.5t5 -13.5t-5 -11t-11 -4zM167 399q50 0 75 26.5t27 64.5v108q-12 -15 -28 -22q-21 -9 -50 -9h-28v-168h4z
M151 566q-35 -3 -57 -24t-22 -58q0 -34 19 -57t60 -28v167zM136 417q-25 8 -37 25.5t-12 41.5q0 26 13 42t36 22v-131zM79 333h281v-12h-281v12z" />
    <glyph glyph-name="guillemotleft" unicode="&#xab;" horiz-adv-x="426" 
d="M167 276l218 262l10 -8l-215 -258l215 -258l-10 -8l-218 262v8zM12 268v8l218 262l10 -8l-215 -258l215 -258l-10 -8z" />
    <glyph glyph-name="logicalnot" unicode="&#xac;" horiz-adv-x="686" 
d="M74 510h555v-270h-12v258h-543v12z" />
    <glyph glyph-name="uni00AD" unicode="&#xad;" horiz-adv-x="420" 
d="M63 327h294v-76h-294v76zM345 263v52h-270v-52h270zM95 295h230v-12h-230v12z" />
    <glyph glyph-name="registered" unicode="&#xae;" horiz-adv-x="484" 
d="M242 361q-42 0 -79 15.5t-65 42.5t-44 63t-16 77q0 42 16 78.5t44 64t65 43t79 15.5t79 -15.5t65 -43t44 -64t16 -78.5q0 -41 -16 -77t-44 -63t-65 -42.5t-79 -15.5zM242 373q40 0 75 14.5t61 39.5t41 59t15 73q0 40 -15 74.5t-41 60t-61 40t-75 14.5t-75 -14.5t-61 -40
t-41 -60t-15 -74.5q0 -39 15 -73t41 -59t61 -39.5t75 -14.5zM138 452h25v214h-25v12h117q35 0 56 -19t21 -47q0 -37 -34 -57q31 -18 31 -54v-52q11 2 17.5 11.5t6.5 22.5h12q0 -20 -12.5 -33.5t-31.5 -13.5q-21 0 -35 14t-14 34v64h-53v-96h19v-12h-100v12zM272 560v104
q-5 1 -8.5 1.5t-8.5 0.5h-36v-106h53zM207 452v214h-32v-214h32zM284 560q17 8 26.5 22t9.5 30q0 17 -9.5 29.5t-26.5 19.5v-101zM185 656h12v-194h-12v194zM294 644q16 -13 16 -32q0 -8 -4.5 -17.5t-11.5 -16.5v66zM317 501q0 34 -33 47v-64q0 -15 9 -25t24 -11v53z
M307 461q-13 7 -13 23v47q13 -12 13 -30v-40z" />
    <glyph glyph-name="macron" unicode="&#xaf;" horiz-adv-x="300" 
d="M45 854h210v-12h-210v12z" />
    <glyph glyph-name="degree" unicode="&#xb0;" horiz-adv-x="318" 
d="M159 516q-25 0 -47.5 9.5t-39 26t-26 39t-9.5 47.5t9.5 47.5t26 39t39 26t47.5 9.5t47.5 -9.5t39 -26t26 -39t9.5 -47.5t-9.5 -47.5t-26 -39t-39 -26t-47.5 -9.5zM159 528q23 0 43 8.5t35 23.5t23.5 35t8.5 43t-8.5 43t-23.5 35t-35 23.5t-43 8.5t-43 -8.5t-35 -23.5
t-23.5 -35t-8.5 -43t8.5 -43t23.5 -35t35 -23.5t43 -8.5z" />
    <glyph glyph-name="plusminus" unicode="&#xb1;" horiz-adv-x="700" 
d="M339 397h-275v12h275v309h12v-309h283v-12h-283v-276h-12v276zM64 12h570v-12h-570v12z" />
    <glyph glyph-name="twosuperior" unicode="&#xb2;" horiz-adv-x="352" 
d="M47 442q0 35 12.5 59.5t32.5 41t44 27.5t48 20l10 3v160q-15 3 -28 3q-23 0 -43 -6t-34 -15q9 -6 19 -15.5t10 -22.5q0 -12 -9.5 -22t-23.5 -10q-13 0 -23.5 9t-10.5 24q0 12 9 24.5t24.5 22.5t36.5 16.5t45 6.5q21 0 43.5 -5.5t40.5 -17.5t29.5 -30t11.5 -42
q0 -21 -8.5 -36t-23 -25.5t-33.5 -18.5t-39 -15q-27 -10 -54 -23t-46 -33h209q0 8 -1 16.5t-3 17.5l12 2q4 -16 4 -37q0 -15 -4 -29t-13 -25.5t-24.5 -18t-39.5 -6.5h-180zM206 598q30 12 51.5 28.5t21.5 46.5q0 32 -22 51t-51 27v-153zM221 730q20 -8 31.5 -22t11.5 -35
q0 -18 -11.5 -30t-31.5 -22v109zM85 677q9 0 15 6t6 14q0 11 -9.5 18.5t-17.5 11.5q-16 -14 -16 -29q0 -9 7 -15t15 -6zM85 692q-7 0 -7 6q0 2 1.5 5.5t2.5 5.5q9 -6 9 -12q0 -5 -6 -5zM227 454q35 0 50.5 16.5t17.5 39.5h-218q-8 -11 -12.5 -25t-5.5 -31h168zM76 469
q3 13 9 26h191q-5 -11 -16.5 -18.5t-32.5 -7.5h-151z" />
    <glyph glyph-name="threesuperior" unicode="&#xb3;" horiz-adv-x="333" 
d="M160 437q-24 0 -45.5 6.5t-37 17t-25 23.5t-9.5 26q0 15 10 24t24 9q16 0 24.5 -10.5t8.5 -21.5q0 -14 -10 -24t-18 -16q14 -10 34.5 -16t43.5 -6q14 0 29 3v151h-42v12h42v139q-7 1 -13.5 1.5t-12.5 0.5q-23 0 -42 -6t-33 -15q9 -6 19 -16t10 -23q0 -11 -9 -21t-25 -10
q-14 0 -23.5 9t-9.5 23q0 13 9 26t24.5 23t36 16t43.5 6q19 0 40.5 -5t39.5 -16t29.5 -27.5t11.5 -38.5q0 -27 -19 -44t-49 -28q30 -9 51 -27.5t21 -47.5q0 -25 -12 -43t-31 -30t-41.5 -18t-43.5 -6zM201 616q30 8 50.5 24.5t20.5 40.5q0 29 -22 46t-49 24v-135zM216 729
q17 -8 29 -19.5t12 -28.5q0 -15 -11 -26t-30 -19v93zM83 677q10 0 16 6t6 13q0 10 -10 18.5t-17 13.5q-16 -16 -16 -31q0 -9 6 -14.5t15 -5.5zM83 692q-6 0 -6 5q0 4 4 11q9 -7 9 -12q0 -4 -7 -4zM201 454q29 8 52 28t23 52q0 27 -22 43t-53 24v-147zM216 581q19 -8 32 -20
t13 -27q0 -21 -13 -36t-32 -23v106zM72 479q7 5 16.5 13.5t9.5 18.5q0 7 -5.5 13.5t-15.5 6.5q-9 0 -15.5 -6t-6.5 -15q0 -16 17 -31zM74 499q-4 8 -4 11q0 6 7 6q6 0 6 -5t-9 -12z" />
    <glyph glyph-name="acute" unicode="&#xb4;" horiz-adv-x="300" 
d="M111 803l152 101l7 -10l-152 -101z" />
    <glyph glyph-name="mu" unicode="&#xb5;" horiz-adv-x="758" 
d="M124 -191v677h-90v12h223v-493q5 -2 16 -3.5t26 -1.5q38 0 70.5 15.5t56 41.5t36.5 61t13 74v294h-90v12h223v-493q22 1 41.5 10.5t33.5 26t22.5 38.5t8.5 47h12q0 -28 -9.5 -52.5t-26 -42.5t-39 -28.5t-47.5 -10.5q-29 0 -52.5 10t-40 27.5t-26 41.5t-10.5 52
q-17 -60 -63.5 -98t-112.5 -38q-14 0 -25 1.5t-17 3.5v-184h87v-12h-307v12h87zM487 130q0 -52 29 -87t80 -38v481h-109v-356zM245 -191v677h-109v-677h109zM507 466h69v-438q-31 9 -50 37t-19 65v336zM156 466h69v-637h-69v637z" />
    <glyph glyph-name="paragraph" unicode="&#xb6;" horiz-adv-x="598" 
d="M140 -17q0 30 19 46t44 16q26 0 44 -18t18 -41t-16 -43t-34 -33q20 -8 41 -12t41 -4q77 0 120 56t43 153v633h-114v-733h-12v312h-80q-45 0 -85 17t-70 46.5t-47.5 68.5t-17.5 84t17.5 84.5t47.5 69t70 46.5t85 17h313v-12h-95v-633q0 -103 -46 -162t-129 -59
q-26 0 -53.5 6t-50.5 19t-38 31.5t-15 44.5zM334 327v409h-80q-43 0 -81 -16t-66 -44t-44.5 -65t-16.5 -80q0 -42 16.5 -79.5t44.5 -65t66 -43.5t81 -16h80zM254 347q-39 0 -73.5 14.5t-60 39.5t-40 58.5t-14.5 71.5q0 39 14.5 72.5t40 58.5t60 39.5t73.5 14.5h60v-369h-60z
M152 -17q0 -23 14 -39.5t36 -27.5q19 11 35 30t16 40q0 19 -14 33t-36 14q-20 0 -35.5 -13t-15.5 -37zM172 -17q0 14 9.5 22t21.5 8q13 0 21.5 -8t8.5 -19q0 -13 -10 -25.5t-22 -21.5q-13 8 -21 19.5t-8 24.5z" />
    <glyph glyph-name="periodcentered" unicode="&#xb7;" horiz-adv-x="260" 
d="M59 382q0 29 21 50t50 21t50 -21t21 -50t-21 -50t-50 -21t-50 21t-21 50zM71 382q0 -25 17 -42t42 -17t42 17t17 42t-17 42t-42 17t-42 -17t-17 -42zM91 382q0 17 11 28t28 11t28 -11t11 -28t-11 -28t-28 -11t-28 11t-11 28z" />
    <glyph glyph-name="cedilla" unicode="&#xb8;" horiz-adv-x="300" 
d="M156 -11l-25 -69q32 -3 54.5 -17t22.5 -46q0 -35 -25 -52.5t-59 -17.5q-26 0 -47 9l4 12q21 -9 43 -9q29 0 50.5 15t21.5 43q0 29 -24 40t-59 11l31 85z" />
    <glyph glyph-name="onesuperior" unicode="&#xb9;" horiz-adv-x="295" 
d="M52 454h57v252q-24 -6 -55 -6v12q36 0 60.5 8t40.5 19q18 11 29 27h11v-312h57v-12h-200v12zM183 454v293q-8 -8 -23.5 -18.5t-38.5 -18.5v-256h62zM136 700q20 8 32 15v-246h-32v231z" />
    <glyph glyph-name="ordmasculine" unicode="&#xba;" horiz-adv-x="473" 
d="M237 388q-39 0 -73.5 15t-60 40t-40.5 58.5t-15 71.5t15 72t40.5 59.5t60 40.5t73.5 15t73 -15t59.5 -40.5t40.5 -59.5t15 -72t-15 -71.5t-40.5 -58.5t-59.5 -40t-73 -15zM150 422q39 -22 87 -22q47 0 87 23v302q-20 11 -42 17t-45 6q-49 0 -87 -23v-303zM138 718
q-35 -24 -56.5 -62t-21.5 -83t21.5 -82.5t56.5 -60.5v288zM336 430q35 24 56 61t21 82t-21 83t-56 61v-287zM123 461q-24 22 -36 50.5t-12 61.5t13 63t35 52v-227zM351 686q21 -21 34 -51t13 -62t-13.5 -60.5t-33.5 -50.5v224zM96 333h281v-12h-281v12z" />
    <glyph glyph-name="guillemotright" unicode="&#xbb;" horiz-adv-x="426" 
d="M400 272l-214 258l10 8l218 -262v-8l-218 -262l-10 8zM245 272l-214 258l10 8l218 -262v-8l-218 -262l-10 8z" />
    <glyph glyph-name="onequarter" unicode="&#xbc;" horiz-adv-x="386" 
d="M138 12h38v83h-149v11l161 214h74v-213h50v-12h-50v-83h37v-12h-161v12zM92 454h57v252q-24 -6 -55 -6v12q36 0 60.5 8t40.5 19q18 11 29 27h11v-312h57v-12h-200v12zM250 12v296h-56l-6 -8v-288h62zM223 454v293q-8 -8 -23.5 -18.5t-38.5 -18.5v-256h62zM176 107v177
l-133 -177h133zM203 293h32v-266h-32v266zM176 700q20 8 32 15v-246h-32v231zM203 294v-1h-2z" />
    <glyph glyph-name="onehalf" unicode="&#xbd;" horiz-adv-x="387" 
d="M92 454h57v252q-24 -6 -55 -6v12q36 0 60.5 8t40.5 19q18 11 29 27h11v-312h57v-12h-200v12zM223 454v293q-8 -8 -23.5 -18.5t-38.5 -18.5v-256h62zM176 700q20 8 32 15v-246h-32v231zM59 0q0 35 12.5 59.5t32.5 41t44 27.5t48 20l10 3v160q-15 3 -28 3q-23 0 -43 -6
t-34 -15q9 -6 19 -15.5t10 -22.5q0 -12 -9.5 -22t-23.5 -10q-13 0 -23.5 9t-10.5 24q0 12 9 24.5t24.5 22.5t36.5 16.5t45 6.5q21 0 43.5 -5.5t40.5 -17.5t29.5 -30t11.5 -42q0 -21 -8.5 -36t-23 -25.5t-33.5 -18.5t-39 -15q-27 -10 -54 -23t-46 -33h209q0 8 -1 16.5
t-3 17.5l12 2q4 -16 4 -37q0 -15 -4 -29t-13 -25.5t-24.5 -18t-39.5 -6.5h-180zM218 156q30 12 51.5 28.5t21.5 46.5q0 32 -22 51t-51 27v-153zM233 288q20 -8 31.5 -22t11.5 -35q0 -18 -11.5 -30t-31.5 -22v109zM97 235q9 0 15 6t6 14q0 11 -9.5 18.5t-17.5 11.5
q-16 -14 -16 -29q0 -9 7 -15t15 -6zM97 250q-7 0 -7 6q0 2 1.5 5.5t2.5 5.5q9 -6 9 -12q0 -5 -6 -5zM239 12q35 0 50.5 16.5t17.5 39.5h-218q-8 -11 -12.5 -25t-5.5 -31h168zM88 27q3 13 9 26h191q-5 -11 -16.5 -18.5t-32.5 -7.5h-151z" />
    <glyph glyph-name="threequarters" unicode="&#xbe;" horiz-adv-x="386" 
d="M138 12h38v83h-149v11l161 214h74v-213h50v-12h-50v-83h37v-12h-161v12zM184 437q-24 0 -45.5 6.5t-37 17t-25 23.5t-9.5 26q0 15 10 24t24 9q16 0 24.5 -10.5t8.5 -21.5q0 -14 -10 -24t-18 -16q14 -10 34.5 -16t43.5 -6q14 0 29 3v151h-42v12h42v139q-7 1 -13.5 1.5
t-12.5 0.5q-23 0 -42 -6t-33 -15q9 -6 19 -16t10 -23q0 -11 -9 -21t-25 -10q-14 0 -23.5 9t-9.5 23q0 13 9 26t24.5 23t36 16t43.5 6q19 0 40.5 -5t39.5 -16t29.5 -27.5t11.5 -38.5q0 -27 -19 -44t-49 -28q30 -9 51 -27.5t21 -47.5q0 -25 -12 -43t-31 -30t-41.5 -18
t-43.5 -6zM250 12v296h-56l-6 -8v-288h62zM176 107v177l-133 -177h133zM203 293h32v-266h-32v266zM225 454q29 8 52 28t23 52q0 27 -22 43t-53 24v-147zM225 616q30 8 50.5 24.5t20.5 40.5q0 29 -22 46t-49 24v-135zM240 581q19 -8 32 -20t13 -27q0 -21 -13 -36t-32 -23v106
zM240 729q17 -8 29 -19.5t12 -28.5q0 -15 -11 -26t-30 -19v93zM96 479q7 5 16.5 13.5t9.5 18.5q0 7 -5.5 13.5t-15.5 6.5q-9 0 -15.5 -6t-6.5 -15q0 -16 17 -31zM107 677q10 0 16 6t6 13q0 10 -10 18.5t-17 13.5q-16 -16 -16 -31q0 -9 6 -14.5t15 -5.5zM98 499q-4 8 -4 11
q0 6 7 6q6 0 6 -5t-9 -12zM107 692q-6 0 -6 5q0 4 4 11q9 -7 9 -12q0 -4 -7 -4zM203 294v-1h-2z" />
    <glyph glyph-name="questiondown" unicode="&#xbf;" horiz-adv-x="527" 
d="M297 317q0 -25 -7.5 -45t-19.5 -36t-28.5 -29t-34.5 -25v-374q39 -11 76 -11q51 0 94 16.5t72 41.5q-8 6 -18 15t-18.5 19.5t-14.5 22.5t-6 25q0 23 17.5 40.5t40.5 17.5q9 0 19.5 -3.5t19 -10t14.5 -17.5t6 -26q0 -25 -17.5 -52t-47.5 -49.5t-71.5 -37t-89.5 -14.5
q-44 0 -87 13.5t-76.5 40t-54 65.5t-20.5 90q0 38 12 66t31 49t42.5 37.5t47.5 30.5q20 12 39 25.5t34 30t24.5 37.5t9.5 47v36h12v-36zM195 174q-25 -15 -49.5 -31t-44 -36.5t-32 -47.5t-12.5 -65q0 -35 10.5 -64t29.5 -52t44 -39.5t54 -26.5v362zM175 -158
q-41 21 -69.5 59.5t-28.5 92.5q0 28 8 50t21.5 39t31.5 30.5t37 25.5v-297zM450 -17q-18 0 -32 -13.5t-14 -32.5q0 -11 6 -22.5t14 -21t17.5 -17.5t16.5 -13q39 37 39 75q0 24 -16 34.5t-31 10.5zM450 -37q8 0 17.5 -5.5t9.5 -19.5q0 -22 -21 -48q-11 10 -21.5 23t-10.5 24
t7.5 18.5t18.5 7.5zM358 486q0 -29 -21 -50t-50 -21t-50 21t-21 50t21 50t50 21t50 -21t21 -50zM346 486q0 25 -17 42t-42 17t-42 -17t-17 -42t17 -42t42 -17t42 17t17 42zM326 486q0 -17 -11 -28t-28 -11t-28 11t-11 28t11 28t28 11t28 -11t11 -28z" />
    <glyph glyph-name="Agrave" unicode="&#xc0;" horiz-adv-x="724" 
d="M-24 12h71l305 739h12l321 -739h63v-12h-307v12h95l-87 205h-303l-85 -205h107v-12h-192v12zM671 12l-313 721l-56 -136l248 -585h121zM563 32q-60 144 -120 282.5t-120 282.5l35 85q37 -86 72 -166.5t69.5 -160t69.5 -159t72 -164.5h-78zM444 229l-149 352l-144 -352
h293zM239 904l7 10l152 -101l-7 -10z" />
    <glyph glyph-name="Aacute" unicode="&#xc1;" horiz-adv-x="724" 
d="M-24 12h71l305 739h12l321 -739h63v-12h-307v12h95l-87 205h-303l-85 -205h107v-12h-192v12zM671 12l-313 721l-56 -136l248 -585h121zM563 32q-60 144 -120 282.5t-120 282.5l35 85q37 -86 72 -166.5t69.5 -160t69.5 -159t72 -164.5h-78zM444 229l-149 352l-144 -352
h293zM320 813l152 101l7 -10l-152 -101z" />
    <glyph glyph-name="Acircumflex" unicode="&#xc2;" horiz-adv-x="724" 
d="M-24 12h71l305 739h12l321 -739h63v-12h-307v12h95l-87 205h-303l-85 -205h107v-12h-192v12zM671 12l-313 721l-56 -136l248 -585h121zM563 32q-60 144 -120 282.5t-120 282.5l35 85q37 -86 72 -166.5t69.5 -160t69.5 -159t72 -164.5h-78zM444 229l-149 352l-144 -352
h293zM235 813l124 103l124 -103l-8 -10l-116 97l-116 -97z" />
    <glyph glyph-name="Atilde" unicode="&#xc3;" horiz-adv-x="724" 
d="M-24 12h71l305 739h12l321 -739h63v-12h-307v12h95l-87 205h-303l-85 -205h107v-12h-192v12zM671 12l-313 721l-56 -136l248 -585h121zM563 32q-60 144 -120 282.5t-120 282.5l35 85q37 -86 72 -166.5t69.5 -160t69.5 -159t72 -164.5h-78zM444 229l-149 352l-144 -352
h293zM213 823q0 37 21 63t56 26q26 0 42.5 -13t31.5 -30q14 -15 28 -27.5t37 -12.5q29 0 47 22.5t18 54.5h12q0 -37 -21 -63t-56 -26q-26 0 -42.5 13.5t-31.5 30.5q-14 15 -28 27t-37 12q-29 0 -47 -22.5t-18 -54.5h-12z" />
    <glyph glyph-name="Adieresis" unicode="&#xc4;" horiz-adv-x="724" 
d="M-24 12h71l305 739h12l321 -739h63v-12h-307v12h95l-87 205h-303l-85 -205h107v-12h-192v12zM671 12l-313 721l-56 -136l248 -585h121zM563 32q-60 144 -120 282.5t-120 282.5l35 85q37 -86 72 -166.5t69.5 -160t69.5 -159t72 -164.5h-78zM444 229l-149 352l-144 -352
h293zM457 807q-20 0 -35.5 15.5t-15.5 35.5t15.5 35.5t35.5 15.5t35.5 -15.5t15.5 -35.5t-15.5 -35.5t-35.5 -15.5zM262 807q-20 0 -35.5 15.5t-15.5 35.5t15.5 35.5t35.5 15.5t35.5 -15.5t15.5 -35.5t-15.5 -35.5t-35.5 -15.5zM457 819q16 0 27.5 11.5t11.5 27.5
t-11.5 27.5t-27.5 11.5t-27.5 -11.5t-11.5 -27.5t11.5 -27.5t27.5 -11.5zM262 819q16 0 27.5 11.5t11.5 27.5t-11.5 27.5t-27.5 11.5t-27.5 -11.5t-11.5 -27.5t11.5 -27.5t27.5 -11.5zM457 839q-8 0 -13.5 5.5t-5.5 13.5t5.5 13.5t13.5 5.5t13.5 -5.5t5.5 -13.5t-5.5 -13.5
t-13.5 -5.5zM262 839q-8 0 -13.5 5.5t-5.5 13.5t5.5 13.5t13.5 5.5t13.5 -5.5t5.5 -13.5t-5.5 -13.5t-13.5 -5.5z" />
    <glyph glyph-name="Aring" unicode="&#xc5;" horiz-adv-x="724" 
d="M-24 12h71l303 734q-33 4 -56 29t-23 59q0 18 7 34t19 28t28 19t34 7t34 -7t28 -19t19 -28t7 -34q0 -35 -23.5 -60t-57.5 -28l319 -734h63v-12h-307v12h95l-87 205h-303l-85 -205h107v-12h-192v12zM671 12l-313 721l-56 -136l248 -585h121zM444 229l-149 352l-144 -352
h293zM563 32q-60 144 -120 282.5t-120 282.5l35 85q37 -86 72 -166.5t69.5 -160t69.5 -159t72 -164.5h-78zM359 758q32 0 54 22t22 54t-22 54t-54 22t-54 -22t-22 -54t22 -54t54 -22z" />
    <glyph glyph-name="AE" unicode="&#xc6;" horiz-adv-x="1106" 
d="M479 736h-79v12h628v-185h-12v173h-357v-355h249v109h12v-226h-12v105h-249v-357h367v178h12v-190h-612v12h95v205h-350l-128 -205h106v-12h-192v12h73zM647 12v724h-114v-724h114zM521 229v507h-28l-315 -507h343zM553 716h74v-684h-74v684z" />
    <glyph glyph-name="Ccedilla" unicode="&#xc7;" horiz-adv-x="802" 
d="M217 64q42 -31 95 -47.5t115 -16.5q76 0 132.5 24.5t95 62t59 82.5t26.5 86l12 -2q-6 -42 -27.5 -88.5t-60.5 -85.5t-96.5 -64.5t-135.5 -26.5l-24 -68q32 -3 54.5 -17t22.5 -46q0 -35 -25 -52.5t-59 -17.5q-26 0 -47 9l4 12q21 -9 43 -9q29 0 50.5 15t21.5 43
q0 29 -24 40t-59 11l29 80q-84 1 -151 32.5t-114 84t-72.5 123t-25.5 150.5q0 82 29.5 152t81 121t120 80t146.5 29q55 0 101 -13.5t81 -32t59.5 -37.5t36.5 -31v111h12v-194h-12v65q-3 3 -23 22.5t-56 41t-86 39t-113 17.5q-61 0 -116 -18.5t-100 -51.5v-614zM205 669
q-63 -50 -100 -124.5t-37 -166.5q0 -94 35.5 -173.5t101.5 -131.5v596zM185 118q-46 49 -71.5 116t-25.5 144q0 75 26 138t71 109v-507z" />
    <glyph glyph-name="Egrave" unicode="&#xc8;" horiz-adv-x="726" 
d="M46 12h95v724h-95v12h602v-185h-12v173h-357v-354h249v109h12v-226h-12v105h-249v-358h367v178h12v-190h-612v12zM267 12v724h-114v-724h114zM173 716h74v-684h-74v684zM254 904l7 10l152 -101l-7 -10z" />
    <glyph glyph-name="Eacute" unicode="&#xc9;" horiz-adv-x="726" 
d="M46 12h95v724h-95v12h602v-185h-12v173h-357v-354h249v109h12v-226h-12v105h-249v-358h367v178h12v-190h-612v12zM267 12v724h-114v-724h114zM173 716h74v-684h-74v684zM335 813l152 101l7 -10l-152 -101z" />
    <glyph glyph-name="Ecircumflex" unicode="&#xca;" horiz-adv-x="726" 
d="M46 12h95v724h-95v12h602v-185h-12v173h-357v-354h249v109h12v-226h-12v105h-249v-358h367v178h12v-190h-612v12zM267 12v724h-114v-724h114zM173 716h74v-684h-74v684zM250 813l124 103l124 -103l-8 -10l-116 97l-116 -97z" />
    <glyph glyph-name="Edieresis" unicode="&#xcb;" horiz-adv-x="726" 
d="M46 12h95v724h-95v12h602v-185h-12v173h-357v-354h249v109h12v-226h-12v105h-249v-358h367v178h12v-190h-612v12zM267 12v724h-114v-724h114zM173 716h74v-684h-74v684zM472 807q-20 0 -35.5 15.5t-15.5 35.5t15.5 35.5t35.5 15.5t35.5 -15.5t15.5 -35.5t-15.5 -35.5
t-35.5 -15.5zM277 807q-20 0 -35.5 15.5t-15.5 35.5t15.5 35.5t35.5 15.5t35.5 -15.5t15.5 -35.5t-15.5 -35.5t-35.5 -15.5zM472 819q16 0 27.5 11.5t11.5 27.5t-11.5 27.5t-27.5 11.5t-27.5 -11.5t-11.5 -27.5t11.5 -27.5t27.5 -11.5zM277 819q16 0 27.5 11.5t11.5 27.5
t-11.5 27.5t-27.5 11.5t-27.5 -11.5t-11.5 -27.5t11.5 -27.5t27.5 -11.5zM472 839q-8 0 -13.5 5.5t-5.5 13.5t5.5 13.5t13.5 5.5t13.5 -5.5t5.5 -13.5t-5.5 -13.5t-13.5 -5.5zM277 839q-8 0 -13.5 5.5t-5.5 13.5t5.5 13.5t13.5 5.5t13.5 -5.5t5.5 -13.5t-5.5 -13.5
t-13.5 -5.5z" />
    <glyph glyph-name="Igrave" unicode="&#xcc;" horiz-adv-x="420" 
d="M46 12h95v724h-95v12h328v-12h-95v-724h95v-12h-328v12zM267 12v724h-114v-724h114zM173 716h74v-684h-74v684zM90 904l7 10l152 -101l-7 -10z" />
    <glyph glyph-name="Iacute" unicode="&#xcd;" horiz-adv-x="420" 
d="M46 12h95v724h-95v12h328v-12h-95v-724h95v-12h-328v12zM267 12v724h-114v-724h114zM173 716h74v-684h-74v684zM171 813l152 101l7 -10l-152 -101z" />
    <glyph glyph-name="Icircumflex" unicode="&#xce;" horiz-adv-x="420" 
d="M46 12h95v724h-95v12h328v-12h-95v-724h95v-12h-328v12zM267 12v724h-114v-724h114zM173 716h74v-684h-74v684zM86 813l124 103l124 -103l-8 -10l-116 97l-116 -97z" />
    <glyph glyph-name="Idieresis" unicode="&#xcf;" horiz-adv-x="420" 
d="M46 12h95v724h-95v12h328v-12h-95v-724h95v-12h-328v12zM267 12v724h-114v-724h114zM173 716h74v-684h-74v684zM308 807q-20 0 -35.5 15.5t-15.5 35.5t15.5 35.5t35.5 15.5t35.5 -15.5t15.5 -35.5t-15.5 -35.5t-35.5 -15.5zM113 807q-20 0 -35.5 15.5t-15.5 35.5
t15.5 35.5t35.5 15.5t35.5 -15.5t15.5 -35.5t-15.5 -35.5t-35.5 -15.5zM308 819q16 0 27.5 11.5t11.5 27.5t-11.5 27.5t-27.5 11.5t-27.5 -11.5t-11.5 -27.5t11.5 -27.5t27.5 -11.5zM113 819q16 0 27.5 11.5t11.5 27.5t-11.5 27.5t-27.5 11.5t-27.5 -11.5t-11.5 -27.5
t11.5 -27.5t27.5 -11.5zM308 839q-8 0 -13.5 5.5t-5.5 13.5t5.5 13.5t13.5 5.5t13.5 -5.5t5.5 -13.5t-5.5 -13.5t-13.5 -5.5zM113 839q-8 0 -13.5 5.5t-5.5 13.5t5.5 13.5t13.5 5.5t13.5 -5.5t5.5 -13.5t-5.5 -13.5t-13.5 -5.5z" />
    <glyph glyph-name="Eth" unicode="&#xd0;" horiz-adv-x="851" 
d="M46 12h95v363h-95v12h95v349h-95v12h361q85 0 156.5 -29.5t123 -80t80 -118t28.5 -144.5q0 -78 -28.5 -146.5t-80 -119.5t-123 -80.5t-156.5 -29.5h-361v12zM407 12q66 0 124 18.5t105 52.5v582q-47 34 -105 52.5t-124 18.5h-128v-349h190v-12h-190v-363h128zM267 12v724
h-114v-724h114zM173 716h74v-684h-74v684zM648 92q63 50 99 123.5t36 160.5q0 85 -36 157.5t-99 122.5v-564zM668 612q45 -46 70 -106.5t25 -129.5q0 -144 -95 -239v475z" />
    <glyph glyph-name="Ntilde" unicode="&#xd1;" horiz-adv-x="869" 
d="M46 12h95v724h-95v12h209l467 -538v526h-95v12h202v-12h-95v-736h-12l-569 649v-637h95v-12h-202v12zM722 19v172l-473 545h-96v-67zM173 716h67l462 -532v-112l-529 604v40zM288 823q0 37 21 63t56 26q26 0 42.5 -13t31.5 -30q14 -15 28 -27.5t37 -12.5q29 0 47 22.5
t18 54.5h12q0 -37 -21 -63t-56 -26q-26 0 -42.5 13.5t-31.5 30.5q-14 15 -28 27t-37 12q-29 0 -47 -22.5t-18 -54.5h-12z" />
    <glyph glyph-name="Ograve" unicode="&#xd2;" 
d="M54 370q0 81 31 152.5t85 124t126 83t154 30.5t154 -30.5t126 -83t85 -124t31 -152.5q0 -79 -31 -148.5t-85 -121.5t-126 -82t-154 -30t-154 30t-126 82t-85 121.5t-31 148.5zM216 76q49 -36 108.5 -56t125.5 -20t125.5 20t108.5 56v594q-49 37 -108.5 57.5t-125.5 20.5
t-125.5 -20.5t-108.5 -57.5v-594zM696 86q63 51 100.5 124t37.5 160q0 89 -37.5 164t-100.5 127v-575zM204 661q-64 -52 -101 -127t-37 -164q0 -87 37 -160t101 -124v575zM716 615q45 -48 71.5 -111t26.5 -134q0 -70 -26 -131t-72 -108v484zM184 130q-46 47 -72 109t-26 131
q0 72 25.5 134.5t72.5 110.5v-485zM330 904l7 10l152 -101l-7 -10z" />
    <glyph glyph-name="Oacute" unicode="&#xd3;" 
d="M54 370q0 81 31 152.5t85 124t126 83t154 30.5t154 -30.5t126 -83t85 -124t31 -152.5q0 -79 -31 -148.5t-85 -121.5t-126 -82t-154 -30t-154 30t-126 82t-85 121.5t-31 148.5zM216 76q49 -36 108.5 -56t125.5 -20t125.5 20t108.5 56v594q-49 37 -108.5 57.5t-125.5 20.5
t-125.5 -20.5t-108.5 -57.5v-594zM696 86q63 51 100.5 124t37.5 160q0 89 -37.5 164t-100.5 127v-575zM204 661q-64 -52 -101 -127t-37 -164q0 -87 37 -160t101 -124v575zM716 615q45 -48 71.5 -111t26.5 -134q0 -70 -26 -131t-72 -108v484zM184 130q-46 47 -72 109t-26 131
q0 72 25.5 134.5t72.5 110.5v-485zM411 813l152 101l7 -10l-152 -101z" />
    <glyph glyph-name="Ocircumflex" unicode="&#xd4;" 
d="M54 370q0 81 31 152.5t85 124t126 83t154 30.5t154 -30.5t126 -83t85 -124t31 -152.5q0 -79 -31 -148.5t-85 -121.5t-126 -82t-154 -30t-154 30t-126 82t-85 121.5t-31 148.5zM216 76q49 -36 108.5 -56t125.5 -20t125.5 20t108.5 56v594q-49 37 -108.5 57.5t-125.5 20.5
t-125.5 -20.5t-108.5 -57.5v-594zM696 86q63 51 100.5 124t37.5 160q0 89 -37.5 164t-100.5 127v-575zM204 661q-64 -52 -101 -127t-37 -164q0 -87 37 -160t101 -124v575zM716 615q45 -48 71.5 -111t26.5 -134q0 -70 -26 -131t-72 -108v484zM184 130q-46 47 -72 109t-26 131
q0 72 25.5 134.5t72.5 110.5v-485zM326 813l124 103l124 -103l-8 -10l-116 97l-116 -97z" />
    <glyph glyph-name="Otilde" unicode="&#xd5;" 
d="M54 370q0 81 31 152.5t85 124t126 83t154 30.5t154 -30.5t126 -83t85 -124t31 -152.5q0 -79 -31 -148.5t-85 -121.5t-126 -82t-154 -30t-154 30t-126 82t-85 121.5t-31 148.5zM216 76q49 -36 108.5 -56t125.5 -20t125.5 20t108.5 56v594q-49 37 -108.5 57.5t-125.5 20.5
t-125.5 -20.5t-108.5 -57.5v-594zM696 86q63 51 100.5 124t37.5 160q0 89 -37.5 164t-100.5 127v-575zM204 661q-64 -52 -101 -127t-37 -164q0 -87 37 -160t101 -124v575zM716 615q45 -48 71.5 -111t26.5 -134q0 -70 -26 -131t-72 -108v484zM184 130q-46 47 -72 109t-26 131
q0 72 25.5 134.5t72.5 110.5v-485zM304 823q0 37 21 63t56 26q26 0 42.5 -13t31.5 -30q14 -15 28 -27.5t37 -12.5q29 0 47 22.5t18 54.5h12q0 -37 -21 -63t-56 -26q-26 0 -42.5 13.5t-31.5 30.5q-14 15 -28 27t-37 12q-29 0 -47 -22.5t-18 -54.5h-12z" />
    <glyph glyph-name="Odieresis" unicode="&#xd6;" 
d="M54 370q0 81 31 152.5t85 124t126 83t154 30.5t154 -30.5t126 -83t85 -124t31 -152.5q0 -79 -31 -148.5t-85 -121.5t-126 -82t-154 -30t-154 30t-126 82t-85 121.5t-31 148.5zM216 76q49 -36 108.5 -56t125.5 -20t125.5 20t108.5 56v594q-49 37 -108.5 57.5t-125.5 20.5
t-125.5 -20.5t-108.5 -57.5v-594zM696 86q63 51 100.5 124t37.5 160q0 89 -37.5 164t-100.5 127v-575zM204 661q-64 -52 -101 -127t-37 -164q0 -87 37 -160t101 -124v575zM716 615q45 -48 71.5 -111t26.5 -134q0 -70 -26 -131t-72 -108v484zM184 130q-46 47 -72 109t-26 131
q0 72 25.5 134.5t72.5 110.5v-485zM548 807q-20 0 -35.5 15.5t-15.5 35.5t15.5 35.5t35.5 15.5t35.5 -15.5t15.5 -35.5t-15.5 -35.5t-35.5 -15.5zM353 807q-20 0 -35.5 15.5t-15.5 35.5t15.5 35.5t35.5 15.5t35.5 -15.5t15.5 -35.5t-15.5 -35.5t-35.5 -15.5zM548 819
q16 0 27.5 11.5t11.5 27.5t-11.5 27.5t-27.5 11.5t-27.5 -11.5t-11.5 -27.5t11.5 -27.5t27.5 -11.5zM353 819q16 0 27.5 11.5t11.5 27.5t-11.5 27.5t-27.5 11.5t-27.5 -11.5t-11.5 -27.5t11.5 -27.5t27.5 -11.5zM548 839q-8 0 -13.5 5.5t-5.5 13.5t5.5 13.5t13.5 5.5
t13.5 -5.5t5.5 -13.5t-5.5 -13.5t-13.5 -5.5zM353 839q-8 0 -13.5 5.5t-5.5 13.5t5.5 13.5t13.5 5.5t13.5 -5.5t5.5 -13.5t-5.5 -13.5t-13.5 -5.5z" />
    <glyph glyph-name="multiply" unicode="&#xd7;" horiz-adv-x="700" 
d="M342 340l-244 245l8 8l244 -245l244 245l8 -8l-244 -245l244 -244l-8 -8l-244 244l-244 -244l-8 8z" />
    <glyph glyph-name="Oslash" unicode="&#xd8;" 
d="M231 51q-40 26 -72.5 60.5t-56 75t-36 87t-12.5 96.5q0 81 31 152.5t85 124t126 83t154 30.5q57 0 109 -15t97 -42l68 103l10 -6l-68 -103q40 -26 73.5 -61t57 -77t36.5 -90t13 -99q0 -79 -31 -148.5t-85 -121.5t-126 -82t-154 -30q-117 0 -209 57l-62 -95l-10 6zM238 61
l412 632q-45 26 -95 40.5t-105 14.5q-66 0 -125.5 -20.5t-108.5 -57.5v-594zM248 55q44 -26 95 -40.5t107 -14.5q66 0 125.5 20t108.5 56v594q-6 5 -12 9l-12 8zM696 86q63 51 100.5 124t37.5 160q0 89 -37.5 164t-100.5 127v-575zM204 661q-64 -52 -101 -127t-37 -164
q0 -87 37 -160t101 -124v575zM716 615q45 -48 71.5 -111t26.5 -134q0 -70 -26 -131t-72 -108v484zM184 130q-46 47 -72 109t-26 131q0 72 25.5 134.5t72.5 110.5v-485z" />
    <glyph glyph-name="Ugrave" unicode="&#xd9;" horiz-adv-x="842" 
d="M255 42q37 -22 81 -32t93 -10q58 0 109.5 17t90.5 52.5t61.5 89t22.5 126.5v451h-95v12h202v-12h-95v-451q0 -76 -23.5 -132t-64 -92.5t-94.5 -54.5t-114 -18q-64 0 -120.5 18t-99 54.5t-67.5 92.5t-25 132v451h-95v12h328v-12h-95v-694zM243 736h-114v-451
q0 -85 31 -142.5t83 -92.5v686zM223 92q-36 32 -55 79.5t-19 113.5v431h74v-624zM319 904l7 10l152 -101l-7 -10z" />
    <glyph glyph-name="Uacute" unicode="&#xda;" horiz-adv-x="842" 
d="M255 42q37 -22 81 -32t93 -10q58 0 109.5 17t90.5 52.5t61.5 89t22.5 126.5v451h-95v12h202v-12h-95v-451q0 -76 -23.5 -132t-64 -92.5t-94.5 -54.5t-114 -18q-64 0 -120.5 18t-99 54.5t-67.5 92.5t-25 132v451h-95v12h328v-12h-95v-694zM243 736h-114v-451
q0 -85 31 -142.5t83 -92.5v686zM223 92q-36 32 -55 79.5t-19 113.5v431h74v-624zM400 813l152 101l7 -10l-152 -101z" />
    <glyph glyph-name="Ucircumflex" unicode="&#xdb;" horiz-adv-x="842" 
d="M255 42q37 -22 81 -32t93 -10q58 0 109.5 17t90.5 52.5t61.5 89t22.5 126.5v451h-95v12h202v-12h-95v-451q0 -76 -23.5 -132t-64 -92.5t-94.5 -54.5t-114 -18q-64 0 -120.5 18t-99 54.5t-67.5 92.5t-25 132v451h-95v12h328v-12h-95v-694zM243 736h-114v-451
q0 -85 31 -142.5t83 -92.5v686zM223 92q-36 32 -55 79.5t-19 113.5v431h74v-624zM315 813l124 103l124 -103l-8 -10l-116 97l-116 -97z" />
    <glyph glyph-name="Udieresis" unicode="&#xdc;" horiz-adv-x="842" 
d="M255 42q37 -22 81 -32t93 -10q58 0 109.5 17t90.5 52.5t61.5 89t22.5 126.5v451h-95v12h202v-12h-95v-451q0 -76 -23.5 -132t-64 -92.5t-94.5 -54.5t-114 -18q-64 0 -120.5 18t-99 54.5t-67.5 92.5t-25 132v451h-95v12h328v-12h-95v-694zM243 736h-114v-451
q0 -85 31 -142.5t83 -92.5v686zM223 92q-36 32 -55 79.5t-19 113.5v431h74v-624zM537 807q-20 0 -35.5 15.5t-15.5 35.5t15.5 35.5t35.5 15.5t35.5 -15.5t15.5 -35.5t-15.5 -35.5t-35.5 -15.5zM342 807q-20 0 -35.5 15.5t-15.5 35.5t15.5 35.5t35.5 15.5t35.5 -15.5
t15.5 -35.5t-15.5 -35.5t-35.5 -15.5zM537 819q16 0 27.5 11.5t11.5 27.5t-11.5 27.5t-27.5 11.5t-27.5 -11.5t-11.5 -27.5t11.5 -27.5t27.5 -11.5zM342 819q16 0 27.5 11.5t11.5 27.5t-11.5 27.5t-27.5 11.5t-27.5 -11.5t-11.5 -27.5t11.5 -27.5t27.5 -11.5zM537 839
q-8 0 -13.5 5.5t-5.5 13.5t5.5 13.5t13.5 5.5t13.5 -5.5t5.5 -13.5t-5.5 -13.5t-13.5 -5.5zM342 839q-8 0 -13.5 5.5t-5.5 13.5t5.5 13.5t13.5 5.5t13.5 -5.5t5.5 -13.5t-5.5 -13.5t-13.5 -5.5z" />
    <glyph glyph-name="Yacute" unicode="&#xdd;" horiz-adv-x="732" 
d="M212 12h94v324l-274 400h-61v12h333v-12h-110l243 -357l218 357h-107v12h202v-12h-81l-225 -369v-355h96v-12h-328v12zM432 12v355l-252 369h-134l272 -396v-328h114zM338 347l-254 369h85l243 -356v-328h-74v315zM339 813l152 101l7 -10l-152 -101z" />
    <glyph glyph-name="Thorn" unicode="&#xde;" horiz-adv-x="733" 
d="M46 12h95v724h-95v12h328v-12h-95v-135h180q55 0 99.5 -18t76 -48.5t49 -72t17.5 -87.5q0 -45 -17.5 -84.5t-49 -69t-76 -47t-99.5 -17.5h-180v-145h95v-12h-328v12zM267 12v724h-114v-724h114zM173 716h74v-684h-74v684zM459 169q49 0 90 15v390q-41 15 -90 15h-180
v-420h180zM561 188q60 25 94 75t34 112q0 64 -34 116t-94 78v-381zM581 536q41 -26 64.5 -68.5t23.5 -92.5q0 -48 -23 -88.5t-65 -66.5v316z" />
    <glyph glyph-name="germandbls" unicode="&#xdf;" horiz-adv-x="591" 
d="M10 12h90v547q0 51 18.5 88.5t49.5 63t70 38t80 12.5t80 -12.5t70 -38t49.5 -63t18.5 -86.5q0 -35 -9.5 -63t-26 -50t-37.5 -37.5t-44 -26.5q27 -11 50 -28t40 -40t27 -51.5t10 -63.5q0 -39 -13.5 -76.5t-39.5 -66t-64 -46t-87 -17.5q-10 0 -18.5 0.5t-15.5 1.5l2 12
q8 -2 15 -2h17q32 0 57 7v363h-82v12h82v346q-40 14 -81 14q-46 0 -85 -15v-734h-223v12zM411 394q48 22 80.5 63t32.5 104q0 64 -32.5 106.5t-80.5 62.5v-336zM221 12v717q-47 -21 -78 -63.5t-31 -106.5v-547h109zM431 698q34 -20 53.5 -54t19.5 -83q0 -48 -20.5 -80.5
t-52.5 -53.5v271zM132 559q0 47 19.5 81t49.5 55v-663h-69v527zM411 18q60 21 91.5 72t31.5 111q0 67 -35.5 109.5t-87.5 62.5v-355zM431 341q35 -20 59 -55t24 -85q0 -48 -21 -88.5t-62 -63.5v292z" />
    <glyph glyph-name="agrave" unicode="&#xe0;" horiz-adv-x="562" 
d="M32 120q0 65 41 98.5t104 33.5h38q50 0 82 21t32 56v161q-29 8 -59 8q-35 0 -68.5 -7.5t-59.5 -21.5q5 -4 12.5 -11.5t15 -17t13 -20.5t5.5 -23q0 -26 -18 -41.5t-41 -15.5q-24 0 -41.5 16.5t-17.5 42.5q0 22 17.5 42.5t46 35.5t64 24t72.5 9q89 0 141 -53t52 -153v-298
q42 5 68.5 39t26.5 82h12q0 -28 -9 -52.5t-25 -42.5t-38 -28.5t-48 -10.5q-45 0 -76 27.5t-41 72.5q-5 -20 -14.5 -36.5t-24.5 -30.5q-20 -17 -48 -27.5t-65 -10.5q-38 0 -66 10t-46.5 28t-27.5 42t-9 52zM341 130q0 -27 8 -49.5t22.5 -39.5t34.5 -26.5t44 -9.5h1v299
q0 71 -29.5 117.5t-80.5 64.5v-356zM181 0q37 0 65 11t46.5 29.5t27.5 43.5t9 53v153q-16 -28 -50 -40q-26 -10 -64 -10h-41v-240h7zM361 454q32 -20 51 -58t19 -92v-277q-32 8 -51 36t-19 67v324zM44 120q0 -48 29 -81t89 -38v238q-53 -4 -85.5 -34t-32.5 -85zM64 120
q0 41 21.5 64.5t56.5 31.5v-192q-40 8 -59 34.5t-19 61.5zM129 352q18 0 32.5 12.5t14.5 32.5q0 12 -6 22.5t-13.5 19.5t-15 15.5t-10.5 8.5q-23 -14 -36 -30t-13 -34q0 -20 13.5 -33.5t33.5 -13.5zM129 372q-11 0 -19 7.5t-8 19.5q0 20 27 40q8 -8 17.5 -19t9.5 -23
q0 -11 -8 -18t-19 -7zM153 678l7 10l152 -101l-7 -10z" />
    <glyph glyph-name="aacute" unicode="&#xe1;" horiz-adv-x="562" 
d="M32 120q0 65 41 98.5t104 33.5h38q50 0 82 21t32 56v161q-29 8 -59 8q-35 0 -68.5 -7.5t-59.5 -21.5q5 -4 12.5 -11.5t15 -17t13 -20.5t5.5 -23q0 -26 -18 -41.5t-41 -15.5q-24 0 -41.5 16.5t-17.5 42.5q0 22 17.5 42.5t46 35.5t64 24t72.5 9q89 0 141 -53t52 -153v-298
q42 5 68.5 39t26.5 82h12q0 -28 -9 -52.5t-25 -42.5t-38 -28.5t-48 -10.5q-45 0 -76 27.5t-41 72.5q-5 -20 -14.5 -36.5t-24.5 -30.5q-20 -17 -48 -27.5t-65 -10.5q-38 0 -66 10t-46.5 28t-27.5 42t-9 52zM341 130q0 -27 8 -49.5t22.5 -39.5t34.5 -26.5t44 -9.5h1v299
q0 71 -29.5 117.5t-80.5 64.5v-356zM181 0q37 0 65 11t46.5 29.5t27.5 43.5t9 53v153q-16 -28 -50 -40q-26 -10 -64 -10h-41v-240h7zM361 454q32 -20 51 -58t19 -92v-277q-32 8 -51 36t-19 67v324zM44 120q0 -48 29 -81t89 -38v238q-53 -4 -85.5 -34t-32.5 -85zM64 120
q0 41 21.5 64.5t56.5 31.5v-192q-40 8 -59 34.5t-19 61.5zM129 352q18 0 32.5 12.5t14.5 32.5q0 12 -6 22.5t-13.5 19.5t-15 15.5t-10.5 8.5q-23 -14 -36 -30t-13 -34q0 -20 13.5 -33.5t33.5 -13.5zM129 372q-11 0 -19 7.5t-8 19.5q0 20 27 40q8 -8 17.5 -19t9.5 -23
q0 -11 -8 -18t-19 -7zM234 587l152 101l7 -10l-152 -101z" />
    <glyph glyph-name="acircumflex" unicode="&#xe2;" horiz-adv-x="562" 
d="M32 120q0 65 41 98.5t104 33.5h38q50 0 82 21t32 56v161q-29 8 -59 8q-35 0 -68.5 -7.5t-59.5 -21.5q5 -4 12.5 -11.5t15 -17t13 -20.5t5.5 -23q0 -26 -18 -41.5t-41 -15.5q-24 0 -41.5 16.5t-17.5 42.5q0 22 17.5 42.5t46 35.5t64 24t72.5 9q89 0 141 -53t52 -153v-298
q42 5 68.5 39t26.5 82h12q0 -28 -9 -52.5t-25 -42.5t-38 -28.5t-48 -10.5q-45 0 -76 27.5t-41 72.5q-5 -20 -14.5 -36.5t-24.5 -30.5q-20 -17 -48 -27.5t-65 -10.5q-38 0 -66 10t-46.5 28t-27.5 42t-9 52zM341 130q0 -27 8 -49.5t22.5 -39.5t34.5 -26.5t44 -9.5h1v299
q0 71 -29.5 117.5t-80.5 64.5v-356zM181 0q37 0 65 11t46.5 29.5t27.5 43.5t9 53v153q-16 -28 -50 -40q-26 -10 -64 -10h-41v-240h7zM361 454q32 -20 51 -58t19 -92v-277q-32 8 -51 36t-19 67v324zM44 120q0 -48 29 -81t89 -38v238q-53 -4 -85.5 -34t-32.5 -85zM64 120
q0 41 21.5 64.5t56.5 31.5v-192q-40 8 -59 34.5t-19 61.5zM129 352q18 0 32.5 12.5t14.5 32.5q0 12 -6 22.5t-13.5 19.5t-15 15.5t-10.5 8.5q-23 -14 -36 -30t-13 -34q0 -20 13.5 -33.5t33.5 -13.5zM149 587l124 103l124 -103l-8 -10l-116 97l-116 -97zM129 372
q-11 0 -19 7.5t-8 19.5q0 20 27 40q8 -8 17.5 -19t9.5 -23q0 -11 -8 -18t-19 -7z" />
    <glyph glyph-name="atilde" unicode="&#xe3;" horiz-adv-x="562" 
d="M32 120q0 65 41 98.5t104 33.5h38q50 0 82 21t32 56v161q-29 8 -59 8q-35 0 -68.5 -7.5t-59.5 -21.5q5 -4 12.5 -11.5t15 -17t13 -20.5t5.5 -23q0 -26 -18 -41.5t-41 -15.5q-24 0 -41.5 16.5t-17.5 42.5q0 22 17.5 42.5t46 35.5t64 24t72.5 9q89 0 141 -53t52 -153v-298
q42 5 68.5 39t26.5 82h12q0 -28 -9 -52.5t-25 -42.5t-38 -28.5t-48 -10.5q-45 0 -76 27.5t-41 72.5q-5 -20 -14.5 -36.5t-24.5 -30.5q-20 -17 -48 -27.5t-65 -10.5q-38 0 -66 10t-46.5 28t-27.5 42t-9 52zM341 130q0 -27 8 -49.5t22.5 -39.5t34.5 -26.5t44 -9.5h1v299
q0 71 -29.5 117.5t-80.5 64.5v-356zM181 0q37 0 65 11t46.5 29.5t27.5 43.5t9 53v153q-16 -28 -50 -40q-26 -10 -64 -10h-41v-240h7zM361 454q32 -20 51 -58t19 -92v-277q-32 8 -51 36t-19 67v324zM44 120q0 -48 29 -81t89 -38v238q-53 -4 -85.5 -34t-32.5 -85zM64 120
q0 41 21.5 64.5t56.5 31.5v-192q-40 8 -59 34.5t-19 61.5zM129 352q18 0 32.5 12.5t14.5 32.5q0 12 -6 22.5t-13.5 19.5t-15 15.5t-10.5 8.5q-23 -14 -36 -30t-13 -34q0 -20 13.5 -33.5t33.5 -13.5zM127 597q0 37 21 63t56 26q26 0 42.5 -13t31.5 -30q14 -15 28 -27.5
t37 -12.5q29 0 47 22.5t18 54.5h12q0 -37 -21 -63t-56 -26q-26 0 -42.5 13.5t-31.5 30.5q-14 15 -28 27t-37 12q-29 0 -47 -22.5t-18 -54.5h-12zM129 372q-11 0 -19 7.5t-8 19.5q0 20 27 40q8 -8 17.5 -19t9.5 -23q0 -11 -8 -18t-19 -7z" />
    <glyph glyph-name="adieresis" unicode="&#xe4;" horiz-adv-x="562" 
d="M32 120q0 65 41 98.5t104 33.5h38q50 0 82 21t32 56v161q-29 8 -59 8q-35 0 -68.5 -7.5t-59.5 -21.5q5 -4 12.5 -11.5t15 -17t13 -20.5t5.5 -23q0 -26 -18 -41.5t-41 -15.5q-24 0 -41.5 16.5t-17.5 42.5q0 22 17.5 42.5t46 35.5t64 24t72.5 9q89 0 141 -53t52 -153v-298
q42 5 68.5 39t26.5 82h12q0 -28 -9 -52.5t-25 -42.5t-38 -28.5t-48 -10.5q-45 0 -76 27.5t-41 72.5q-5 -20 -14.5 -36.5t-24.5 -30.5q-20 -17 -48 -27.5t-65 -10.5q-38 0 -66 10t-46.5 28t-27.5 42t-9 52zM341 130q0 -27 8 -49.5t22.5 -39.5t34.5 -26.5t44 -9.5h1v299
q0 71 -29.5 117.5t-80.5 64.5v-356zM181 0q37 0 65 11t46.5 29.5t27.5 43.5t9 53v153q-16 -28 -50 -40q-26 -10 -64 -10h-41v-240h7zM361 454q32 -20 51 -58t19 -92v-277q-32 8 -51 36t-19 67v324zM44 120q0 -48 29 -81t89 -38v238q-53 -4 -85.5 -34t-32.5 -85zM64 120
q0 41 21.5 64.5t56.5 31.5v-192q-40 8 -59 34.5t-19 61.5zM371 581q-20 0 -35.5 15.5t-15.5 35.5t15.5 35.5t35.5 15.5t35.5 -15.5t15.5 -35.5t-15.5 -35.5t-35.5 -15.5zM176 581q-20 0 -35.5 15.5t-15.5 35.5t15.5 35.5t35.5 15.5t35.5 -15.5t15.5 -35.5t-15.5 -35.5
t-35.5 -15.5zM129 352q18 0 32.5 12.5t14.5 32.5q0 12 -6 22.5t-13.5 19.5t-15 15.5t-10.5 8.5q-23 -14 -36 -30t-13 -34q0 -20 13.5 -33.5t33.5 -13.5zM176 593q16 0 27.5 11.5t11.5 27.5t-11.5 27.5t-27.5 11.5t-27.5 -11.5t-11.5 -27.5t11.5 -27.5t27.5 -11.5zM371 593
q16 0 27.5 11.5t11.5 27.5t-11.5 27.5t-27.5 11.5t-27.5 -11.5t-11.5 -27.5t11.5 -27.5t27.5 -11.5zM129 372q-11 0 -19 7.5t-8 19.5q0 20 27 40q8 -8 17.5 -19t9.5 -23q0 -11 -8 -18t-19 -7zM371 613q-8 0 -13.5 5.5t-5.5 13.5t5.5 13.5t13.5 5.5t13.5 -5.5t5.5 -13.5
t-5.5 -13.5t-13.5 -5.5zM176 613q-8 0 -13.5 5.5t-5.5 13.5t5.5 13.5t13.5 5.5t13.5 -5.5t5.5 -13.5t-5.5 -13.5t-13.5 -5.5z" />
    <glyph glyph-name="aring" unicode="&#xe5;" horiz-adv-x="562" 
d="M32 120q0 65 41 98.5t104 33.5h38q50 0 82 21t32 56v161q-29 8 -59 8q-35 0 -68.5 -7.5t-59.5 -21.5q5 -4 12.5 -11.5t15 -17t13 -20.5t5.5 -23q0 -26 -18 -41.5t-41 -15.5q-24 0 -41.5 16.5t-17.5 42.5q0 22 17.5 42.5t46 35.5t64 24t72.5 9q89 0 141 -53t52 -153v-298
q42 5 68.5 39t26.5 82h12q0 -28 -9 -52.5t-25 -42.5t-38 -28.5t-48 -10.5q-45 0 -76 27.5t-41 72.5q-5 -20 -14.5 -36.5t-24.5 -30.5q-20 -17 -48 -27.5t-65 -10.5q-38 0 -66 10t-46.5 28t-27.5 42t-9 52zM341 130q0 -27 8 -49.5t22.5 -39.5t34.5 -26.5t44 -9.5h1v299
q0 71 -29.5 117.5t-80.5 64.5v-356zM181 0q37 0 65 11t46.5 29.5t27.5 43.5t9 53v153q-16 -28 -50 -40q-26 -10 -64 -10h-41v-240h7zM361 454q32 -20 51 -58t19 -92v-277q-32 8 -51 36t-19 67v324zM273 520q-18 0 -34 7t-28 19t-19 28t-7 34t7 34t19 28t28 19t34 7t34 -7
t28 -19t19 -28t7 -34t-7 -34t-19 -28t-28 -19t-34 -7zM44 120q0 -48 29 -81t89 -38v238q-53 -4 -85.5 -34t-32.5 -85zM273 532q32 0 54 22t22 54t-22 54t-54 22t-54 -22t-22 -54t22 -54t54 -22zM64 120q0 41 21.5 64.5t56.5 31.5v-192q-40 8 -59 34.5t-19 61.5zM129 352
q18 0 32.5 12.5t14.5 32.5q0 12 -6 22.5t-13.5 19.5t-15 15.5t-10.5 8.5q-23 -14 -36 -30t-13 -34q0 -20 13.5 -33.5t33.5 -13.5zM129 372q-11 0 -19 7.5t-8 19.5q0 20 27 40q8 -8 17.5 -19t9.5 -23q0 -11 -8 -18t-19 -7z" />
    <glyph glyph-name="ae" unicode="&#xe6;" horiz-adv-x="816" 
d="M31 125q0 71 46.5 109t126.5 38h124v218q-30 8 -60 8q-32 0 -64.5 -7.5t-58.5 -21.5q5 -4 13 -11t15.5 -16.5t13 -21t5.5 -24.5q0 -24 -18 -40t-41 -16q-24 0 -41.5 17t-17.5 41q0 23 17.5 43.5t45 35.5t62 24t69.5 9q45 0 81 -15t62 -43q5 5 17.5 14.5t31.5 19.5t44 17
t56 7q49 0 89 -20.5t69 -55t46 -80t19 -94.5h-321v-235q50 -25 105 -25q53 0 89 21t59 47q26 30 43 69l12 -4q-17 -41 -45 -73q-24 -27 -62.5 -49.5t-95.5 -22.5q-63 0 -117 30t-87 78q-5 -11 -16 -29t-32 -35.5t-53 -30.5t-78 -13q-77 0 -115 38t-38 99zM632 272v212
q-34 14 -72 14q-29 0 -52.5 -6.5t-41.5 -15.5t-30 -18t-17 -14q20 -26 31.5 -61.5t11.5 -78.5v-32h170zM340 208q0 -55 30.5 -101.5t79.5 -74.5v272q0 69 -29.5 115.5t-80.5 65.5v-277zM771 272q-5 67 -38 123.5t-89 83.5v-207h127zM133 352q18 0 32.5 12t14.5 32
q0 13 -6 24.5t-14 20.5t-15.5 14.5t-10.5 7.5q-22 -13 -35 -29.5t-13 -35.5q0 -20 13.5 -33t33.5 -13zM360 453q33 -21 51.5 -59t18.5 -90v-234q-32 26 -51 62t-19 76v245zM664 443q32 -24 54.5 -66t30.5 -85h-85v151zM133 372q-11 0 -19 7.5t-8 18.5q0 22 28 41
q8 -7 17 -18t9 -25q0 -11 -8 -17.5t-19 -6.5zM184 0q48 0 80 15t51.5 33.5t28.5 36.5t11 24q-13 23 -20 47.5t-7 51.5v52h-124q-8 0 -15.5 -0.5t-15.5 -1.5v-258h11zM43 125q0 -51 29 -84.5t89 -39.5v255q-55 -9 -86.5 -43t-31.5 -88zM63 125q0 38 21.5 65.5t56.5 40.5v-206
q-39 10 -58.5 36.5t-19.5 63.5z" />
    <glyph glyph-name="ccedilla" unicode="&#xe7;" horiz-adv-x="526" 
d="M179 25q48 -25 107 -25q57 0 94.5 21t60.5 47q26 30 42 69l12 -4q-16 -39 -43 -71q-24 -27 -63 -50t-99 -24l-24 -68q32 -3 54.5 -17t22.5 -46q0 -35 -25 -52.5t-59 -17.5q-26 0 -47 9l4 12q21 -9 43 -9q29 0 50.5 15t21.5 43q0 29 -24 40t-59 11l29 80q-53 2 -96.5 23
t-75 56.5t-49 82t-17.5 98.5q0 56 20 104t54.5 83t80.5 55t99 20q33 0 67.5 -8t62.5 -22.5t45.5 -35t17.5 -45.5q0 -26 -18 -42.5t-41 -16.5t-41 17t-18 42q0 22 15 41t32 30q-26 13 -58.5 20.5t-63.5 7.5q-61 0 -114 -28v-445zM167 462q-53 -32 -84.5 -87.5t-31.5 -126.5
q0 -69 31 -126.5t85 -89.5v430zM147 71q-36 32 -56 77.5t-20 99.5q0 56 20 100t56 75v-352zM380 399q0 -20 14 -33.5t33 -13.5t33 13.5t14 33.5q0 19 -13 35.5t-35 29.5q-14 -8 -30 -26t-16 -39zM400 399q0 12 8 23t18 19q28 -19 28 -42q0 -12 -8 -19.5t-19 -7.5t-19 7.5
t-8 19.5z" />
    <glyph glyph-name="egrave" unicode="&#xe8;" horiz-adv-x="544" 
d="M180 25q48 -25 107 -25q56 0 94.5 21t61.5 47q27 30 43 69l12 -4q-17 -41 -46 -73q-25 -27 -65 -49.5t-100 -22.5q-54 0 -99.5 21t-78.5 56.5t-51.5 82.5t-18.5 100q0 55 19 102.5t52 83t77.5 56t95.5 20.5q48 0 88.5 -18.5t70.5 -51t48 -76.5t21 -94h-331v-245zM360 282
v202q-37 14 -77 14q-56 0 -103 -26v-190h180zM498 282q-6 67 -39 119t-87 77v-196h126zM168 466q-53 -32 -85 -89.5t-32 -128.5q0 -69 31.5 -126.5t85.5 -89.5v434zM392 444q32 -23 54 -60t30 -82h-84v142zM148 70q-37 32 -57 78t-20 100t21 100.5t56 78.5v-357zM161 678
l7 10l152 -101l-7 -10z" />
    <glyph glyph-name="eacute" unicode="&#xe9;" horiz-adv-x="544" 
d="M180 25q48 -25 107 -25q56 0 94.5 21t61.5 47q27 30 43 69l12 -4q-17 -41 -46 -73q-25 -27 -65 -49.5t-100 -22.5q-54 0 -99.5 21t-78.5 56.5t-51.5 82.5t-18.5 100q0 55 19 102.5t52 83t77.5 56t95.5 20.5q48 0 88.5 -18.5t70.5 -51t48 -76.5t21 -94h-331v-245zM360 282
v202q-37 14 -77 14q-56 0 -103 -26v-190h180zM498 282q-6 67 -39 119t-87 77v-196h126zM168 466q-53 -32 -85 -89.5t-32 -128.5q0 -69 31.5 -126.5t85.5 -89.5v434zM392 444q32 -23 54 -60t30 -82h-84v142zM148 70q-37 32 -57 78t-20 100t21 100.5t56 78.5v-357zM242 587
l152 101l7 -10l-152 -101z" />
    <glyph glyph-name="ecircumflex" unicode="&#xea;" horiz-adv-x="544" 
d="M180 25q48 -25 107 -25q56 0 94.5 21t61.5 47q27 30 43 69l12 -4q-17 -41 -46 -73q-25 -27 -65 -49.5t-100 -22.5q-54 0 -99.5 21t-78.5 56.5t-51.5 82.5t-18.5 100q0 55 19 102.5t52 83t77.5 56t95.5 20.5q48 0 88.5 -18.5t70.5 -51t48 -76.5t21 -94h-331v-245zM360 282
v202q-37 14 -77 14q-56 0 -103 -26v-190h180zM498 282q-6 67 -39 119t-87 77v-196h126zM168 466q-53 -32 -85 -89.5t-32 -128.5q0 -69 31.5 -126.5t85.5 -89.5v434zM392 444q32 -23 54 -60t30 -82h-84v142zM148 70q-37 32 -57 78t-20 100t21 100.5t56 78.5v-357zM157 587
l124 103l124 -103l-8 -10l-116 97l-116 -97z" />
    <glyph glyph-name="edieresis" unicode="&#xeb;" horiz-adv-x="544" 
d="M180 25q48 -25 107 -25q56 0 94.5 21t61.5 47q27 30 43 69l12 -4q-17 -41 -46 -73q-25 -27 -65 -49.5t-100 -22.5q-54 0 -99.5 21t-78.5 56.5t-51.5 82.5t-18.5 100q0 55 19 102.5t52 83t77.5 56t95.5 20.5q48 0 88.5 -18.5t70.5 -51t48 -76.5t21 -94h-331v-245zM360 282
v202q-37 14 -77 14q-56 0 -103 -26v-190h180zM498 282q-6 67 -39 119t-87 77v-196h126zM168 466q-53 -32 -85 -89.5t-32 -128.5q0 -69 31.5 -126.5t85.5 -89.5v434zM392 444q32 -23 54 -60t30 -82h-84v142zM148 70q-37 32 -57 78t-20 100t21 100.5t56 78.5v-357zM379 581
q-20 0 -35.5 15.5t-15.5 35.5t15.5 35.5t35.5 15.5t35.5 -15.5t15.5 -35.5t-15.5 -35.5t-35.5 -15.5zM184 581q-20 0 -35.5 15.5t-15.5 35.5t15.5 35.5t35.5 15.5t35.5 -15.5t15.5 -35.5t-15.5 -35.5t-35.5 -15.5zM379 593q16 0 27.5 11.5t11.5 27.5t-11.5 27.5t-27.5 11.5
t-27.5 -11.5t-11.5 -27.5t11.5 -27.5t27.5 -11.5zM184 593q16 0 27.5 11.5t11.5 27.5t-11.5 27.5t-27.5 11.5t-27.5 -11.5t-11.5 -27.5t11.5 -27.5t27.5 -11.5zM379 613q-8 0 -13.5 5.5t-5.5 13.5t5.5 13.5t13.5 5.5t13.5 -5.5t5.5 -13.5t-5.5 -13.5t-13.5 -5.5zM184 613
q-8 0 -13.5 5.5t-5.5 13.5t5.5 13.5t13.5 5.5t13.5 -5.5t5.5 -13.5t-5.5 -13.5t-13.5 -5.5z" />
    <glyph glyph-name="igrave" unicode="&#xec;" horiz-adv-x="345" 
d="M22 12h90v474h-90v12h223v-486h90v-12h-313v12zM233 12v474h-109v-474h109zM144 466h69v-434h-69v434zM58 678l7 10l152 -101l-7 -10z" />
    <glyph glyph-name="iacute" unicode="&#xed;" horiz-adv-x="345" 
d="M22 12h90v474h-90v12h223v-486h90v-12h-313v12zM233 12v474h-109v-474h109zM144 466h69v-434h-69v434zM139 587l152 101l7 -10l-152 -101z" />
    <glyph glyph-name="icircumflex" unicode="&#xee;" horiz-adv-x="345" 
d="M22 12h90v474h-90v12h223v-486h90v-12h-313v12zM233 12v474h-109v-474h109zM144 466h69v-434h-69v434zM54 587l124 103l124 -103l-8 -10l-116 97l-116 -97z" />
    <glyph glyph-name="idieresis" unicode="&#xef;" horiz-adv-x="345" 
d="M22 12h90v474h-90v12h223v-486h90v-12h-313v12zM233 12v474h-109v-474h109zM144 466h69v-434h-69v434zM276 581q-20 0 -35.5 15.5t-15.5 35.5t15.5 35.5t35.5 15.5t35.5 -15.5t15.5 -35.5t-15.5 -35.5t-35.5 -15.5zM81 581q-20 0 -35.5 15.5t-15.5 35.5t15.5 35.5
t35.5 15.5t35.5 -15.5t15.5 -35.5t-15.5 -35.5t-35.5 -15.5zM276 593q16 0 27.5 11.5t11.5 27.5t-11.5 27.5t-27.5 11.5t-27.5 -11.5t-11.5 -27.5t11.5 -27.5t27.5 -11.5zM81 593q16 0 27.5 11.5t11.5 27.5t-11.5 27.5t-27.5 11.5t-27.5 -11.5t-11.5 -27.5t11.5 -27.5
t27.5 -11.5zM276 613q-8 0 -13.5 5.5t-5.5 13.5t5.5 13.5t13.5 5.5t13.5 -5.5t5.5 -13.5t-5.5 -13.5t-13.5 -5.5zM81 613q-8 0 -13.5 5.5t-5.5 13.5t5.5 13.5t13.5 5.5t13.5 -5.5t5.5 -13.5t-5.5 -13.5t-13.5 -5.5z" />
    <glyph glyph-name="eth" unicode="&#xf0;" horiz-adv-x="604" 
d="M41 229q0 54 20 96.5t52 71t71.5 43.5t77.5 15q45 0 86.5 -18.5t70.5 -50.5v205q-25 25 -52 46t-55 38l-170 -72l-4 11l161 69q-42 24 -83 40.5t-77 24.5l2 12q39 -8 83 -26t89 -45l165 70l4 -11l-157 -67q45 -29 87 -67t74 -84.5t51 -101t19 -115.5q0 -69 -24 -128
t-63.5 -103t-90.5 -69t-105 -25q-48 0 -90.5 19.5t-74 52.5t-49.5 77t-18 92zM431 61q50 43 81.5 108t31.5 144q0 80 -31.5 146t-81.5 120v-518zM451 522q32 -45 52.5 -97t20.5 -112t-20.5 -112.5t-52.5 -91.5v413zM178 23q44 -23 95 -23q38 0 75.5 13.5t70.5 38.5v318
q-27 33 -69 53t-88 20q-41 0 -84 -19v-401zM166 418q-48 -25 -80.5 -72.5t-32.5 -116.5q0 -63 31 -116.5t82 -83.5v389zM146 67q-35 29 -54 71t-19 91q0 50 21 89t52 64v-315z" />
    <glyph glyph-name="ntilde" unicode="&#xf1;" horiz-adv-x="702" 
d="M22 12h90v474h-90v12h223v-122q8 31 24 54q25 37 64 58.5t90 21.5q42 0 74.5 -15t54 -42t33 -64t11.5 -80v-304q20 2 37.5 12t30.5 26.5t20.5 38t7.5 45.5h12q0 -28 -9.5 -52.5t-25 -42.5t-37 -28.5t-45.5 -10.5q-29 0 -51.5 10.5t-39 29t-25 43.5t-8.5 54v364
q-17 4 -40 4q-39 0 -72 -15t-56.5 -40.5t-36.5 -60t-13 -73.5v-297h90v-12h-313v12zM475 130q0 -53 29 -88.5t80 -36.5v304q0 67 -28 115.5t-81 65.5v-360zM233 12v474h-109v-474h109zM144 466h69v-434h-69v434zM495 460q35 -20 52 -59.5t17 -91.5v-282q-35 6 -52 34t-17 69
v330zM217 597q0 37 21 63t56 26q26 0 42.5 -13t31.5 -30q14 -15 28 -27.5t37 -12.5q29 0 47 22.5t18 54.5h12q0 -37 -21 -63t-56 -26q-26 0 -42.5 13.5t-31.5 30.5q-14 15 -28 27t-37 12q-29 0 -47 -22.5t-18 -54.5h-12z" />
    <glyph glyph-name="ograve" unicode="&#xf2;" horiz-adv-x="608" 
d="M38 248q0 53 21 100.5t57 83.5t84.5 57t103.5 21t103.5 -21t84.5 -57t57 -83.5t21 -100.5t-21 -100t-57 -82.5t-84.5 -56.5t-103.5 -21t-103.5 21t-84.5 56.5t-57 82.5t-21 100zM178 33q28 -16 59.5 -24.5t66.5 -8.5q68 0 127 34v430q-29 16 -60.5 25t-66.5 9
q-69 0 -126 -34v-431zM443 41q52 34 83.5 88.5t31.5 118.5q0 65 -31.5 120t-83.5 89v-416zM166 457q-53 -34 -84.5 -89t-31.5 -120t31.5 -119.5t84.5 -88.5v417zM463 416q35 -32 55 -75t20 -93q0 -49 -20 -91.5t-55 -74.5v334zM146 81q-35 32 -55.5 74.5t-20.5 92.5
q0 103 76 168v-335zM184 678l7 10l152 -101l-7 -10z" />
    <glyph glyph-name="oacute" unicode="&#xf3;" horiz-adv-x="608" 
d="M38 248q0 53 21 100.5t57 83.5t84.5 57t103.5 21t103.5 -21t84.5 -57t57 -83.5t21 -100.5t-21 -100t-57 -82.5t-84.5 -56.5t-103.5 -21t-103.5 21t-84.5 56.5t-57 82.5t-21 100zM178 33q28 -16 59.5 -24.5t66.5 -8.5q68 0 127 34v430q-29 16 -60.5 25t-66.5 9
q-69 0 -126 -34v-431zM443 41q52 34 83.5 88.5t31.5 118.5q0 65 -31.5 120t-83.5 89v-416zM166 457q-53 -34 -84.5 -89t-31.5 -120t31.5 -119.5t84.5 -88.5v417zM463 416q35 -32 55 -75t20 -93q0 -49 -20 -91.5t-55 -74.5v334zM146 81q-35 32 -55.5 74.5t-20.5 92.5
q0 103 76 168v-335zM265 587l152 101l7 -10l-152 -101z" />
    <glyph glyph-name="ocircumflex" unicode="&#xf4;" horiz-adv-x="608" 
d="M38 248q0 53 21 100.5t57 83.5t84.5 57t103.5 21t103.5 -21t84.5 -57t57 -83.5t21 -100.5t-21 -100t-57 -82.5t-84.5 -56.5t-103.5 -21t-103.5 21t-84.5 56.5t-57 82.5t-21 100zM178 33q28 -16 59.5 -24.5t66.5 -8.5q68 0 127 34v430q-29 16 -60.5 25t-66.5 9
q-69 0 -126 -34v-431zM443 41q52 34 83.5 88.5t31.5 118.5q0 65 -31.5 120t-83.5 89v-416zM166 457q-53 -34 -84.5 -89t-31.5 -120t31.5 -119.5t84.5 -88.5v417zM463 416q35 -32 55 -75t20 -93q0 -49 -20 -91.5t-55 -74.5v334zM146 81q-35 32 -55.5 74.5t-20.5 92.5
q0 103 76 168v-335zM180 587l124 103l124 -103l-8 -10l-116 97l-116 -97z" />
    <glyph glyph-name="otilde" unicode="&#xf5;" horiz-adv-x="608" 
d="M38 248q0 53 21 100.5t57 83.5t84.5 57t103.5 21t103.5 -21t84.5 -57t57 -83.5t21 -100.5t-21 -100t-57 -82.5t-84.5 -56.5t-103.5 -21t-103.5 21t-84.5 56.5t-57 82.5t-21 100zM178 33q28 -16 59.5 -24.5t66.5 -8.5q68 0 127 34v430q-29 16 -60.5 25t-66.5 9
q-69 0 -126 -34v-431zM443 41q52 34 83.5 88.5t31.5 118.5q0 65 -31.5 120t-83.5 89v-416zM166 457q-53 -34 -84.5 -89t-31.5 -120t31.5 -119.5t84.5 -88.5v417zM463 416q35 -32 55 -75t20 -93q0 -49 -20 -91.5t-55 -74.5v334zM146 81q-35 32 -55.5 74.5t-20.5 92.5
q0 103 76 168v-335zM158 597q0 37 21 63t56 26q26 0 42.5 -13t31.5 -30q14 -15 28 -27.5t37 -12.5q29 0 47 22.5t18 54.5h12q0 -37 -21 -63t-56 -26q-26 0 -42.5 13.5t-31.5 30.5q-14 15 -28 27t-37 12q-29 0 -47 -22.5t-18 -54.5h-12z" />
    <glyph glyph-name="odieresis" unicode="&#xf6;" horiz-adv-x="608" 
d="M38 248q0 53 21 100.5t57 83.5t84.5 57t103.5 21t103.5 -21t84.5 -57t57 -83.5t21 -100.5t-21 -100t-57 -82.5t-84.5 -56.5t-103.5 -21t-103.5 21t-84.5 56.5t-57 82.5t-21 100zM178 33q28 -16 59.5 -24.5t66.5 -8.5q68 0 127 34v430q-29 16 -60.5 25t-66.5 9
q-69 0 -126 -34v-431zM443 41q52 34 83.5 88.5t31.5 118.5q0 65 -31.5 120t-83.5 89v-416zM166 457q-53 -34 -84.5 -89t-31.5 -120t31.5 -119.5t84.5 -88.5v417zM463 416q35 -32 55 -75t20 -93q0 -49 -20 -91.5t-55 -74.5v334zM146 81q-35 32 -55.5 74.5t-20.5 92.5
q0 103 76 168v-335zM402 581q-20 0 -35.5 15.5t-15.5 35.5t15.5 35.5t35.5 15.5t35.5 -15.5t15.5 -35.5t-15.5 -35.5t-35.5 -15.5zM207 581q-20 0 -35.5 15.5t-15.5 35.5t15.5 35.5t35.5 15.5t35.5 -15.5t15.5 -35.5t-15.5 -35.5t-35.5 -15.5zM402 593q16 0 27.5 11.5
t11.5 27.5t-11.5 27.5t-27.5 11.5t-27.5 -11.5t-11.5 -27.5t11.5 -27.5t27.5 -11.5zM207 593q16 0 27.5 11.5t11.5 27.5t-11.5 27.5t-27.5 11.5t-27.5 -11.5t-11.5 -27.5t11.5 -27.5t27.5 -11.5zM402 613q-8 0 -13.5 5.5t-5.5 13.5t5.5 13.5t13.5 5.5t13.5 -5.5t5.5 -13.5
t-5.5 -13.5t-13.5 -5.5zM207 613q-8 0 -13.5 5.5t-5.5 13.5t5.5 13.5t13.5 5.5t13.5 -5.5t5.5 -13.5t-5.5 -13.5t-13.5 -5.5z" />
    <glyph glyph-name="divide" unicode="&#xf7;" horiz-adv-x="700" 
d="M350 368q-29 0 -50 21t-21 50t21 50t50 21t50 -21t21 -50t-21 -50t-50 -21zM350 380q25 0 42 17t17 42t-17 42t-42 17t-42 -17t-17 -42t17 -42t42 -17zM350 400q-17 0 -28 11t-11 28t11 28t28 11t28 -11t11 -28t-11 -28t-28 -11zM279 59q0 29 21 50t50 21t50 -21t21 -50
t-21 -50t-50 -21t-50 21t-21 50zM291 59q0 -25 17 -42t42 -17t42 17t17 42t-17 42t-42 17t-42 -17t-17 -42zM311 59q0 17 11 28t28 11t28 -11t11 -28t-11 -28t-28 -11t-28 11t-11 28z" />
    <glyph glyph-name="oslash" unicode="&#xf8;" horiz-adv-x="608" 
d="M195 11q-35 16 -63.5 40.5t-49.5 55t-32.5 66.5t-11.5 75q0 53 21 100.5t57 83.5t84.5 57t103.5 21q49 0 98 -19l23 53l12 -4l-23 -54q34 -16 62.5 -40.5t49.5 -55.5t32.5 -67t11.5 -75q0 -53 -21 -100t-57 -82.5t-84.5 -56.5t-103.5 -21q-26 0 -50 5t-47 13l-24 -55
l-12 4zM178 33q5 -3 10.5 -6t11.5 -5l197 458q-22 8 -45 13t-48 5q-69 0 -126 -34v-431zM211 17q45 -17 93 -17q68 0 127 34v430l-22 11zM443 41q52 34 83.5 88.5t31.5 118.5q0 65 -31.5 120t-83.5 89v-416zM166 457q-53 -34 -84.5 -89t-31.5 -120t31.5 -119.5t84.5 -88.5
v417zM463 416q35 -32 55 -75t20 -93q0 -49 -20 -91.5t-55 -74.5v334zM146 81q-35 32 -55.5 74.5t-20.5 92.5q0 103 76 168v-335z" />
    <glyph glyph-name="ugrave" unicode="&#xf9;" horiz-adv-x="693" 
d="M90 486h-90v12h223v-494q17 -4 42 -4q38 0 69.5 14.5t55 39.5t36.5 59t15 73v300h-90v12h223v-493q20 2 37.5 12t30.5 26.5t20.5 38t7.5 45.5h12q0 -28 -9.5 -52.5t-25 -42.5t-37 -28.5t-45.5 -10.5q-56 0 -89 37t-35 93q-17 -61 -63.5 -98t-112.5 -37q-44 0 -77 16
t-54.5 43.5t-32.5 64.5t-11 80v294zM453 130q0 -53 29 -88.5t80 -36.5v481h-109v-356zM211 486h-109v-294q0 -67 27 -117t82 -67v478zM473 466h69v-439q-35 6 -52 34t-17 69v336zM191 38q-34 21 -51.5 62t-17.5 92v274h69v-428zM209 678l7 10l152 -101l-7 -10z" />
    <glyph glyph-name="uacute" unicode="&#xfa;" horiz-adv-x="693" 
d="M90 486h-90v12h223v-494q17 -4 42 -4q38 0 69.5 14.5t55 39.5t36.5 59t15 73v300h-90v12h223v-493q20 2 37.5 12t30.5 26.5t20.5 38t7.5 45.5h12q0 -28 -9.5 -52.5t-25 -42.5t-37 -28.5t-45.5 -10.5q-56 0 -89 37t-35 93q-17 -61 -63.5 -98t-112.5 -37q-44 0 -77 16
t-54.5 43.5t-32.5 64.5t-11 80v294zM453 130q0 -53 29 -88.5t80 -36.5v481h-109v-356zM211 486h-109v-294q0 -67 27 -117t82 -67v478zM473 466h69v-439q-35 6 -52 34t-17 69v336zM191 38q-34 21 -51.5 62t-17.5 92v274h69v-428zM290 587l152 101l7 -10l-152 -101z" />
    <glyph glyph-name="ucircumflex" unicode="&#xfb;" horiz-adv-x="693" 
d="M90 486h-90v12h223v-494q17 -4 42 -4q38 0 69.5 14.5t55 39.5t36.5 59t15 73v300h-90v12h223v-493q20 2 37.5 12t30.5 26.5t20.5 38t7.5 45.5h12q0 -28 -9.5 -52.5t-25 -42.5t-37 -28.5t-45.5 -10.5q-56 0 -89 37t-35 93q-17 -61 -63.5 -98t-112.5 -37q-44 0 -77 16
t-54.5 43.5t-32.5 64.5t-11 80v294zM453 130q0 -53 29 -88.5t80 -36.5v481h-109v-356zM211 486h-109v-294q0 -67 27 -117t82 -67v478zM473 466h69v-439q-35 6 -52 34t-17 69v336zM191 38q-34 21 -51.5 62t-17.5 92v274h69v-428zM205 587l124 103l124 -103l-8 -10l-116 97
l-116 -97z" />
    <glyph glyph-name="udieresis" unicode="&#xfc;" horiz-adv-x="693" 
d="M90 486h-90v12h223v-494q17 -4 42 -4q38 0 69.5 14.5t55 39.5t36.5 59t15 73v300h-90v12h223v-493q20 2 37.5 12t30.5 26.5t20.5 38t7.5 45.5h12q0 -28 -9.5 -52.5t-25 -42.5t-37 -28.5t-45.5 -10.5q-56 0 -89 37t-35 93q-17 -61 -63.5 -98t-112.5 -37q-44 0 -77 16
t-54.5 43.5t-32.5 64.5t-11 80v294zM453 130q0 -53 29 -88.5t80 -36.5v481h-109v-356zM211 486h-109v-294q0 -67 27 -117t82 -67v478zM473 466h69v-439q-35 6 -52 34t-17 69v336zM191 38q-34 21 -51.5 62t-17.5 92v274h69v-428zM427 581q-20 0 -35.5 15.5t-15.5 35.5
t15.5 35.5t35.5 15.5t35.5 -15.5t15.5 -35.5t-15.5 -35.5t-35.5 -15.5zM232 581q-20 0 -35.5 15.5t-15.5 35.5t15.5 35.5t35.5 15.5t35.5 -15.5t15.5 -35.5t-15.5 -35.5t-35.5 -15.5zM427 593q16 0 27.5 11.5t11.5 27.5t-11.5 27.5t-27.5 11.5t-27.5 -11.5t-11.5 -27.5
t11.5 -27.5t27.5 -11.5zM232 593q16 0 27.5 11.5t11.5 27.5t-11.5 27.5t-27.5 11.5t-27.5 -11.5t-11.5 -27.5t11.5 -27.5t27.5 -11.5zM427 613q-8 0 -13.5 5.5t-5.5 13.5t5.5 13.5t13.5 5.5t13.5 -5.5t5.5 -13.5t-5.5 -13.5t-13.5 -5.5zM232 613q-8 0 -13.5 5.5t-5.5 13.5
t5.5 13.5t13.5 5.5t13.5 -5.5t5.5 -13.5t-5.5 -13.5t-13.5 -5.5z" />
    <glyph glyph-name="yacute" unicode="&#xfd;" horiz-adv-x="548" 
d="M66 -67q26 0 43 -17t17 -40q0 -14 -5.5 -25.5t-14 -20.5t-17.5 -15l-15 -10q18 -8 40 -8q47 0 82 40t64 112l24 58l-246 479h-53v12h289v-12h-90l165 -322l132 322h-100v12h182v-12h-69l-222 -540q-31 -75 -68.5 -118t-89.5 -43q-21 0 -40 6.5t-34 18.5t-24 28.5t-9 35.5
q0 29 18 44t41 15zM343 150l-172 336h-120l239 -465zM83 466h75l163 -317l-33 -79zM66 -79q-19 0 -33 -12t-14 -35q0 -21 12.5 -37.5t29.5 -25.5q3 2 12 7t18 13.5t16 19.5t7 25q0 19 -13.5 32t-34.5 13zM66 -99q12 0 20 -7t8 -18q0 -14 -11.5 -25t-21.5 -17
q-9 7 -15.5 17.5t-6.5 22.5q0 14 8 20.5t19 6.5zM249 587l152 101l7 -10l-152 -101z" />
    <glyph glyph-name="thorn" unicode="&#xfe;" horiz-adv-x="627" 
d="M82 -191v927h-90v12h223v-372q11 46 39 77q24 27 57 42t75 15q48 0 85 -20.5t62.5 -55t39 -81.5t13.5 -99q0 -62 -17 -111.5t-45 -84t-65 -52.5t-76 -18q-41 0 -75.5 15.5t-58.5 41.5q-23 25 -34 62v-298h90v-12h-313v12h90zM203 -191v927h-109v-927h109zM114 716h69
v-887h-69v887zM215 168q0 -35 12.5 -66t35 -53.5t53 -35.5t67.5 -13q31 0 57 10v480q-27 8 -54 8q-38 0 -68.5 -14t-53 -38t-35.5 -57t-14 -71v-150zM452 16q52 25 87 86t35 152q0 40 -8 76.5t-23.5 67t-38.5 53t-52 34.5v-469zM472 451q39 -29 60.5 -81t21.5 -116
q0 -70 -23 -121.5t-59 -80.5v399z" />
    <glyph glyph-name="ydieresis" unicode="&#xff;" horiz-adv-x="548" 
d="M66 -67q26 0 43 -17t17 -40q0 -14 -5.5 -25.5t-14 -20.5t-17.5 -15l-15 -10q18 -8 40 -8q47 0 82 40t64 112l24 58l-246 479h-53v12h289v-12h-90l165 -322l132 322h-100v12h182v-12h-69l-222 -540q-31 -75 -68.5 -118t-89.5 -43q-21 0 -40 6.5t-34 18.5t-24 28.5t-9 35.5
q0 29 18 44t41 15zM343 150l-172 336h-120l239 -465zM83 466h75l163 -317l-33 -79zM66 -79q-19 0 -33 -12t-14 -35q0 -21 12.5 -37.5t29.5 -25.5q3 2 12 7t18 13.5t16 19.5t7 25q0 19 -13.5 32t-34.5 13zM66 -99q12 0 20 -7t8 -18q0 -14 -11.5 -25t-21.5 -17
q-9 7 -15.5 17.5t-6.5 22.5q0 14 8 20.5t19 6.5zM386 581q-20 0 -35.5 15.5t-15.5 35.5t15.5 35.5t35.5 15.5t35.5 -15.5t15.5 -35.5t-15.5 -35.5t-35.5 -15.5zM191 581q-20 0 -35.5 15.5t-15.5 35.5t15.5 35.5t35.5 15.5t35.5 -15.5t15.5 -35.5t-15.5 -35.5t-35.5 -15.5z
M386 593q16 0 27.5 11.5t11.5 27.5t-11.5 27.5t-27.5 11.5t-27.5 -11.5t-11.5 -27.5t11.5 -27.5t27.5 -11.5zM191 593q16 0 27.5 11.5t11.5 27.5t-11.5 27.5t-27.5 11.5t-27.5 -11.5t-11.5 -27.5t11.5 -27.5t27.5 -11.5zM386 613q-8 0 -13.5 5.5t-5.5 13.5t5.5 13.5
t13.5 5.5t13.5 -5.5t5.5 -13.5t-5.5 -13.5t-13.5 -5.5zM191 613q-8 0 -13.5 5.5t-5.5 13.5t5.5 13.5t13.5 5.5t13.5 -5.5t5.5 -13.5t-5.5 -13.5t-13.5 -5.5z" />
    <glyph glyph-name="Amacron" unicode="&#x100;" horiz-adv-x="724" 
d="M-24 12h71l305 739h12l321 -739h63v-12h-307v12h95l-87 205h-303l-85 -205h107v-12h-192v12zM671 12l-313 721l-56 -136l248 -585h121zM563 32q-60 144 -120 282.5t-120 282.5l35 85q37 -86 72 -166.5t69.5 -160t69.5 -159t72 -164.5h-78zM444 229l-149 352l-144 -352
h293zM254 864h210v-12h-210v12z" />
    <glyph glyph-name="amacron" unicode="&#x101;" horiz-adv-x="562" 
d="M32 120q0 65 41 98.5t104 33.5h38q50 0 82 21t32 56v161q-29 8 -59 8q-35 0 -68.5 -7.5t-59.5 -21.5q5 -4 12.5 -11.5t15 -17t13 -20.5t5.5 -23q0 -26 -18 -41.5t-41 -15.5q-24 0 -41.5 16.5t-17.5 42.5q0 22 17.5 42.5t46 35.5t64 24t72.5 9q89 0 141 -53t52 -153v-298
q42 5 68.5 39t26.5 82h12q0 -28 -9 -52.5t-25 -42.5t-38 -28.5t-48 -10.5q-45 0 -76 27.5t-41 72.5q-5 -20 -14.5 -36.5t-24.5 -30.5q-20 -17 -48 -27.5t-65 -10.5q-38 0 -66 10t-46.5 28t-27.5 42t-9 52zM341 130q0 -27 8 -49.5t22.5 -39.5t34.5 -26.5t44 -9.5h1v299
q0 71 -29.5 117.5t-80.5 64.5v-356zM181 0q37 0 65 11t46.5 29.5t27.5 43.5t9 53v153q-16 -28 -50 -40q-26 -10 -64 -10h-41v-240h7zM361 454q32 -20 51 -58t19 -92v-277q-32 8 -51 36t-19 67v324zM44 120q0 -48 29 -81t89 -38v238q-53 -4 -85.5 -34t-32.5 -85zM64 120
q0 41 21.5 64.5t56.5 31.5v-192q-40 8 -59 34.5t-19 61.5zM129 352q18 0 32.5 12.5t14.5 32.5q0 12 -6 22.5t-13.5 19.5t-15 15.5t-10.5 8.5q-23 -14 -36 -30t-13 -34q0 -20 13.5 -33.5t33.5 -13.5zM129 372q-11 0 -19 7.5t-8 19.5q0 20 27 40q8 -8 17.5 -19t9.5 -23
q0 -11 -8 -18t-19 -7zM168 638h210v-12h-210v12z" />
    <glyph glyph-name="Abreve" unicode="&#x102;" horiz-adv-x="724" 
d="M-24 12h71l305 739h12l321 -739h63v-12h-307v12h95l-87 205h-303l-85 -205h107v-12h-192v12zM671 12l-313 721l-56 -136l248 -585h121zM563 32q-60 144 -120 282.5t-120 282.5l35 85q37 -86 72 -166.5t69.5 -160t69.5 -159t72 -164.5h-78zM444 229l-149 352l-144 -352
h293zM359 803q-23 0 -43.5 6.5t-36 18t-24.5 27t-9 33.5h12q0 -31 29.5 -52t71.5 -21t71.5 21t29.5 52h12q0 -18 -9 -33.5t-24.5 -27t-36 -18t-43.5 -6.5zM359 822q-24 0 -44.5 7.5t-33.5 21.5h155q-27 -29 -77 -29z" />
    <glyph glyph-name="abreve" unicode="&#x103;" horiz-adv-x="562" 
d="M32 120q0 65 41 98.5t104 33.5h38q50 0 82 21t32 56v161q-29 8 -59 8q-35 0 -68.5 -7.5t-59.5 -21.5q5 -4 12.5 -11.5t15 -17t13 -20.5t5.5 -23q0 -26 -18 -41.5t-41 -15.5q-24 0 -41.5 16.5t-17.5 42.5q0 22 17.5 42.5t46 35.5t64 24t72.5 9q89 0 141 -53t52 -153v-298
q42 5 68.5 39t26.5 82h12q0 -28 -9 -52.5t-25 -42.5t-38 -28.5t-48 -10.5q-45 0 -76 27.5t-41 72.5q-5 -20 -14.5 -36.5t-24.5 -30.5q-20 -17 -48 -27.5t-65 -10.5q-38 0 -66 10t-46.5 28t-27.5 42t-9 52zM341 130q0 -27 8 -49.5t22.5 -39.5t34.5 -26.5t44 -9.5h1v299
q0 71 -29.5 117.5t-80.5 64.5v-356zM181 0q37 0 65 11t46.5 29.5t27.5 43.5t9 53v153q-16 -28 -50 -40q-26 -10 -64 -10h-41v-240h7zM361 454q32 -20 51 -58t19 -92v-277q-32 8 -51 36t-19 67v324zM44 120q0 -48 29 -81t89 -38v238q-53 -4 -85.5 -34t-32.5 -85zM64 120
q0 41 21.5 64.5t56.5 31.5v-192q-40 8 -59 34.5t-19 61.5zM129 352q18 0 32.5 12.5t14.5 32.5q0 12 -6 22.5t-13.5 19.5t-15 15.5t-10.5 8.5q-23 -14 -36 -30t-13 -34q0 -20 13.5 -33.5t33.5 -13.5zM129 372q-11 0 -19 7.5t-8 19.5q0 20 27 40q8 -8 17.5 -19t9.5 -23
q0 -11 -8 -18t-19 -7zM281 566q-23 0 -43.5 6.5t-36 18t-24.5 27t-9 33.5h12q0 -31 29.5 -52t71.5 -21t71.5 21t29.5 52h12q0 -18 -9 -33.5t-24.5 -27t-36 -18t-43.5 -6.5zM281 585q-24 0 -44.5 7.5t-33.5 21.5h155q-27 -29 -77 -29z" />
    <glyph glyph-name="Aogonek" unicode="&#x104;" horiz-adv-x="724" 
d="M-24 12h71l305 739h12l321 -739h63v-12q-28 -19 -50 -41q-19 -19 -34 -43.5t-15 -51.5q0 -29 20.5 -48t68.5 -19v-12q-54 0 -77.5 23t-23.5 56q0 23 10 44t24.5 39t29.5 31.5t26 21.5h-286v12h95l-87 205h-303l-85 -205h107v-12h-192v12zM671 12l-313 721l-56 -136
l248 -585h121zM323 597l35 85l283 -650h-78zM444 229l-149 352l-144 -352h293z" />
    <glyph glyph-name="aogonek" unicode="&#x105;" horiz-adv-x="562" 
d="M32 120q0 65 41 98.5t104 33.5h38q50 0 82 21t32 56v161q-29 8 -59 8q-35 0 -68.5 -7.5t-59.5 -21.5q5 -4 12.5 -11.5t15 -17t13 -20.5t5.5 -23q0 -26 -18 -41.5t-41 -15.5q-24 0 -41.5 16.5t-17.5 42.5q0 22 17.5 42.5t46 35.5t64 24t72.5 9q89 0 141 -53t52 -153v-298
q42 5 68.5 39t26.5 82h12q0 -45 -22 -79t-58 -48q-28 -19 -50 -41q-19 -19 -34 -43.5t-15 -51.5q0 -29 20.5 -48t68.5 -19v-12q-54 0 -77.5 23t-23.5 56q0 21 8.5 40.5t21 36t26.5 30.5t26 23q-4 -1 -11 -1q-45 0 -76 27.5t-41 72.5q-5 -20 -14.5 -36.5t-24.5 -30.5
q-20 -17 -48 -27.5t-65 -10.5q-38 0 -66 10t-46.5 28t-27.5 42t-9 52zM341 130q0 -27 8 -49.5t22.5 -39.5t34.5 -26.5t44 -9.5h1v299q0 71 -29.5 117.5t-80.5 64.5v-356zM129 352q18 0 32.5 12.5t14.5 32.5q0 12 -6 22.5t-13.5 19.5t-15 15.5t-10.5 8.5q-23 -14 -36 -30
t-13 -34q0 -20 13.5 -33.5t33.5 -13.5zM361 454q32 -20 51 -58t19 -92v-277q-32 8 -51 36t-19 67v324zM129 372q-11 0 -19 7.5t-8 19.5q0 20 27 40q8 -8 17.5 -19t9.5 -23q0 -11 -8 -18t-19 -7zM181 0q37 0 65 11t46.5 29.5t27.5 43.5t9 53v153q-16 -28 -50 -40
q-26 -10 -64 -10h-41v-240h7zM44 120q0 -48 29 -81t89 -38v238q-53 -4 -85.5 -34t-32.5 -85zM64 120q0 41 21.5 64.5t56.5 31.5v-192q-40 8 -59 34.5t-19 61.5z" />
    <glyph glyph-name="Cacute" unicode="&#x106;" horiz-adv-x="802" 
d="M217 64q42 -31 95 -47.5t115 -16.5q76 0 132.5 24.5t95 62t59 82.5t26.5 86l12 -2q-6 -43 -27.5 -89.5t-61 -85.5t-98.5 -64.5t-138 -25.5q-86 0 -154.5 30.5t-116.5 83.5t-74 124t-26 152q0 82 29.5 152t81 121t120 80t146.5 29q55 0 101 -13.5t81 -32t59.5 -37.5
t36.5 -31v111h12v-194h-12v65q-3 3 -23 22.5t-56 41t-86 39t-113 17.5q-61 0 -116 -18.5t-100 -51.5v-614zM205 669q-63 -50 -100 -124.5t-37 -166.5q0 -94 35.5 -173.5t101.5 -131.5v596zM185 118q-46 49 -71.5 116t-25.5 144q0 75 26 138t71 109v-507zM390 813l152 101
l7 -10l-152 -101z" />
    <glyph glyph-name="cacute" unicode="&#x107;" horiz-adv-x="526" 
d="M179 25q48 -25 107 -25q57 0 94.5 21t60.5 47q26 30 42 69l12 -4q-16 -41 -44 -73q-24 -27 -64.5 -49.5t-100.5 -22.5q-54 0 -99.5 20.5t-78.5 56t-51 83t-18 100.5q0 56 20 104t54.5 83t80.5 55t99 20q33 0 67.5 -8t62.5 -22.5t45.5 -35t17.5 -45.5q0 -26 -18 -42.5
t-41 -16.5t-41 17t-18 42q0 22 15 41t32 30q-26 13 -58.5 20.5t-63.5 7.5q-61 0 -114 -28v-445zM380 399q0 -20 14 -33.5t33 -13.5t33 13.5t14 33.5q0 19 -13 35.5t-35 29.5q-14 -8 -30 -26t-16 -39zM167 462q-53 -32 -84.5 -87.5t-31.5 -126.5q0 -69 31 -126.5t85 -89.5
v430zM400 399q0 12 8 23t18 19q28 -19 28 -42q0 -12 -8 -19.5t-19 -7.5t-19 7.5t-8 19.5zM147 71q-36 32 -56 77.5t-20 99.5q0 56 20 100t56 75v-352zM245 587l152 101l7 -10l-152 -101z" />
    <glyph glyph-name="Ccircumflex" unicode="&#x108;" horiz-adv-x="802" 
d="M217 64q42 -31 95 -47.5t115 -16.5q76 0 132.5 24.5t95 62t59 82.5t26.5 86l12 -2q-6 -43 -27.5 -89.5t-61 -85.5t-98.5 -64.5t-138 -25.5q-86 0 -154.5 30.5t-116.5 83.5t-74 124t-26 152q0 82 29.5 152t81 121t120 80t146.5 29q55 0 101 -13.5t81 -32t59.5 -37.5
t36.5 -31v111h12v-194h-12v65q-3 3 -23 22.5t-56 41t-86 39t-113 17.5q-61 0 -116 -18.5t-100 -51.5v-614zM205 669q-63 -50 -100 -124.5t-37 -166.5q0 -94 35.5 -173.5t101.5 -131.5v596zM185 118q-46 49 -71.5 116t-25.5 144q0 75 26 138t71 109v-507zM305 813l124 103
l124 -103l-8 -10l-116 97l-116 -97z" />
    <glyph glyph-name="ccircumflex" unicode="&#x109;" horiz-adv-x="526" 
d="M179 25q48 -25 107 -25q57 0 94.5 21t60.5 47q26 30 42 69l12 -4q-16 -41 -44 -73q-24 -27 -64.5 -49.5t-100.5 -22.5q-54 0 -99.5 20.5t-78.5 56t-51 83t-18 100.5q0 56 20 104t54.5 83t80.5 55t99 20q33 0 67.5 -8t62.5 -22.5t45.5 -35t17.5 -45.5q0 -26 -18 -42.5
t-41 -16.5t-41 17t-18 42q0 22 15 41t32 30q-26 13 -58.5 20.5t-63.5 7.5q-61 0 -114 -28v-445zM380 399q0 -20 14 -33.5t33 -13.5t33 13.5t14 33.5q0 19 -13 35.5t-35 29.5q-14 -8 -30 -26t-16 -39zM167 462q-53 -32 -84.5 -87.5t-31.5 -126.5q0 -69 31 -126.5t85 -89.5
v430zM400 399q0 12 8 23t18 19q28 -19 28 -42q0 -12 -8 -19.5t-19 -7.5t-19 7.5t-8 19.5zM147 71q-36 32 -56 77.5t-20 99.5q0 56 20 100t56 75v-352zM160 587l124 103l124 -103l-8 -10l-116 97l-116 -97z" />
    <glyph glyph-name="Cdotaccent" unicode="&#x10a;" horiz-adv-x="802" 
d="M217 64q42 -31 95 -47.5t115 -16.5q76 0 132.5 24.5t95 62t59 82.5t26.5 86l12 -2q-6 -43 -27.5 -89.5t-61 -85.5t-98.5 -64.5t-138 -25.5q-86 0 -154.5 30.5t-116.5 83.5t-74 124t-26 152q0 82 29.5 152t81 121t120 80t146.5 29q55 0 101 -13.5t81 -32t59.5 -37.5
t36.5 -31v111h12v-194h-12v65q-3 3 -23 22.5t-56 41t-86 39t-113 17.5q-61 0 -116 -18.5t-100 -51.5v-614zM205 669q-63 -50 -100 -124.5t-37 -166.5q0 -94 35.5 -173.5t101.5 -131.5v596zM185 118q-46 49 -71.5 116t-25.5 144q0 75 26 138t71 109v-507zM429 802
q-26 0 -46 20t-20 46t20 46t46 20t46 -20t20 -46t-20 -46t-46 -20zM429 814q22 0 38 16t16 38t-16 38t-38 16t-38 -16t-16 -38t16 -38t38 -16zM429 834q-14 0 -24 10t-10 24t10 24t24 10t24 -10t10 -24t-10 -24t-24 -10z" />
    <glyph glyph-name="cdotaccent" unicode="&#x10b;" horiz-adv-x="526" 
d="M179 25q48 -25 107 -25q57 0 94.5 21t60.5 47q26 30 42 69l12 -4q-16 -41 -44 -73q-24 -27 -64.5 -49.5t-100.5 -22.5q-54 0 -99.5 20.5t-78.5 56t-51 83t-18 100.5q0 56 20 104t54.5 83t80.5 55t99 20q33 0 67.5 -8t62.5 -22.5t45.5 -35t17.5 -45.5q0 -26 -18 -42.5
t-41 -16.5t-41 17t-18 42q0 22 15 41t32 30q-26 13 -58.5 20.5t-63.5 7.5q-61 0 -114 -28v-445zM380 399q0 -20 14 -33.5t33 -13.5t33 13.5t14 33.5q0 19 -13 35.5t-35 29.5q-14 -8 -30 -26t-16 -39zM167 462q-53 -32 -84.5 -87.5t-31.5 -126.5q0 -69 31 -126.5t85 -89.5
v430zM400 399q0 12 8 23t18 19q28 -19 28 -42q0 -12 -8 -19.5t-19 -7.5t-19 7.5t-8 19.5zM147 71q-36 32 -56 77.5t-20 99.5q0 56 20 100t56 75v-352zM284 576q-26 0 -46 20t-20 46t20 46t46 20t46 -20t20 -46t-20 -46t-46 -20zM284 588q22 0 38 16t16 38t-16 38t-38 16
t-38 -16t-16 -38t16 -38t38 -16zM284 608q-14 0 -24 10t-10 24t10 24t24 10t24 -10t10 -24t-10 -24t-24 -10z" />
    <glyph glyph-name="Ccaron" unicode="&#x10c;" horiz-adv-x="802" 
d="M217 64q42 -31 95 -47.5t115 -16.5q76 0 132.5 24.5t95 62t59 82.5t26.5 86l12 -2q-6 -43 -27.5 -89.5t-61 -85.5t-98.5 -64.5t-138 -25.5q-86 0 -154.5 30.5t-116.5 83.5t-74 124t-26 152q0 82 29.5 152t81 121t120 80t146.5 29q55 0 101 -13.5t81 -32t59.5 -37.5
t36.5 -31v111h12v-194h-12v65q-3 3 -23 22.5t-56 41t-86 39t-113 17.5q-61 0 -116 -18.5t-100 -51.5v-614zM205 669q-63 -50 -100 -124.5t-37 -166.5q0 -94 35.5 -173.5t101.5 -131.5v596zM185 118q-46 49 -71.5 116t-25.5 144q0 75 26 138t71 109v-507zM305 901l8 10
l116 -97l116 97l8 -10l-124 -103z" />
    <glyph glyph-name="ccaron" unicode="&#x10d;" horiz-adv-x="526" 
d="M179 25q48 -25 107 -25q57 0 94.5 21t60.5 47q26 30 42 69l12 -4q-16 -41 -44 -73q-24 -27 -64.5 -49.5t-100.5 -22.5q-54 0 -99.5 20.5t-78.5 56t-51 83t-18 100.5q0 56 20 104t54.5 83t80.5 55t99 20q33 0 67.5 -8t62.5 -22.5t45.5 -35t17.5 -45.5q0 -26 -18 -42.5
t-41 -16.5t-41 17t-18 42q0 22 15 41t32 30q-26 13 -58.5 20.5t-63.5 7.5q-61 0 -114 -28v-445zM380 399q0 -20 14 -33.5t33 -13.5t33 13.5t14 33.5q0 19 -13 35.5t-35 29.5q-14 -8 -30 -26t-16 -39zM167 462q-53 -32 -84.5 -87.5t-31.5 -126.5q0 -69 31 -126.5t85 -89.5
v430zM400 399q0 12 8 23t18 19q28 -19 28 -42q0 -12 -8 -19.5t-19 -7.5t-19 7.5t-8 19.5zM147 71q-36 32 -56 77.5t-20 99.5q0 56 20 100t56 75v-352zM160 675l8 10l116 -97l116 97l8 -10l-124 -103z" />
    <glyph glyph-name="Dcaron" unicode="&#x10e;" horiz-adv-x="851" 
d="M46 12h95v724h-95v12h361q85 0 156.5 -29.5t123 -80t80 -118t28.5 -144.5q0 -78 -28.5 -146.5t-80 -119.5t-123 -80.5t-156.5 -29.5h-361v12zM407 12q66 0 124 18.5t105 52.5v582q-47 34 -105 52.5t-124 18.5h-128v-724h128zM267 12v724h-114v-724h114zM173 716h74v-684
h-74v684zM648 92q63 50 99 123.5t36 160.5q0 85 -36 157.5t-99 122.5v-564zM668 612q45 -46 70 -106.5t25 -129.5q0 -144 -95 -239v475zM273 901l8 10l116 -97l116 97l8 -10l-124 -103z" />
    <glyph glyph-name="dcaron" unicode="&#x10f;" horiz-adv-x="659" 
d="M242 -12q-48 0 -85.5 21.5t-63 58t-39 84.5t-13.5 101q0 62 17 110t45.5 80.5t65.5 49.5t78 17q38 0 70.5 -14t55.5 -37q14 -14 23.5 -31t15.5 -37v345h-90v12h223v-742q42 5 69 39t27 82h12q0 -28 -9 -52.5t-25 -42.5t-38.5 -28.5t-48.5 -10.5q-25 0 -46.5 9.5t-37 27
t-25.5 41t-11 50.5q-16 -59 -58 -94q-23 -18 -50.5 -28.5t-61.5 -10.5zM424 130q0 -54 30.5 -89.5t78.5 -35.5v731h-109v-606zM444 716h69v-689q-31 8 -50 36t-19 67v586zM186 9q25 -9 56 -9q39 0 70 15t53.5 40.5t34.5 60.5t12 76v146q-2 33 -15 62.5t-34.5 51t-51.5 34
t-64 12.5q-31 0 -61 -11v-478zM174 482q-53 -23 -87 -81t-34 -149q0 -41 8 -78t23 -68.5t37.5 -55.5t52.5 -37v469zM154 47q-40 30 -60.5 85t-20.5 120q0 72 22 121t59 75v-401zM633 706q0 21 14.5 37.5t39.5 16.5q33 0 48 -23t15 -51q0 -17 -7 -33.5t-20.5 -29t-33.5 -20
t-45 -7.5v12q37 0 60.5 17.5t30.5 41.5q-8 -6 -20 -10t-27 -4q-26 0 -40.5 16.5t-14.5 36.5zM645 706q0 -16 11.5 -28.5t31.5 -12.5q17 0 29.5 5.5t20.5 13.5v2q0 23 -12 42.5t-39 19.5q-19 0 -30.5 -12.5t-11.5 -29.5zM665 706q0 9 6 15.5t16 6.5q14 0 21.5 -10t9.5 -24
q-5 -4 -13 -6.5t-17 -2.5q-11 0 -17 6.5t-6 14.5z" />
    <glyph glyph-name="Dcroat" unicode="&#x110;" horiz-adv-x="851" 
d="M46 12h95v363h-95v12h95v349h-95v12h361q85 0 156.5 -29.5t123 -80t80 -118t28.5 -144.5q0 -78 -28.5 -146.5t-80 -119.5t-123 -80.5t-156.5 -29.5h-361v12zM407 12q66 0 124 18.5t105 52.5v582q-47 34 -105 52.5t-124 18.5h-128v-349h190v-12h-190v-363h128zM267 12v724
h-114v-724h114zM173 716h74v-684h-74v684zM648 92q63 50 99 123.5t36 160.5q0 85 -36 157.5t-99 122.5v-564zM668 612q45 -46 70 -106.5t25 -129.5q0 -144 -95 -239v475z" />
    <glyph glyph-name="dcroat" unicode="&#x111;" horiz-adv-x="659" 
d="M242 -12q-48 0 -85.5 21.5t-63 58t-39 84.5t-13.5 101q0 62 17 110t45.5 80.5t65.5 49.5t78 17q38 0 70.5 -14t55.5 -37q14 -14 23.5 -31t15.5 -37v228h-171v12h171v105h-90v12h223v-117h99v-12h-99v-613q42 5 69 39t27 82h12q0 -28 -9 -52.5t-25 -42.5t-38.5 -28.5
t-48.5 -10.5q-25 0 -46.5 9.5t-37 27t-25.5 41t-11 50.5q-16 -59 -58 -94q-23 -18 -50.5 -28.5t-61.5 -10.5zM424 130q0 -54 30.5 -89.5t78.5 -35.5v731h-109v-606zM444 716h69v-689q-31 8 -50 36t-19 67v586zM186 9q25 -9 56 -9q39 0 70 15t53.5 40.5t34.5 60.5t12 76v146
q-2 33 -15 62.5t-34.5 51t-51.5 34t-64 12.5q-31 0 -61 -11v-478zM174 482q-53 -23 -87 -81t-34 -149q0 -41 8 -78t23 -68.5t37.5 -55.5t52.5 -37v469zM154 47q-40 30 -60.5 85t-20.5 120q0 72 22 121t59 75v-401z" />
    <glyph glyph-name="Emacron" unicode="&#x112;" horiz-adv-x="726" 
d="M46 12h95v724h-95v12h602v-185h-12v173h-357v-354h249v109h12v-226h-12v105h-249v-358h367v178h12v-190h-612v12zM267 12v724h-114v-724h114zM173 716h74v-684h-74v684zM269 864h210v-12h-210v12z" />
    <glyph glyph-name="emacron" unicode="&#x113;" horiz-adv-x="544" 
d="M180 25q48 -25 107 -25q56 0 94.5 21t61.5 47q27 30 43 69l12 -4q-17 -41 -46 -73q-25 -27 -65 -49.5t-100 -22.5q-54 0 -99.5 21t-78.5 56.5t-51.5 82.5t-18.5 100q0 55 19 102.5t52 83t77.5 56t95.5 20.5q48 0 88.5 -18.5t70.5 -51t48 -76.5t21 -94h-331v-245zM360 282
v202q-37 14 -77 14q-56 0 -103 -26v-190h180zM498 282q-6 67 -39 119t-87 77v-196h126zM168 466q-53 -32 -85 -89.5t-32 -128.5q0 -69 31.5 -126.5t85.5 -89.5v434zM392 444q32 -23 54 -60t30 -82h-84v142zM148 70q-37 32 -57 78t-20 100t21 100.5t56 78.5v-357zM176 638
h210v-12h-210v12z" />
    <glyph glyph-name="Ebreve" unicode="&#x114;" horiz-adv-x="726" 
d="M46 12h95v724h-95v12h602v-185h-12v173h-357v-354h249v109h12v-226h-12v105h-249v-358h367v178h12v-190h-612v12zM267 12v724h-114v-724h114zM173 716h74v-684h-74v684zM374 818q-23 0 -43.5 6.5t-36 18t-24.5 27t-9 33.5h12q0 -31 29.5 -52t71.5 -21t71.5 21t29.5 52h12
q0 -18 -9 -33.5t-24.5 -27t-36 -18t-43.5 -6.5z" />
    <glyph glyph-name="ebreve" unicode="&#x115;" horiz-adv-x="544" 
d="M180 25q48 -25 107 -25q56 0 94.5 21t61.5 47q27 30 43 69l12 -4q-17 -41 -46 -73q-25 -27 -65 -49.5t-100 -22.5q-54 0 -99.5 21t-78.5 56.5t-51.5 82.5t-18.5 100q0 55 19 102.5t52 83t77.5 56t95.5 20.5q48 0 88.5 -18.5t70.5 -51t48 -76.5t21 -94h-331v-245zM360 282
v202q-37 14 -77 14q-56 0 -103 -26v-190h180zM498 282q-6 67 -39 119t-87 77v-196h126zM168 466q-53 -32 -85 -89.5t-32 -128.5q0 -69 31.5 -126.5t85.5 -89.5v434zM392 444q32 -23 54 -60t30 -82h-84v142zM148 70q-37 32 -57 78t-20 100t21 100.5t56 78.5v-357zM281 592
q-23 0 -43.5 6.5t-36 18t-24.5 27t-9 33.5h12q0 -31 29.5 -52t71.5 -21t71.5 21t29.5 52h12q0 -18 -9 -33.5t-24.5 -27t-36 -18t-43.5 -6.5z" />
    <glyph glyph-name="Edotaccent" unicode="&#x116;" horiz-adv-x="726" 
d="M46 12h95v724h-95v12h602v-185h-12v173h-357v-354h249v109h12v-226h-12v105h-249v-358h367v178h12v-190h-612v12zM267 12v724h-114v-724h114zM173 716h74v-684h-74v684zM374 802q-26 0 -46 20t-20 46t20 46t46 20t46 -20t20 -46t-20 -46t-46 -20zM374 814q22 0 38 16
t16 38t-16 38t-38 16t-38 -16t-16 -38t16 -38t38 -16zM374 834q-14 0 -24 10t-10 24t10 24t24 10t24 -10t10 -24t-10 -24t-24 -10z" />
    <glyph glyph-name="edotaccent" unicode="&#x117;" horiz-adv-x="544" 
d="M180 25q48 -25 107 -25q56 0 94.5 21t61.5 47q27 30 43 69l12 -4q-17 -41 -46 -73q-25 -27 -65 -49.5t-100 -22.5q-54 0 -99.5 21t-78.5 56.5t-51.5 82.5t-18.5 100q0 55 19 102.5t52 83t77.5 56t95.5 20.5q48 0 88.5 -18.5t70.5 -51t48 -76.5t21 -94h-331v-245zM360 282
v202q-37 14 -77 14q-56 0 -103 -26v-190h180zM498 282q-6 67 -39 119t-87 77v-196h126zM168 466q-53 -32 -85 -89.5t-32 -128.5q0 -69 31.5 -126.5t85.5 -89.5v434zM392 444q32 -23 54 -60t30 -82h-84v142zM148 70q-37 32 -57 78t-20 100t21 100.5t56 78.5v-357zM281 576
q-26 0 -46 20t-20 46t20 46t46 20t46 -20t20 -46t-20 -46t-46 -20zM281 588q22 0 38 16t16 38t-16 38t-38 16t-38 -16t-16 -38t16 -38t38 -16zM281 608q-14 0 -24 10t-10 24t10 24t24 10t24 -10t10 -24t-10 -24t-24 -10z" />
    <glyph glyph-name="Eogonek" unicode="&#x118;" horiz-adv-x="726" 
d="M46 12h95v724h-95v12h602v-185h-12v173h-357v-354h249v109h12v-226h-12v105h-249v-358h367v178h12v-190h-2q-28 -19 -50 -41q-19 -19 -34 -43.5t-15 -51.5q0 -29 20.5 -48t68.5 -19v-12q-54 0 -77.5 23t-23.5 56q0 23 10 44t24.5 39t29.5 31.5t26 21.5h-589v12zM267 12
v724h-114v-724h114zM173 716h74v-684h-74v684z" />
    <glyph glyph-name="eogonek" unicode="&#x119;" horiz-adv-x="544" 
d="M180 25q48 -25 107 -25q56 0 94.5 21t61.5 47q27 30 43 69l12 -4q-12 -27 -30 -53q-16 -22 -41.5 -44.5t-63.5 -35.5q-28 -19 -50 -41q-19 -19 -34 -43.5t-15 -51.5q0 -29 20.5 -48t68.5 -19v-12q-54 0 -77.5 23t-23.5 56q0 21 8.5 40t20.5 35.5t26 30t26 22.5
q-11 -2 -22.5 -3t-23.5 -1q-54 0 -99.5 21t-78.5 56.5t-51.5 82.5t-18.5 100q0 55 19 102.5t52 83t77.5 56t95.5 20.5q48 0 88.5 -18.5t70.5 -51t48 -76.5t21 -94h-331v-245zM360 282v202q-37 14 -77 14q-56 0 -103 -26v-190h180zM498 282q-6 67 -39 119t-87 77v-196h126z
M168 466q-53 -32 -85 -89.5t-32 -128.5q0 -69 31.5 -126.5t85.5 -89.5v434zM392 444q32 -23 54 -60t30 -82h-84v142zM148 70q-37 32 -57 78t-20 100t21 100.5t56 78.5v-357z" />
    <glyph glyph-name="Ecaron" unicode="&#x11a;" horiz-adv-x="726" 
d="M46 12h95v724h-95v12h602v-185h-12v173h-357v-354h249v109h12v-226h-12v105h-249v-358h367v178h12v-190h-612v12zM267 12v724h-114v-724h114zM173 716h74v-684h-74v684zM250 901l8 10l116 -97l116 97l8 -10l-124 -103z" />
    <glyph glyph-name="ecaron" unicode="&#x11b;" horiz-adv-x="544" 
d="M180 25q48 -25 107 -25q56 0 94.5 21t61.5 47q27 30 43 69l12 -4q-17 -41 -46 -73q-25 -27 -65 -49.5t-100 -22.5q-54 0 -99.5 21t-78.5 56.5t-51.5 82.5t-18.5 100q0 55 19 102.5t52 83t77.5 56t95.5 20.5q48 0 88.5 -18.5t70.5 -51t48 -76.5t21 -94h-331v-245zM360 282
v202q-37 14 -77 14q-56 0 -103 -26v-190h180zM498 282q-6 67 -39 119t-87 77v-196h126zM168 466q-53 -32 -85 -89.5t-32 -128.5q0 -69 31.5 -126.5t85.5 -89.5v434zM392 444q32 -23 54 -60t30 -82h-84v142zM148 70q-37 32 -57 78t-20 100t21 100.5t56 78.5v-357zM157 675
l8 10l116 -97l116 97l8 -10l-124 -103z" />
    <glyph glyph-name="Gcircumflex" unicode="&#x11c;" horiz-adv-x="855" 
d="M217 71q45 -34 100.5 -52.5t119.5 -18.5q58 0 95 12.5t64 26.5q5 2 8.5 4t8.5 4v269h-95v12h303v-12h-70v-313h-12q-16 26 -35 36.5t-37 10.5q-16 0 -32 -6.5t-33 -14.5q-29 -14 -68 -27.5t-97 -13.5q-84 0 -154 31t-120.5 84.5t-78.5 124.5t-28 152q0 82 29 151.5
t81 120.5t124.5 79.5t159.5 28.5q59 0 105 -12.5t79 -30t54 -35.5t31 -29v104h12v-194h-12v72q-25 31 -64 56q-33 21 -83.5 39t-121.5 18q-69 0 -127 -18.5t-106 -51.5v-607zM205 669q-65 -50 -101 -124t-36 -165t36 -169t101 -130v588zM185 127q-47 49 -72 114t-25 139
q0 75 25 136.5t72 108.5v-498zM625 52q11 5 21 7.5t21 2.5q17 0 37 -9t35 -29v292h-114v-264zM645 296h74v-228q-14 8 -26.5 11t-25.5 3q-10 0 -22 -3v217zM321 813l124 103l124 -103l-8 -10l-116 97l-116 -97z" />
    <glyph glyph-name="gcircumflex" unicode="&#x11d;" horiz-adv-x="541" 
d="M80 10q-28 33 -28 82t26.5 79.5t61.5 43.5q-37 23 -55.5 57t-18.5 74q0 34 13.5 64t40.5 52t66 35t90 13q33 0 61 -5.5t51 -15.5q44 5 82 20q-6 4 -13.5 11t-15 16t-12.5 20.5t-5 23.5q0 22 16.5 39t42.5 17q25 0 42 -16.5t17 -42.5q0 -21 -12 -37.5t-31 -28.5
t-43.5 -19.5t-49.5 -11.5q40 -23 60.5 -57.5t20.5 -76.5q0 -33 -13.5 -63t-40.5 -52.5t-66.5 -35.5t-90.5 -13q-72 0 -122 25q-17 -5 -33.5 -14.5t-29 -24t-20 -33.5t-7.5 -43v-8h271q55 0 92.5 -11t60 -29t32 -41.5t9.5 -48.5q0 -38 -19 -69t-53 -53t-80.5 -34.5
t-101.5 -12.5q-52 0 -95 12t-73.5 32t-47.5 46t-17 55q0 48 38 80zM482 515q21 11 34.5 26.5t13.5 35.5t-13.5 33.5t-33.5 13.5t-33.5 -13.5t-13.5 -30.5q0 -12 6 -23t13.5 -19.5t15.5 -14.5t11 -8zM483 539q-8 7 -17.5 17.5t-9.5 23.5q0 10 7.5 17t19.5 7t19.5 -7.5
t7.5 -19.5q0 -11 -8 -20.5t-19 -17.5zM190 206q37 -12 86 -12t87 12v279q-19 6 -40.5 9.5t-46.5 3.5q-49 0 -86 -12v-280zM375 210q49 20 74.5 55.5t25.5 80.5t-25.5 80.5t-74.5 54.5v-271zM178 481q-49 -19 -74.5 -54.5t-25.5 -80.5t25.5 -81t74.5 -55v271zM395 449
q30 -18 45 -44.5t15 -58.5t-15 -58t-45 -45v206zM158 242q-30 18 -45 45t-15 59t15 59t45 44v-207zM65 72q8 -45 42 -71t80 -26h328q-4 19 -15.5 37t-33 31t-54 21t-77.5 8h-270zM335 52q66 0 101.5 -16.5t49.5 -40.5h-299q-33 0 -58.5 14t-36.5 43h243zM88 2
q-34 -30 -34 -72q0 -27 16 -51t45.5 -42t70 -29t89.5 -11q53 0 97.5 11.5t76.5 32.5t50 49.5t18 63.5q0 2 -0.5 4.5t-0.5 4.5h-329q-60 0 -99 39zM138 587l124 103l124 -103l-8 -10l-116 97l-116 -97z" />
    <glyph glyph-name="Gbreve" unicode="&#x11e;" horiz-adv-x="855" 
d="M217 71q45 -34 100.5 -52.5t119.5 -18.5q58 0 95 12.5t64 26.5q5 2 8.5 4t8.5 4v269h-95v12h303v-12h-70v-313h-12q-16 26 -35 36.5t-37 10.5q-16 0 -32 -6.5t-33 -14.5q-29 -14 -68 -27.5t-97 -13.5q-84 0 -154 31t-120.5 84.5t-78.5 124.5t-28 152q0 82 29 151.5
t81 120.5t124.5 79.5t159.5 28.5q59 0 105 -12.5t79 -30t54 -35.5t31 -29v104h12v-194h-12v72q-25 31 -64 56q-33 21 -83.5 39t-121.5 18q-69 0 -127 -18.5t-106 -51.5v-607zM205 669q-65 -50 -101 -124t-36 -165t36 -169t101 -130v588zM185 127q-47 49 -72 114t-25 139
q0 75 25 136.5t72 108.5v-498zM625 52q11 5 21 7.5t21 2.5q17 0 37 -9t35 -29v292h-114v-264zM645 296h74v-228q-14 8 -26.5 11t-25.5 3q-10 0 -22 -3v217zM445 818q-23 0 -43.5 6.5t-36 18t-24.5 27t-9 33.5h12q0 -31 29.5 -52t71.5 -21t71.5 21t29.5 52h12q0 -18 -9 -33.5
t-24.5 -27t-36 -18t-43.5 -6.5z" />
    <glyph glyph-name="gbreve" unicode="&#x11f;" horiz-adv-x="541" 
d="M80 10q-28 33 -28 82t26.5 79.5t61.5 43.5q-37 23 -55.5 57t-18.5 74q0 34 13.5 64t40.5 52t66 35t90 13q33 0 61 -5.5t51 -15.5q44 5 82 20q-6 4 -13.5 11t-15 16t-12.5 20.5t-5 23.5q0 22 16.5 39t42.5 17q25 0 42 -16.5t17 -42.5q0 -21 -12 -37.5t-31 -28.5
t-43.5 -19.5t-49.5 -11.5q40 -23 60.5 -57.5t20.5 -76.5q0 -33 -13.5 -63t-40.5 -52.5t-66.5 -35.5t-90.5 -13q-72 0 -122 25q-17 -5 -33.5 -14.5t-29 -24t-20 -33.5t-7.5 -43v-8h271q55 0 92.5 -11t60 -29t32 -41.5t9.5 -48.5q0 -38 -19 -69t-53 -53t-80.5 -34.5
t-101.5 -12.5q-52 0 -95 12t-73.5 32t-47.5 46t-17 55q0 48 38 80zM482 515q21 11 34.5 26.5t13.5 35.5t-13.5 33.5t-33.5 13.5t-33.5 -13.5t-13.5 -30.5q0 -12 6 -23t13.5 -19.5t15.5 -14.5t11 -8zM483 539q-8 7 -17.5 17.5t-9.5 23.5q0 10 7.5 17t19.5 7t19.5 -7.5
t7.5 -19.5q0 -11 -8 -20.5t-19 -17.5zM190 206q37 -12 86 -12t87 12v279q-19 6 -40.5 9.5t-46.5 3.5q-49 0 -86 -12v-280zM375 210q49 20 74.5 55.5t25.5 80.5t-25.5 80.5t-74.5 54.5v-271zM178 481q-49 -19 -74.5 -54.5t-25.5 -80.5t25.5 -81t74.5 -55v271zM395 449
q30 -18 45 -44.5t15 -58.5t-15 -58t-45 -45v206zM158 242q-30 18 -45 45t-15 59t15 59t45 44v-207zM65 72q8 -45 42 -71t80 -26h328q-4 19 -15.5 37t-33 31t-54 21t-77.5 8h-270zM335 52q66 0 101.5 -16.5t49.5 -40.5h-299q-33 0 -58.5 14t-36.5 43h243zM88 2
q-34 -30 -34 -72q0 -27 16 -51t45.5 -42t70 -29t89.5 -11q53 0 97.5 11.5t76.5 32.5t50 49.5t18 63.5q0 2 -0.5 4.5t-0.5 4.5h-329q-60 0 -99 39zM277 592q-23 0 -43.5 6.5t-36 18t-24.5 27t-9 33.5h12q0 -31 29.5 -52t71.5 -21t71.5 21t29.5 52h12q0 -18 -9 -33.5
t-24.5 -27t-36 -18t-43.5 -6.5z" />
    <glyph glyph-name="Gdotaccent" unicode="&#x120;" horiz-adv-x="855" 
d="M217 71q45 -34 100.5 -52.5t119.5 -18.5q58 0 95 12.5t64 26.5q5 2 8.5 4t8.5 4v269h-95v12h303v-12h-70v-313h-12q-16 26 -35 36.5t-37 10.5q-16 0 -32 -6.5t-33 -14.5q-29 -14 -68 -27.5t-97 -13.5q-84 0 -154 31t-120.5 84.5t-78.5 124.5t-28 152q0 82 29 151.5
t81 120.5t124.5 79.5t159.5 28.5q59 0 105 -12.5t79 -30t54 -35.5t31 -29v104h12v-194h-12v72q-25 31 -64 56q-33 21 -83.5 39t-121.5 18q-69 0 -127 -18.5t-106 -51.5v-607zM205 669q-65 -50 -101 -124t-36 -165t36 -169t101 -130v588zM185 127q-47 49 -72 114t-25 139
q0 75 25 136.5t72 108.5v-498zM625 52q11 5 21 7.5t21 2.5q17 0 37 -9t35 -29v292h-114v-264zM645 296h74v-228q-14 8 -26.5 11t-25.5 3q-10 0 -22 -3v217zM445 802q-26 0 -46 20t-20 46t20 46t46 20t46 -20t20 -46t-20 -46t-46 -20zM445 814q22 0 38 16t16 38t-16 38
t-38 16t-38 -16t-16 -38t16 -38t38 -16zM445 834q-14 0 -24 10t-10 24t10 24t24 10t24 -10t10 -24t-10 -24t-24 -10z" />
    <glyph glyph-name="gdotaccent" unicode="&#x121;" horiz-adv-x="541" 
d="M80 10q-28 33 -28 82t26.5 79.5t61.5 43.5q-37 23 -55.5 57t-18.5 74q0 34 13.5 64t40.5 52t66 35t90 13q33 0 61 -5.5t51 -15.5q44 5 82 20q-6 4 -13.5 11t-15 16t-12.5 20.5t-5 23.5q0 22 16.5 39t42.5 17q25 0 42 -16.5t17 -42.5q0 -21 -12 -37.5t-31 -28.5
t-43.5 -19.5t-49.5 -11.5q40 -23 60.5 -57.5t20.5 -76.5q0 -33 -13.5 -63t-40.5 -52.5t-66.5 -35.5t-90.5 -13q-72 0 -122 25q-17 -5 -33.5 -14.5t-29 -24t-20 -33.5t-7.5 -43v-8h271q55 0 92.5 -11t60 -29t32 -41.5t9.5 -48.5q0 -38 -19 -69t-53 -53t-80.5 -34.5
t-101.5 -12.5q-52 0 -95 12t-73.5 32t-47.5 46t-17 55q0 48 38 80zM482 515q21 11 34.5 26.5t13.5 35.5t-13.5 33.5t-33.5 13.5t-33.5 -13.5t-13.5 -30.5q0 -12 6 -23t13.5 -19.5t15.5 -14.5t11 -8zM483 539q-8 7 -17.5 17.5t-9.5 23.5q0 10 7.5 17t19.5 7t19.5 -7.5
t7.5 -19.5q0 -11 -8 -20.5t-19 -17.5zM190 206q37 -12 86 -12t87 12v279q-19 6 -40.5 9.5t-46.5 3.5q-49 0 -86 -12v-280zM375 210q49 20 74.5 55.5t25.5 80.5t-25.5 80.5t-74.5 54.5v-271zM178 481q-49 -19 -74.5 -54.5t-25.5 -80.5t25.5 -81t74.5 -55v271zM395 449
q30 -18 45 -44.5t15 -58.5t-15 -58t-45 -45v206zM158 242q-30 18 -45 45t-15 59t15 59t45 44v-207zM65 72q8 -45 42 -71t80 -26h328q-4 19 -15.5 37t-33 31t-54 21t-77.5 8h-270zM335 52q66 0 101.5 -16.5t49.5 -40.5h-299q-33 0 -58.5 14t-36.5 43h243zM88 2
q-34 -30 -34 -72q0 -27 16 -51t45.5 -42t70 -29t89.5 -11q53 0 97.5 11.5t76.5 32.5t50 49.5t18 63.5q0 2 -0.5 4.5t-0.5 4.5h-329q-60 0 -99 39zM277 576q-26 0 -46 20t-20 46t20 46t46 20t46 -20t20 -46t-20 -46t-46 -20zM277 588q22 0 38 16t16 38t-16 38t-38 16t-38 -16
t-16 -38t16 -38t38 -16zM277 608q-14 0 -24 10t-10 24t10 24t24 10t24 -10t10 -24t-10 -24t-24 -10z" />
    <glyph glyph-name="Gcommaaccent" unicode="&#x122;" horiz-adv-x="855" 
d="M217 71q45 -34 100.5 -52.5t119.5 -18.5q58 0 95 12.5t64 26.5q5 2 8.5 4t8.5 4v269h-95v12h303v-12h-70v-313h-12q-16 26 -35 36.5t-37 10.5q-16 0 -32 -6.5t-33 -14.5q-29 -14 -68 -27.5t-97 -13.5q-84 0 -154 31t-120.5 84.5t-78.5 124.5t-28 152q0 82 29 151.5
t81 120.5t124.5 79.5t159.5 28.5q59 0 105 -12.5t79 -30t54 -35.5t31 -29v104h12v-194h-12v72q-25 31 -64 56q-33 21 -83.5 39t-121.5 18q-69 0 -127 -18.5t-106 -51.5v-607zM205 669q-65 -50 -101 -124t-36 -165t36 -169t101 -130v588zM185 127q-47 49 -72 114t-25 139
q0 75 25 136.5t72 108.5v-498zM625 52q11 5 21 7.5t21 2.5q17 0 37 -9t35 -29v292h-114v-264zM645 296h74v-228q-14 8 -26.5 11t-25.5 3q-10 0 -22 -3v217zM364 -105q0 21 14.5 37.5t39.5 16.5q33 0 48 -23t15 -51q0 -17 -7 -33.5t-20.5 -29t-33.5 -20t-45 -7.5v12
q37 0 60.5 17.5t30.5 41.5q-8 -6 -20 -10t-27 -4q-26 0 -40.5 16.5t-14.5 36.5zM376 -105q0 -16 11.5 -28.5t31.5 -12.5q17 0 29.5 5.5t20.5 13.5v2q0 23 -12 42.5t-39 19.5q-19 0 -30.5 -12.5t-11.5 -29.5zM396 -105q0 9 6 15.5t16 6.5q14 0 21.5 -10t9.5 -24
q-5 -4 -13 -6.5t-17 -2.5q-11 0 -17 6.5t-6 14.5z" />
    <glyph glyph-name="gcommaaccent" unicode="&#x123;" horiz-adv-x="541" 
d="M80 10q-28 33 -28 82t26.5 79.5t61.5 43.5q-37 23 -55.5 57t-18.5 74q0 34 13.5 64t40.5 52t66 35t90 13q33 0 61 -5.5t51 -15.5q44 5 82 20q-6 4 -13.5 11t-15 16t-12.5 20.5t-5 23.5q0 22 16.5 39t42.5 17q25 0 42 -16.5t17 -42.5q0 -21 -12 -37.5t-31 -28.5
t-43.5 -19.5t-49.5 -11.5q40 -23 60.5 -57.5t20.5 -76.5q0 -33 -13.5 -63t-40.5 -52.5t-66.5 -35.5t-90.5 -13q-72 0 -122 25q-17 -5 -33.5 -14.5t-29 -24t-20 -33.5t-7.5 -43v-8h271q55 0 92.5 -11t60 -29t32 -41.5t9.5 -48.5q0 -38 -19 -69t-53 -53t-80.5 -34.5
t-101.5 -12.5q-52 0 -95 12t-73.5 32t-47.5 46t-17 55q0 48 38 80zM482 515q21 11 34.5 26.5t13.5 35.5t-13.5 33.5t-33.5 13.5t-33.5 -13.5t-13.5 -30.5q0 -12 6 -23t13.5 -19.5t15.5 -14.5t11 -8zM483 539q-8 7 -17.5 17.5t-9.5 23.5q0 10 7.5 17t19.5 7t19.5 -7.5
t7.5 -19.5q0 -11 -8 -20.5t-19 -17.5zM190 206q37 -12 86 -12t87 12v279q-19 6 -40.5 9.5t-46.5 3.5q-49 0 -86 -12v-280zM375 210q49 20 74.5 55.5t25.5 80.5t-25.5 80.5t-74.5 54.5v-271zM178 481q-49 -19 -74.5 -54.5t-25.5 -80.5t25.5 -81t74.5 -55v271zM395 449
q30 -18 45 -44.5t15 -58.5t-15 -58t-45 -45v206zM158 242q-30 18 -45 45t-15 59t15 59t45 44v-207zM65 72q8 -45 42 -71t80 -26h328q-4 19 -15.5 37t-33 31t-54 21t-77.5 8h-270zM335 52q66 0 101.5 -16.5t49.5 -40.5h-299q-33 0 -58.5 14t-36.5 43h243zM88 2
q-34 -30 -34 -72q0 -27 16 -51t45.5 -42t70 -29t89.5 -11q53 0 97.5 11.5t76.5 32.5t50 49.5t18 63.5q0 2 -0.5 4.5t-0.5 4.5h-329q-60 0 -99 39zM340 614q0 -21 -14.5 -37.5t-39.5 -16.5q-33 0 -48 23t-15 51q0 17 7 33.5t20.5 29t33.5 20t45 7.5v-12q-37 0 -60.5 -17.5
t-30.5 -41.5q8 6 20 10t27 4q26 0 40.5 -16.5t14.5 -36.5zM328 614q0 16 -11.5 28.5t-31.5 12.5q-17 0 -29.5 -5.5t-20.5 -13.5v-2q0 -23 12 -42.5t39 -19.5q19 0 30.5 12.5t11.5 29.5zM308 614q0 -9 -6 -15.5t-16 -6.5q-14 0 -21.5 10t-9.5 24q5 4 13 6.5t17 2.5
q11 0 17 -6.5t6 -14.5z" />
    <glyph glyph-name="Hcircumflex" unicode="&#x124;" horiz-adv-x="945" 
d="M46 12h95v724h-95v12h328v-12h-95v-352h387v352h-95v12h328v-12h-95v-724h95v-12h-328v12h95v360h-387v-360h95v-12h-328v12zM792 12v724h-114v-724h114zM267 12v724h-114v-724h114zM698 716h74v-684h-74v684zM173 716h74v-684h-74v684zM348 813l124 103l124 -103l-8 -10
l-116 97l-116 -97z" />
    <glyph glyph-name="hcircumflex" unicode="&#x125;" horiz-adv-x="690" 
d="M10 12h90v724h-90v12h223v-372q8 31 24 54q25 37 64 58.5t90 21.5q42 0 74.5 -15t54 -42t33 -64t11.5 -80v-304q20 2 37.5 12t30.5 26.5t20.5 38t7.5 45.5h12q0 -28 -9.5 -52.5t-25 -42.5t-37 -28.5t-45.5 -10.5q-29 0 -51.5 10.5t-39 29t-25 43.5t-8.5 54v364
q-17 4 -40 4q-39 0 -72 -15t-56.5 -40.5t-36.5 -60t-13 -73.5v-297h90v-12h-313v12zM221 12v724h-109v-724h109zM132 716h69v-684h-69v684zM463 130q0 -53 29 -88.5t80 -36.5v304q0 67 -28 115.5t-81 65.5v-360zM483 460q35 -20 52 -59.5t17 -91.5v-282q-35 6 -52 34t-17 69
v330zM43 813l124 103l124 -103l-8 -10l-116 97l-116 -97z" />
    <glyph glyph-name="Hbar" unicode="&#x126;" horiz-adv-x="945" 
d="M46 12h95v534h-97v12h97v178h-95v12h328v-12h-95v-178h387v178h-95v12h328v-12h-95v-178h97v-12h-97v-534h95v-12h-328v12h95v360h-387v-360h95v-12h-328v12zM792 12v724h-114v-724h114zM267 12v724h-114v-724h114zM698 716h74v-684h-74v684zM173 716h74v-684h-74v684z
M666 384v162h-387v-162h387z" />
    <glyph glyph-name="hbar" unicode="&#x127;" horiz-adv-x="690" 
d="M10 12h90v607h-93v12h93v105h-90v12h223v-117h172v-12h-172v-243q8 31 24 54q25 37 64 58.5t90 21.5q42 0 74.5 -15t54 -42t33 -64t11.5 -80v-304q20 2 37.5 12t30.5 26.5t20.5 38t7.5 45.5h12q0 -28 -9.5 -52.5t-25 -42.5t-37 -28.5t-45.5 -10.5q-29 0 -51.5 10.5
t-39 29t-25 43.5t-8.5 54v364q-17 4 -40 4q-39 0 -72 -15t-56.5 -40.5t-36.5 -60t-13 -73.5v-297h90v-12h-313v12zM221 12v724h-109v-724h109zM132 716h69v-684h-69v684zM463 130q0 -53 29 -88.5t80 -36.5v304q0 67 -28 115.5t-81 65.5v-360zM483 460q35 -20 52 -59.5
t17 -91.5v-282q-35 6 -52 34t-17 69v330z" />
    <glyph glyph-name="Itilde" unicode="&#x128;" horiz-adv-x="420" 
d="M46 12h95v724h-95v12h328v-12h-95v-724h95v-12h-328v12zM267 12v724h-114v-724h114zM173 716h74v-684h-74v684zM64 823q0 37 21 63t56 26q26 0 42.5 -13t31.5 -30q14 -15 28 -27.5t37 -12.5q29 0 47 22.5t18 54.5h12q0 -37 -21 -63t-56 -26q-26 0 -42.5 13.5t-31.5 30.5
q-14 15 -28 27t-37 12q-29 0 -47 -22.5t-18 -54.5h-12z" />
    <glyph glyph-name="itilde" unicode="&#x129;" horiz-adv-x="345" 
d="M22 12h90v474h-90v12h223v-486h90v-12h-313v12zM233 12v474h-109v-474h109zM144 466h69v-434h-69v434zM32 597q0 37 21 63t56 26q26 0 42.5 -13t31.5 -30q14 -15 28 -27.5t37 -12.5q29 0 47 22.5t18 54.5h12q0 -37 -21 -63t-56 -26q-26 0 -42.5 13.5t-31.5 30.5
q-14 15 -28 27t-37 12q-29 0 -47 -22.5t-18 -54.5h-12z" />
    <glyph glyph-name="Imacron" unicode="&#x12a;" horiz-adv-x="420" 
d="M46 12h95v724h-95v12h328v-12h-95v-724h95v-12h-328v12zM267 12v724h-114v-724h114zM173 716h74v-684h-74v684zM105 864h210v-12h-210v12z" />
    <glyph glyph-name="imacron" unicode="&#x12b;" horiz-adv-x="345" 
d="M22 12h90v474h-90v12h223v-486h90v-12h-313v12zM233 12v474h-109v-474h109zM144 466h69v-434h-69v434zM73 638h210v-12h-210v12z" />
    <glyph glyph-name="Ibreve" unicode="&#x12c;" horiz-adv-x="420" 
d="M46 12h95v724h-95v12h328v-12h-95v-724h95v-12h-328v12zM267 12v724h-114v-724h114zM173 716h74v-684h-74v684zM210 818q-23 0 -43.5 6.5t-36 18t-24.5 27t-9 33.5h12q0 -31 29.5 -52t71.5 -21t71.5 21t29.5 52h12q0 -18 -9 -33.5t-24.5 -27t-36 -18t-43.5 -6.5z" />
    <glyph glyph-name="ibreve" unicode="&#x12d;" horiz-adv-x="345" 
d="M22 12h90v474h-90v12h223v-486h90v-12h-313v12zM233 12v474h-109v-474h109zM144 466h69v-434h-69v434zM178 592q-23 0 -43.5 6.5t-36 18t-24.5 27t-9 33.5h12q0 -31 29.5 -52t71.5 -21t71.5 21t29.5 52h12q0 -18 -9 -33.5t-24.5 -27t-36 -18t-43.5 -6.5z" />
    <glyph glyph-name="Iogonek" unicode="&#x12e;" horiz-adv-x="420" 
d="M46 12h95v724h-95v12h328v-12h-95v-724h95v-12q-28 -19 -50 -41q-19 -19 -34 -43.5t-15 -51.5q0 -29 20.5 -48t68.5 -19v-12q-54 0 -77.5 23t-23.5 56q0 23 10 44t24.5 39t29.5 31.5t26 21.5h-307v12zM267 12v724h-114v-724h114zM173 716h74v-684h-74v684z" />
    <glyph glyph-name="iogonek" unicode="&#x12f;" horiz-adv-x="345" 
d="M178 589q-26 0 -46 20t-20 46t20 46t46 20t46 -20t20 -46t-20 -46t-46 -20zM178 601q22 0 38 16t16 38t-16 38t-38 16t-38 -16t-16 -38t16 -38t38 -16zM178 621q-14 0 -24 10t-10 24t10 24t24 10t24 -10t10 -24t-10 -24t-24 -10zM22 12h90v474h-90v12h223v-486h90v-12
q-28 -19 -50 -41q-19 -19 -34 -43.5t-15 -51.5q0 -29 20.5 -48t68.5 -19v-12q-54 0 -77.5 23t-23.5 56q0 23 10 44t24.5 39t29.5 31.5t26 21.5h-292v12zM233 12v474h-109v-474h109zM144 466h69v-434h-69v434z" />
    <glyph glyph-name="Idotaccent" unicode="&#x130;" horiz-adv-x="420" 
d="M46 12h95v724h-95v12h328v-12h-95v-724h95v-12h-328v12zM267 12v724h-114v-724h114zM173 716h74v-684h-74v684zM210 802q-26 0 -46 20t-20 46t20 46t46 20t46 -20t20 -46t-20 -46t-46 -20zM210 814q22 0 38 16t16 38t-16 38t-38 16t-38 -16t-16 -38t16 -38t38 -16z
M210 834q-14 0 -24 10t-10 24t10 24t24 10t24 -10t10 -24t-10 -24t-24 -10z" />
    <glyph glyph-name="dotlessi" unicode="&#x131;" horiz-adv-x="345" 
d="M22 12h90v474h-90v12h223v-486h90v-12h-313v12zM233 12v474h-109v-474h109zM144 466h69v-434h-69v434z" />
    <glyph glyph-name="IJ" unicode="&#x132;" horiz-adv-x="885" 
d="M46 12h95v724h-95v12h328v-12h-95v-724h95v-12h-328v12zM267 12v724h-114v-724h114zM173 716h74v-684h-74v684zM499 16q20 -8 42.5 -12t42.5 -4q18 0 35 3v733h-95v12h328v-12h-95v-547q0 -42 -11 -79t-32.5 -64t-54 -42.5t-75.5 -15.5q-26 0 -54.5 6t-51.5 18.5
t-38 31.5t-15 45q0 30 19 46t43 16q27 0 45 -18t18 -41t-16 -43t-35 -33zM631 6q57 15 85.5 65t28.5 118v547h-114v-730zM651 716h74v-527q0 -54 -18 -94.5t-56 -59.5v681zM487 21q19 11 35 30.5t16 40.5q0 19 -14 33t-36 14q-20 0 -35.5 -13t-15.5 -37q0 -23 14 -40t36 -28
zM486 44q-13 8 -21 19.5t-8 25.5t9.5 22t21.5 8q13 0 21.5 -8t8.5 -19q0 -13 -10 -26t-22 -22z" />
    <glyph glyph-name="ij" unicode="&#x133;" horiz-adv-x="662" 
d="M178 589q-26 0 -46 20t-20 46t20 46t46 20t46 -20t20 -46t-20 -46t-46 -20zM178 601q22 0 38 16t16 38t-16 38t-38 16t-38 -16t-16 -38t16 -38t38 -16zM178 621q-14 0 -24 10t-10 24t10 24t24 10t24 -10t10 -24t-10 -24t-24 -10zM22 12h90v474h-90v12h223v-486h90v-12
h-313v12zM233 12v474h-109v-474h109zM144 466h69v-434h-69v434zM509 589q-26 0 -46 20t-20 46t20 46t46 20t46 -20t20 -46t-20 -46t-46 -20zM509 601q22 0 38 16t16 38t-16 38t-38 16t-38 -16t-16 -38t16 -38t38 -16zM509 621q-14 0 -24 10t-10 24t10 24t24 10t24 -10
t10 -24t-10 -24t-24 -10zM369 -69q23 0 38.5 -16.5t15.5 -38.5q0 -14 -5 -25t-11.5 -20t-14 -15.5t-13.5 -10.5q21 -8 44 -8t41.5 5.5t32.5 15.5q-3 6 -12 26t-18.5 49.5t-16.5 66.5t-7 79v447h-90v12h223v-505q0 -43 -8.5 -81t-27 -66t-47.5 -44.5t-70 -16.5q-22 0 -42 6.5
t-35.5 18.5t-24.5 28.5t-9 35.5q0 28 17.5 42.5t39.5 14.5zM455 39q0 -39 6.5 -74.5t15.5 -63.5t17.5 -47.5t12.5 -27.5q30 26 43.5 69.5t13.5 97.5v493h-109v-447zM475 466h69v-473q0 -40 -7 -74t-24 -58q-12 28 -25 74.5t-13 103.5v427zM369 -81q-17 0 -31 -11.5
t-14 -33.5q0 -20 12 -36.5t31 -26.5q3 2 10.5 7.5t15 13.5t13 19t5.5 25q0 17 -12 30t-30 13zM369 -101q10 0 16 -7t6 -16q0 -15 -8 -25t-16 -16q-10 8 -16.5 18t-6.5 21q0 12 7.5 18.5t17.5 6.5z" />
    <glyph glyph-name="Jcircumflex" unicode="&#x134;" horiz-adv-x="473" 
d="M87 16q20 -8 42.5 -12t42.5 -4q18 0 35 3v733h-95v12h328v-12h-95v-547q0 -42 -11 -79t-32.5 -64t-54 -42.5t-75.5 -15.5q-26 0 -54.5 6t-51.5 18.5t-38 31.5t-15 45q0 30 19 46t43 16q27 0 45 -18t18 -41t-16 -43t-35 -33zM219 6q57 15 85.5 65t28.5 118v547h-114v-730z
M239 716h74v-527q0 -54 -18 -94.5t-56 -59.5v681zM75 21q19 11 35 30.5t16 40.5q0 19 -14 33t-36 14q-20 0 -35.5 -13t-15.5 -37q0 -23 14 -40t36 -28zM74 44q-13 8 -21 19.5t-8 25.5t9.5 22t21.5 8q13 0 21.5 -8t8.5 -19q0 -13 -10 -26t-22 -22zM154 813l124 103l124 -103
l-8 -10l-116 97l-116 -97z" />
    <glyph glyph-name="jcircumflex" unicode="&#x135;" horiz-adv-x="320" 
d="M43 587l124 103l124 -103l-8 -10l-116 97l-116 -97zM27 -69q23 0 38.5 -16.5t15.5 -38.5q0 -14 -5 -25t-11.5 -20t-14 -15.5t-13.5 -10.5q21 -8 44 -8t41.5 5.5t32.5 15.5q-3 6 -12 26t-18.5 49.5t-16.5 66.5t-7 79v447h-90v12h223v-505q0 -43 -8.5 -81t-27 -66
t-47.5 -44.5t-70 -16.5q-22 0 -42 6.5t-35.5 18.5t-24.5 28.5t-9 35.5q0 28 17.5 42.5t39.5 14.5zM113 39q0 -39 6.5 -74.5t15.5 -63.5t17.5 -47.5t12.5 -27.5q30 26 43.5 69.5t13.5 97.5v493h-109v-447zM133 466h69v-473q0 -40 -7 -74t-24 -58q-12 28 -25 74.5t-13 103.5
v427zM27 -81q-17 0 -31 -11.5t-14 -33.5q0 -20 12 -36.5t31 -26.5q3 2 10.5 7.5t15 13.5t13 19t5.5 25q0 17 -12 30t-30 13zM27 -101q10 0 16 -7t6 -16q0 -15 -8 -25t-16 -16q-10 8 -16.5 18t-6.5 21q0 12 7.5 18.5t17.5 6.5z" />
    <glyph glyph-name="Kcommaaccent" unicode="&#x136;" horiz-adv-x="802" 
d="M46 12h95v724h-95v12h328v-12h-95v-383l371 383h-111v12h202v-12h-75l-235 -243l283 -472q28 17 44 47.5t16 68.5h12q0 -30 -9.5 -56t-27 -45.5t-41.5 -31t-52 -11.5q-35 0 -72.5 17.5t-62.5 60.5l-187 323l-55 -57v-325h95v-12h-328v12zM267 12v724h-114v-724h114z
M173 716h74v-684h-74v684zM531 78q12 -21 27.5 -35t32 -22.5t33 -12t31.5 -3.5q28 0 48 10l-281 470l-79 -82zM418 452l256 -426q-5 -1 -9.5 -1h-9.5q-25 0 -56 14t-51 49l-181 312zM373 -105q0 21 14.5 37.5t39.5 16.5q33 0 48 -23t15 -51q0 -17 -7 -33.5t-20.5 -29
t-33.5 -20t-45 -7.5v12q37 0 60.5 17.5t30.5 41.5q-8 -6 -20 -10t-27 -4q-26 0 -40.5 16.5t-14.5 36.5zM385 -105q0 -16 11.5 -28.5t31.5 -12.5q17 0 29.5 5.5t20.5 13.5v2q0 23 -12 42.5t-39 19.5q-19 0 -30.5 -12.5t-11.5 -29.5zM405 -105q0 9 6 15.5t16 6.5
q14 0 21.5 -10t9.5 -24q-5 -4 -13 -6.5t-17 -2.5q-11 0 -17 6.5t-6 14.5z" />
    <glyph glyph-name="kcommaaccent" unicode="&#x137;" horiz-adv-x="645" 
d="M10 12h90v724h-90v12h223v-525l274 263h-98v12h192v-12h-77l-143 -137l195 -323q20 17 33 43t13 58h12q0 -28 -9.5 -52.5t-25.5 -42.5t-37 -28.5t-44 -10.5q-35 0 -66.5 15.5t-54.5 57.5l-110 194l-54 -52v-196h90v-12h-313v12zM221 12v724h-109v-724h109zM132 716h69
v-684h-69v684zM407 73q21 -38 50 -53t61 -15q26 0 49 14l-195 322l-76 -73zM368 310l170 -282q-9 -3 -20 -3q-27 0 -51.5 13t-42.5 45l-103 181zM298 -105q0 21 14.5 37.5t39.5 16.5q33 0 48 -23t15 -51q0 -17 -7 -33.5t-20.5 -29t-33.5 -20t-45 -7.5v12q37 0 60.5 17.5
t30.5 41.5q-8 -6 -20 -10t-27 -4q-26 0 -40.5 16.5t-14.5 36.5zM310 -105q0 -16 11.5 -28.5t31.5 -12.5q17 0 29.5 5.5t20.5 13.5v2q0 23 -12 42.5t-39 19.5q-19 0 -30.5 -12.5t-11.5 -29.5zM330 -105q0 9 6 15.5t16 6.5q14 0 21.5 -10t9.5 -24q-5 -4 -13 -6.5t-17 -2.5
q-11 0 -17 6.5t-6 14.5z" />
    <glyph glyph-name="kgreenlandic" unicode="&#x138;" horiz-adv-x="665" 
d="M22 12h90v474h-90v12h223v-275l273 263h-98v12h192v-12h-77l-145 -140l197 -326q25 15 41 43.5t16 63.5h12q0 -28 -10 -52.5t-26.5 -42.5t-38.5 -28.5t-46 -10.5q-35 0 -66.5 16t-54.5 57l-112 196l-57 -54v-196h90v-12h-313v12zM233 12v474h-109v-474h109zM144 466h69
v-434h-69v434zM424 72q21 -37 50.5 -52t60.5 -15q22 0 42 9l-196 324l-70 -67zM377 307l171 -282q-5 -2 -5.5 -2.5t-0.5 0t-1 1.5t-6 1q-24 0 -50 15t-44 42l-105 185z" />
    <glyph glyph-name="Lacute" unicode="&#x139;" horiz-adv-x="671" 
d="M46 12h95v724h-95v12h328v-12h-95v-724h352v198h12v-210h-597v12zM267 12v724h-114v-724h114zM173 716h74v-684h-74v684zM189 813l152 101l7 -10l-152 -101z" />
    <glyph glyph-name="lacute" unicode="&#x13a;" horiz-adv-x="333" 
d="M10 12h90v724h-90v12h223v-736h90v-12h-313v12zM221 12v724h-109v-724h109zM132 716h69v-684h-69v684zM143 813l152 101l7 -10l-152 -101z" />
    <glyph glyph-name="Lcommaaccent" unicode="&#x13b;" horiz-adv-x="671" 
d="M46 12h95v724h-95v12h328v-12h-95v-724h352v198h12v-210h-597v12zM267 12v724h-114v-724h114zM173 716h74v-684h-74v684zM342 -105q0 21 14.5 37.5t39.5 16.5q33 0 48 -23t15 -51q0 -17 -7 -33.5t-20.5 -29t-33.5 -20t-45 -7.5v12q37 0 60.5 17.5t30.5 41.5
q-8 -6 -20 -10t-27 -4q-26 0 -40.5 16.5t-14.5 36.5zM354 -105q0 -16 11.5 -28.5t31.5 -12.5q17 0 29.5 5.5t20.5 13.5v2q0 23 -12 42.5t-39 19.5q-19 0 -30.5 -12.5t-11.5 -29.5zM374 -105q0 9 6 15.5t16 6.5q14 0 21.5 -10t9.5 -24q-5 -4 -13 -6.5t-17 -2.5q-11 0 -17 6.5
t-6 14.5z" />
    <glyph glyph-name="lcommaaccent" unicode="&#x13c;" horiz-adv-x="333" 
d="M10 12h90v724h-90v12h223v-736h90v-12h-313v12zM221 12v724h-109v-724h109zM132 716h69v-684h-69v684zM104 -105q0 21 14.5 37.5t39.5 16.5q33 0 48 -23t15 -51q0 -17 -7 -33.5t-20.5 -29t-33.5 -20t-45 -7.5v12q37 0 60.5 17.5t30.5 41.5q-8 -6 -20 -10t-27 -4
q-26 0 -40.5 16.5t-14.5 36.5zM116 -105q0 -16 11.5 -28.5t31.5 -12.5q17 0 29.5 5.5t20.5 13.5v2q0 23 -12 42.5t-39 19.5q-19 0 -30.5 -12.5t-11.5 -29.5zM136 -105q0 9 6 15.5t16 6.5q14 0 21.5 -10t9.5 -24q-5 -4 -13 -6.5t-17 -2.5q-11 0 -17 6.5t-6 14.5z" />
    <glyph glyph-name="Lcaron" unicode="&#x13d;" horiz-adv-x="671" 
d="M46 12h95v724h-95v12h328v-12h-95v-724h352v198h12v-210h-597v12zM267 12v724h-114v-724h114zM173 716h74v-684h-74v684zM474 706q0 21 14.5 37.5t39.5 16.5q33 0 48 -23t15 -51q0 -17 -7 -33.5t-20.5 -29t-33.5 -20t-45 -7.5v12q37 0 60.5 17.5t30.5 41.5q-8 -6 -20 -10
t-27 -4q-26 0 -40.5 16.5t-14.5 36.5zM486 706q0 -16 11.5 -28.5t31.5 -12.5q17 0 29.5 5.5t20.5 13.5v2q0 23 -12 42.5t-39 19.5q-19 0 -30.5 -12.5t-11.5 -29.5zM506 706q0 9 6 15.5t16 6.5q14 0 21.5 -10t9.5 -24q-5 -4 -13 -6.5t-17 -2.5q-11 0 -17 6.5t-6 14.5z" />
    <glyph glyph-name="lcaron" unicode="&#x13e;" horiz-adv-x="333" 
d="M10 12h90v724h-90v12h223v-736h90v-12h-313v12zM221 12v724h-109v-724h109zM132 716h69v-684h-69v684zM324 706q0 21 14.5 37.5t39.5 16.5q33 0 48 -23t15 -51q0 -17 -7 -33.5t-20.5 -29t-33.5 -20t-45 -7.5v12q37 0 60.5 17.5t30.5 41.5q-8 -6 -20 -10t-27 -4
q-26 0 -40.5 16.5t-14.5 36.5zM336 706q0 -16 11.5 -28.5t31.5 -12.5q17 0 29.5 5.5t20.5 13.5v2q0 23 -12 42.5t-39 19.5q-19 0 -30.5 -12.5t-11.5 -29.5zM356 706q0 9 6 15.5t16 6.5q14 0 21.5 -10t9.5 -24q-5 -4 -13 -6.5t-17 -2.5q-11 0 -17 6.5t-6 14.5z" />
    <glyph glyph-name="Ldot" unicode="&#x13f;" horiz-adv-x="671" 
d="M46 12h95v724h-95v12h328v-12h-95v-724h352v198h12v-210h-597v12zM267 12v724h-114v-724h114zM173 716h74v-684h-74v684zM456 391q0 29 21 50t50 21t50 -21t21 -50t-21 -50t-50 -21t-50 21t-21 50zM468 391q0 -25 17 -42t42 -17t42 17t17 42t-17 42t-42 17t-42 -17
t-17 -42zM488 391q0 17 11 28t28 11t28 -11t11 -28t-11 -28t-28 -11t-28 11t-11 28z" />
    <glyph glyph-name="ldot" unicode="&#x140;" horiz-adv-x="439" 
d="M10 12h90v724h-90v12h223v-736h90v-12h-313v12zM221 12v724h-109v-724h109zM132 716h69v-684h-69v684zM315 391q0 29 21 50t50 21t50 -21t21 -50t-21 -50t-50 -21t-50 21t-21 50zM327 391q0 -25 17 -42t42 -17t42 17t17 42t-17 42t-42 17t-42 -17t-17 -42zM347 391
q0 17 11 28t28 11t28 -11t11 -28t-11 -28t-28 -11t-28 11t-11 28z" />
    <glyph glyph-name="Lslash" unicode="&#x141;" horiz-adv-x="671" 
d="M46 12h95v317l-91 -54l-6 10l97 58v393h-95v12h328v-12h-95v-310l235 144l6 -10l-241 -147v-401h352v198h12v-210h-597v12zM267 12v724h-114v-724h114zM173 716h74v-684h-74v684z" />
    <glyph glyph-name="lslash" unicode="&#x142;" horiz-adv-x="333" 
d="M10 12h90v363l-91 -54l-6 10l97 58v347h-90v12h223v-279l90 55l6 -10l-96 -58v-444h90v-12h-313v12zM221 12v724h-109v-724h109zM132 716h69v-684h-69v684z" />
    <glyph glyph-name="Nacute" unicode="&#x143;" horiz-adv-x="869" 
d="M46 12h95v724h-95v12h209l467 -538v526h-95v12h202v-12h-95v-736h-12l-569 649v-637h95v-12h-202v12zM722 19v172l-473 545h-96v-67zM173 716h67l462 -532v-112l-529 604v40zM395 813l152 101l7 -10l-152 -101z" />
    <glyph glyph-name="nacute" unicode="&#x144;" horiz-adv-x="702" 
d="M22 12h90v474h-90v12h223v-122q8 31 24 54q25 37 64 58.5t90 21.5q42 0 74.5 -15t54 -42t33 -64t11.5 -80v-304q20 2 37.5 12t30.5 26.5t20.5 38t7.5 45.5h12q0 -28 -9.5 -52.5t-25 -42.5t-37 -28.5t-45.5 -10.5q-29 0 -51.5 10.5t-39 29t-25 43.5t-8.5 54v364
q-17 4 -40 4q-39 0 -72 -15t-56.5 -40.5t-36.5 -60t-13 -73.5v-297h90v-12h-313v12zM475 130q0 -53 29 -88.5t80 -36.5v304q0 67 -28 115.5t-81 65.5v-360zM233 12v474h-109v-474h109zM144 466h69v-434h-69v434zM495 460q35 -20 52 -59.5t17 -91.5v-282q-35 6 -52 34t-17 69
v330zM324 587l152 101l7 -10l-152 -101z" />
    <glyph glyph-name="Ncommaaccent" unicode="&#x145;" horiz-adv-x="869" 
d="M46 12h95v724h-95v12h209l467 -538v526h-95v12h202v-12h-95v-736h-12l-569 649v-637h95v-12h-202v12zM722 19v172l-473 545h-96v-67zM173 716h67l462 -532v-112l-529 604v40zM390 -105q0 21 14.5 37.5t39.5 16.5q33 0 48 -23t15 -51q0 -17 -7 -33.5t-20.5 -29t-33.5 -20
t-45 -7.5v12q37 0 60.5 17.5t30.5 41.5q-8 -6 -20 -10t-27 -4q-26 0 -40.5 16.5t-14.5 36.5zM402 -105q0 -16 11.5 -28.5t31.5 -12.5q17 0 29.5 5.5t20.5 13.5v2q0 23 -12 42.5t-39 19.5q-19 0 -30.5 -12.5t-11.5 -29.5zM422 -105q0 9 6 15.5t16 6.5q14 0 21.5 -10t9.5 -24
q-5 -4 -13 -6.5t-17 -2.5q-11 0 -17 6.5t-6 14.5z" />
    <glyph glyph-name="ncommaaccent" unicode="&#x146;" horiz-adv-x="702" 
d="M22 12h90v474h-90v12h223v-122q8 31 24 54q25 37 64 58.5t90 21.5q42 0 74.5 -15t54 -42t33 -64t11.5 -80v-304q20 2 37.5 12t30.5 26.5t20.5 38t7.5 45.5h12q0 -28 -9.5 -52.5t-25 -42.5t-37 -28.5t-45.5 -10.5q-29 0 -51.5 10.5t-39 29t-25 43.5t-8.5 54v364
q-17 4 -40 4q-39 0 -72 -15t-56.5 -40.5t-36.5 -60t-13 -73.5v-297h90v-12h-313v12zM475 130q0 -53 29 -88.5t80 -36.5v304q0 67 -28 115.5t-81 65.5v-360zM233 12v474h-109v-474h109zM144 466h69v-434h-69v434zM495 460q35 -20 52 -59.5t17 -91.5v-282q-35 6 -52 34t-17 69
v330zM320 -105q0 21 14.5 37.5t39.5 16.5q33 0 48 -23t15 -51q0 -17 -7 -33.5t-20.5 -29t-33.5 -20t-45 -7.5v12q37 0 60.5 17.5t30.5 41.5q-8 -6 -20 -10t-27 -4q-26 0 -40.5 16.5t-14.5 36.5zM332 -105q0 -16 11.5 -28.5t31.5 -12.5q17 0 29.5 5.5t20.5 13.5v2
q0 23 -12 42.5t-39 19.5q-19 0 -30.5 -12.5t-11.5 -29.5zM352 -105q0 9 6 15.5t16 6.5q14 0 21.5 -10t9.5 -24q-5 -4 -13 -6.5t-17 -2.5q-11 0 -17 6.5t-6 14.5z" />
    <glyph glyph-name="Ncaron" unicode="&#x147;" horiz-adv-x="869" 
d="M46 12h95v724h-95v12h209l467 -538v526h-95v12h202v-12h-95v-736h-12l-569 649v-637h95v-12h-202v12zM722 19v172l-473 545h-96v-67zM173 716h67l462 -532v-112l-529 604v40zM310 901l8 10l116 -97l116 97l8 -10l-124 -103z" />
    <glyph glyph-name="ncaron" unicode="&#x148;" horiz-adv-x="702" 
d="M22 12h90v474h-90v12h223v-122q8 31 24 54q25 37 64 58.5t90 21.5q42 0 74.5 -15t54 -42t33 -64t11.5 -80v-304q20 2 37.5 12t30.5 26.5t20.5 38t7.5 45.5h12q0 -28 -9.5 -52.5t-25 -42.5t-37 -28.5t-45.5 -10.5q-29 0 -51.5 10.5t-39 29t-25 43.5t-8.5 54v364
q-17 4 -40 4q-39 0 -72 -15t-56.5 -40.5t-36.5 -60t-13 -73.5v-297h90v-12h-313v12zM475 130q0 -53 29 -88.5t80 -36.5v304q0 67 -28 115.5t-81 65.5v-360zM233 12v474h-109v-474h109zM144 466h69v-434h-69v434zM495 460q35 -20 52 -59.5t17 -91.5v-282q-35 6 -52 34t-17 69
v330zM239 675l8 10l116 -97l116 97l8 -10l-124 -103z" />
    <glyph glyph-name="napostrophe" unicode="&#x149;" horiz-adv-x="702" 
d="M22 12h90v474h-90v12h223v-122q8 31 24 54q25 37 64 58.5t90 21.5q42 0 74.5 -15t54 -42t33 -64t11.5 -80v-304q20 2 37.5 12t30.5 26.5t20.5 38t7.5 45.5h12q0 -28 -9.5 -52.5t-25 -42.5t-37 -28.5t-45.5 -10.5q-29 0 -51.5 10.5t-39 29t-25 43.5t-8.5 54v364
q-17 4 -40 4q-39 0 -72 -15t-56.5 -40.5t-36.5 -60t-13 -73.5v-297h90v-12h-313v12zM475 130q0 -53 29 -88.5t80 -36.5v304q0 67 -28 115.5t-81 65.5v-360zM233 12v474h-109v-474h109zM144 466h69v-434h-69v434zM495 460q35 -20 52 -59.5t17 -91.5v-282q-35 6 -52 34t-17 69
v330zM28 706q0 21 14.5 37.5t39.5 16.5q33 0 48 -23t15 -51q0 -17 -7 -33.5t-20.5 -29t-33.5 -20t-45 -7.5v12q37 0 60.5 17.5t30.5 41.5q-8 -6 -20 -10t-27 -4q-26 0 -40.5 16.5t-14.5 36.5zM40 706q0 -16 11.5 -28.5t31.5 -12.5q17 0 29.5 5.5t20.5 13.5v2q0 23 -12 42.5
t-39 19.5q-19 0 -30.5 -12.5t-11.5 -29.5zM60 706q0 9 6 15.5t16 6.5q14 0 21.5 -10t9.5 -24q-5 -4 -13 -6.5t-17 -2.5q-11 0 -17 6.5t-6 14.5z" />
    <glyph glyph-name="Eng" unicode="&#x14a;" horiz-adv-x="869" 
d="M46 12h95v724h-95v12h209l467 -538v526h-95v12h202v-12h-95v-744q0 -50 -14 -89t-38 -65t-55.5 -39.5t-66.5 -13.5q-26 0 -53 6t-49 18.5t-36.5 31t-14.5 44.5q0 30 19 46t44 16q26 0 44 -18t18 -41t-15.5 -42.5t-37.5 -32.5q19 -8 40 -12t41 -4q33 0 62 12.5t51.5 37.5
t35.5 61.5t13 83.5v8l-569 649v-637h95v-12h-202v12zM722 19v172l-473 545h-96v-67zM173 716h67l462 -532v-112l-529 604v40zM419 -115q0 -23 13.5 -39t33.5 -27q21 11 37.5 29.5t16.5 39.5q0 19 -14 33t-36 14q-20 0 -35.5 -13t-15.5 -37zM439 -115q0 14 9.5 22t21.5 8
q13 0 21.5 -8t8.5 -19q0 -14 -10 -26t-24 -20q-11 8 -19 19t-8 24z" />
    <glyph glyph-name="eng" unicode="&#x14b;" horiz-adv-x="670" 
d="M22 12h90v474h-90v12h223v-124q11 44 38 74q25 29 60.5 45.5t79.5 16.5t76.5 -16.5t54 -44t32 -64t10.5 -76.5v-316q0 -43 -8.5 -81t-27 -66t-47.5 -44.5t-70 -16.5q-22 0 -42 6.5t-35.5 18.5t-24.5 28.5t-9 35.5q0 29 18 44t42 15q25 0 42 -17t17 -40q0 -14 -5.5 -25.5
t-13.5 -20.5t-17 -15.5t-15 -10.5q10 -3 21 -5t22 -2q23 0 41.5 5.5t32.5 15.5q-3 6 -12 26t-18.5 49.5t-16.5 66.5t-7 79v454q-10 2 -19.5 3.5t-20.5 1.5q-39 0 -72 -15t-56.5 -40.5t-36.5 -60t-13 -73.5v-297h90v-12h-313v12zM475 39q0 -39 6.5 -74.5t15.5 -63.5
t17.5 -47.5t12.5 -27.5q30 26 43.5 69.5t13.5 97.5v316q0 31 -6.5 60t-20 53t-34 41.5t-48.5 26.5v-451zM233 12v474h-109v-474h109zM144 466h69v-434h-69v434zM495 460q37 -20 53 -60.5t16 -90.5v-316q0 -40 -7 -74t-24 -58q-12 28 -25 74.5t-13 103.5v421zM344 -126
q0 -21 11.5 -37t31.5 -27q3 2 11.5 7.5t17.5 13.5t16 19.5t7 25.5q0 19 -13.5 32t-33.5 13t-34 -12t-14 -35zM364 -126q0 14 8.5 20.5t19.5 6.5q12 0 19.5 -7t7.5 -18q0 -14 -11 -25t-21 -18q-23 15 -23 41z" />
    <glyph glyph-name="Omacron" unicode="&#x14c;" 
d="M54 370q0 81 31 152.5t85 124t126 83t154 30.5t154 -30.5t126 -83t85 -124t31 -152.5q0 -79 -31 -148.5t-85 -121.5t-126 -82t-154 -30t-154 30t-126 82t-85 121.5t-31 148.5zM216 76q49 -36 108.5 -56t125.5 -20t125.5 20t108.5 56v594q-49 37 -108.5 57.5t-125.5 20.5
t-125.5 -20.5t-108.5 -57.5v-594zM696 86q63 51 100.5 124t37.5 160q0 89 -37.5 164t-100.5 127v-575zM204 661q-64 -52 -101 -127t-37 -164q0 -87 37 -160t101 -124v575zM716 615q45 -48 71.5 -111t26.5 -134q0 -70 -26 -131t-72 -108v484zM184 130q-46 47 -72 109t-26 131
q0 72 25.5 134.5t72.5 110.5v-485zM345 864h210v-12h-210v12z" />
    <glyph glyph-name="omacron" unicode="&#x14d;" horiz-adv-x="608" 
d="M38 248q0 53 21 100.5t57 83.5t84.5 57t103.5 21t103.5 -21t84.5 -57t57 -83.5t21 -100.5t-21 -100t-57 -82.5t-84.5 -56.5t-103.5 -21t-103.5 21t-84.5 56.5t-57 82.5t-21 100zM178 33q28 -16 59.5 -24.5t66.5 -8.5q68 0 127 34v430q-29 16 -60.5 25t-66.5 9
q-69 0 -126 -34v-431zM443 41q52 34 83.5 88.5t31.5 118.5q0 65 -31.5 120t-83.5 89v-416zM166 457q-53 -34 -84.5 -89t-31.5 -120t31.5 -119.5t84.5 -88.5v417zM463 416q35 -32 55 -75t20 -93q0 -49 -20 -91.5t-55 -74.5v334zM146 81q-35 32 -55.5 74.5t-20.5 92.5
q0 103 76 168v-335zM199 638h210v-12h-210v12z" />
    <glyph glyph-name="Obreve" unicode="&#x14e;" 
d="M54 370q0 81 31 152.5t85 124t126 83t154 30.5t154 -30.5t126 -83t85 -124t31 -152.5q0 -79 -31 -148.5t-85 -121.5t-126 -82t-154 -30t-154 30t-126 82t-85 121.5t-31 148.5zM216 76q49 -36 108.5 -56t125.5 -20t125.5 20t108.5 56v594q-49 37 -108.5 57.5t-125.5 20.5
t-125.5 -20.5t-108.5 -57.5v-594zM696 86q63 51 100.5 124t37.5 160q0 89 -37.5 164t-100.5 127v-575zM204 661q-64 -52 -101 -127t-37 -164q0 -87 37 -160t101 -124v575zM716 615q45 -48 71.5 -111t26.5 -134q0 -70 -26 -131t-72 -108v484zM184 130q-46 47 -72 109t-26 131
q0 72 25.5 134.5t72.5 110.5v-485zM450 818q-23 0 -43.5 6.5t-36 18t-24.5 27t-9 33.5h12q0 -31 29.5 -52t71.5 -21t71.5 21t29.5 52h12q0 -18 -9 -33.5t-24.5 -27t-36 -18t-43.5 -6.5z" />
    <glyph glyph-name="obreve" unicode="&#x14f;" horiz-adv-x="608" 
d="M38 248q0 53 21 100.5t57 83.5t84.5 57t103.5 21t103.5 -21t84.5 -57t57 -83.5t21 -100.5t-21 -100t-57 -82.5t-84.5 -56.5t-103.5 -21t-103.5 21t-84.5 56.5t-57 82.5t-21 100zM178 33q28 -16 59.5 -24.5t66.5 -8.5q68 0 127 34v430q-29 16 -60.5 25t-66.5 9
q-69 0 -126 -34v-431zM443 41q52 34 83.5 88.5t31.5 118.5q0 65 -31.5 120t-83.5 89v-416zM166 457q-53 -34 -84.5 -89t-31.5 -120t31.5 -119.5t84.5 -88.5v417zM463 416q35 -32 55 -75t20 -93q0 -49 -20 -91.5t-55 -74.5v334zM146 81q-35 32 -55.5 74.5t-20.5 92.5
q0 103 76 168v-335zM304 592q-23 0 -43.5 6.5t-36 18t-24.5 27t-9 33.5h12q0 -31 29.5 -52t71.5 -21t71.5 21t29.5 52h12q0 -18 -9 -33.5t-24.5 -27t-36 -18t-43.5 -6.5z" />
    <glyph glyph-name="Ohungarumlaut" unicode="&#x150;" 
d="M54 370q0 81 31 152.5t85 124t126 83t154 30.5t154 -30.5t126 -83t85 -124t31 -152.5q0 -79 -31 -148.5t-85 -121.5t-126 -82t-154 -30t-154 30t-126 82t-85 121.5t-31 148.5zM216 76q49 -36 108.5 -56t125.5 -20t125.5 20t108.5 56v594q-49 37 -108.5 57.5t-125.5 20.5
t-125.5 -20.5t-108.5 -57.5v-594zM696 86q63 51 100.5 124t37.5 160q0 89 -37.5 164t-100.5 127v-575zM204 661q-64 -52 -101 -127t-37 -164q0 -87 37 -160t101 -124v575zM716 615q45 -48 71.5 -111t26.5 -134q0 -70 -26 -131t-72 -108v484zM184 130q-46 47 -72 109t-26 131
q0 72 25.5 134.5t72.5 110.5v-485zM456 813l127 101l8 -10l-127 -101zM351 813l127 101l8 -10l-127 -101z" />
    <glyph glyph-name="ohungarumlaut" unicode="&#x151;" horiz-adv-x="608" 
d="M38 248q0 53 21 100.5t57 83.5t84.5 57t103.5 21t103.5 -21t84.5 -57t57 -83.5t21 -100.5t-21 -100t-57 -82.5t-84.5 -56.5t-103.5 -21t-103.5 21t-84.5 56.5t-57 82.5t-21 100zM178 33q28 -16 59.5 -24.5t66.5 -8.5q68 0 127 34v430q-29 16 -60.5 25t-66.5 9
q-69 0 -126 -34v-431zM443 41q52 34 83.5 88.5t31.5 118.5q0 65 -31.5 120t-83.5 89v-416zM166 457q-53 -34 -84.5 -89t-31.5 -120t31.5 -119.5t84.5 -88.5v417zM463 416q35 -32 55 -75t20 -93q0 -49 -20 -91.5t-55 -74.5v334zM146 81q-35 32 -55.5 74.5t-20.5 92.5
q0 103 76 168v-335zM310 587l127 101l8 -10l-127 -101zM205 587l127 101l8 -10l-127 -101z" />
    <glyph glyph-name="OE" unicode="&#x152;" horiz-adv-x="1094" 
d="M55 371q0 78 29.5 146.5t81 120t120 81t146.5 29.5h585v-185h-12v173h-357v-355h249v109h12v-226h-12v105h-249v-357h367v178h12v-190h-595q-78 0 -146.5 29.5t-120 80t-81 118t-29.5 143.5zM636 12v724h-114v-724h114zM217 81q45 -32 99.5 -50.5t115.5 -18.5h78v724h-78
q-61 0 -115.5 -18.5t-99.5 -51.5v-585zM542 716h74v-684h-74v684zM205 657q-63 -51 -100.5 -124.5t-37.5 -161.5q0 -85 37.5 -158t100.5 -123v567zM185 134q-45 46 -71.5 107t-26.5 130t26.5 131.5t71.5 109.5v-478z" />
    <glyph glyph-name="oe" unicode="&#x153;" 
d="M38 248q0 53 21 100.5t57 83.5t84.5 57t103.5 21q49 0 94 -17.5t80 -47.5q32 31 73 48t88 17q48 0 88.5 -18.5t70.5 -51t48 -76.5t21 -94h-331v-245q48 -25 107 -25q56 0 94.5 21t61.5 47q27 30 43 69l12 -4q-17 -41 -46 -73q-25 -27 -65 -49.5t-100 -22.5q-50 0 -92 17
t-74 47q-35 -29 -79 -46.5t-94 -17.5q-55 0 -103.5 21t-84.5 56.5t-57 82.5t-21 100zM716 282v202q-37 14 -77 14q-56 0 -103 -26v-190h180zM178 33q28 -16 59.5 -24.5t66.5 -8.5q48 0 90 15.5t75 44.5q-35 35 -54.5 84t-19.5 104q0 57 20 105.5t55 83.5q-34 29 -76 45
t-90 16q-69 0 -126 -34v-431zM854 282q-6 67 -39 119t-87 77v-196h126zM407 248q0 -69 31.5 -126.5t85.5 -89.5v434q-53 -32 -85 -89.5t-32 -128.5zM166 457q-53 -34 -84.5 -89t-31.5 -120t31.5 -119.5t84.5 -88.5v417zM748 444q32 -23 54 -60t30 -82h-84v142zM427 248
q0 54 21 100.5t56 78.5v-357q-37 32 -57 78t-20 100zM146 81q-35 32 -55.5 74.5t-20.5 92.5q0 103 76 168v-335z" />
    <glyph glyph-name="Racute" unicode="&#x154;" horiz-adv-x="787" 
d="M46 12h95v724h-95v12h383q54 0 97.5 -15.5t74.5 -42.5t48 -64t17 -79q0 -59 -32 -109.5t-95 -79.5q63 -24 90.5 -70t27.5 -106v-182q47 5 76.5 40.5t29.5 86.5h12q0 -29 -10 -54.5t-27 -44t-41 -29.5t-52 -11t-52 11t-41.5 30.5t-27.5 45.5t-10 57v219h-235v-339h95v-12
h-328v12zM514 363v360q-20 6 -41 9.5t-44 3.5h-150v-373h235zM267 12v724h-114v-724h114zM526 364q63 27 95.5 76.5t32.5 106.5q0 59 -34 104.5t-94 67.5v-355zM173 716h74v-684h-74v684zM546 688q42 -23 65 -59.5t23 -81.5q0 -44 -24 -84.5t-64 -66.5v292zM526 132
q0 -29 9 -53t24.5 -41.5t37.5 -27.5t48 -10v182q0 57 -28 101.5t-91 66.5v-218zM546 319q39 -22 59 -57.5t20 -79.5v-160q-35 7 -57 37t-22 73v187zM327 813l152 101l7 -10l-152 -101z" />
    <glyph glyph-name="racute" unicode="&#x155;" horiz-adv-x="473" 
d="M22 12h90v474h-90v12h223v-144q4 17 10 33t15 31q23 39 56 65.5t72 26.5q32 0 50.5 -18t18.5 -44q0 -25 -17 -43t-45 -18q-20 0 -34 10t-22.5 24t-13 28t-5.5 23q-20 -15 -35.5 -37.5t-26.5 -47.5t-17 -52t-6 -51v-272h90v-12h-313v12zM405 399q22 0 36 14.5t14 34.5
q0 21 -15.5 35.5t-41.5 14.5q-16 0 -29.5 -5t-27.5 -13q1 -6 4 -19t10 -27t19 -24.5t31 -10.5zM233 12v474h-109v-474h109zM405 419q-10 0 -17 5t-12 13t-8 16.5t-5 16.5q18 8 35 8t27 -8.5t10 -21.5q0 -12 -8.5 -20.5t-21.5 -8.5zM144 466h69v-434h-69v434zM222 587
l152 101l7 -10l-152 -101z" />
    <glyph glyph-name="Rcommaaccent" unicode="&#x156;" horiz-adv-x="787" 
d="M46 12h95v724h-95v12h383q54 0 97.5 -15.5t74.5 -42.5t48 -64t17 -79q0 -59 -32 -109.5t-95 -79.5q63 -24 90.5 -70t27.5 -106v-182q47 5 76.5 40.5t29.5 86.5h12q0 -29 -10 -54.5t-27 -44t-41 -29.5t-52 -11t-52 11t-41.5 30.5t-27.5 45.5t-10 57v219h-235v-339h95v-12
h-328v12zM514 363v360q-20 6 -41 9.5t-44 3.5h-150v-373h235zM267 12v724h-114v-724h114zM526 364q63 27 95.5 76.5t32.5 106.5q0 59 -34 104.5t-94 67.5v-355zM173 716h74v-684h-74v684zM546 688q42 -23 65 -59.5t23 -81.5q0 -44 -24 -84.5t-64 -66.5v292zM526 132
q0 -29 9 -53t24.5 -41.5t37.5 -27.5t48 -10v182q0 57 -28 101.5t-91 66.5v-218zM546 319q39 -22 59 -57.5t20 -79.5v-160q-35 7 -57 37t-22 73v187zM349 -105q0 21 14.5 37.5t39.5 16.5q33 0 48 -23t15 -51q0 -17 -7 -33.5t-20.5 -29t-33.5 -20t-45 -7.5v12q37 0 60.5 17.5
t30.5 41.5q-8 -6 -20 -10t-27 -4q-26 0 -40.5 16.5t-14.5 36.5zM361 -105q0 -16 11.5 -28.5t31.5 -12.5q17 0 29.5 5.5t20.5 13.5v2q0 23 -12 42.5t-39 19.5q-19 0 -30.5 -12.5t-11.5 -29.5zM381 -105q0 9 6 15.5t16 6.5q14 0 21.5 -10t9.5 -24q-5 -4 -13 -6.5t-17 -2.5
q-11 0 -17 6.5t-6 14.5z" />
    <glyph glyph-name="rcommaaccent" unicode="&#x157;" horiz-adv-x="473" 
d="M22 12h90v474h-90v12h223v-144q4 17 10 33t15 31q23 39 56 65.5t72 26.5q32 0 50.5 -18t18.5 -44q0 -25 -17 -43t-45 -18q-20 0 -34 10t-22.5 24t-13 28t-5.5 23q-20 -15 -35.5 -37.5t-26.5 -47.5t-17 -52t-6 -51v-272h90v-12h-313v12zM405 399q22 0 36 14.5t14 34.5
q0 21 -15.5 35.5t-41.5 14.5q-16 0 -29.5 -5t-27.5 -13q1 -6 4 -19t10 -27t19 -24.5t31 -10.5zM233 12v474h-109v-474h109zM405 419q-10 0 -17 5t-12 13t-8 16.5t-5 16.5q18 8 35 8t27 -8.5t10 -21.5q0 -12 -8.5 -20.5t-21.5 -8.5zM144 466h69v-434h-69v434zM114 -105
q0 21 14.5 37.5t39.5 16.5q33 0 48 -23t15 -51q0 -17 -7 -33.5t-20.5 -29t-33.5 -20t-45 -7.5v12q37 0 60.5 17.5t30.5 41.5q-8 -6 -20 -10t-27 -4q-26 0 -40.5 16.5t-14.5 36.5zM126 -105q0 -16 11.5 -28.5t31.5 -12.5q17 0 29.5 5.5t20.5 13.5v2q0 23 -12 42.5t-39 19.5
q-19 0 -30.5 -12.5t-11.5 -29.5zM146 -105q0 9 6 15.5t16 6.5q14 0 21.5 -10t9.5 -24q-5 -4 -13 -6.5t-17 -2.5q-11 0 -17 6.5t-6 14.5z" />
    <glyph glyph-name="Rcaron" unicode="&#x158;" horiz-adv-x="787" 
d="M46 12h95v724h-95v12h383q54 0 97.5 -15.5t74.5 -42.5t48 -64t17 -79q0 -59 -32 -109.5t-95 -79.5q63 -24 90.5 -70t27.5 -106v-182q47 5 76.5 40.5t29.5 86.5h12q0 -29 -10 -54.5t-27 -44t-41 -29.5t-52 -11t-52 11t-41.5 30.5t-27.5 45.5t-10 57v219h-235v-339h95v-12
h-328v12zM514 363v360q-20 6 -41 9.5t-44 3.5h-150v-373h235zM267 12v724h-114v-724h114zM526 364q63 27 95.5 76.5t32.5 106.5q0 59 -34 104.5t-94 67.5v-355zM173 716h74v-684h-74v684zM546 688q42 -23 65 -59.5t23 -81.5q0 -44 -24 -84.5t-64 -66.5v292zM526 132
q0 -29 9 -53t24.5 -41.5t37.5 -27.5t48 -10v182q0 57 -28 101.5t-91 66.5v-218zM546 319q39 -22 59 -57.5t20 -79.5v-160q-35 7 -57 37t-22 73v187zM242 901l8 10l116 -97l116 97l8 -10l-124 -103z" />
    <glyph glyph-name="rcaron" unicode="&#x159;" horiz-adv-x="473" 
d="M22 12h90v474h-90v12h223v-144q4 17 10 33t15 31q23 39 56 65.5t72 26.5q32 0 50.5 -18t18.5 -44q0 -25 -17 -43t-45 -18q-20 0 -34 10t-22.5 24t-13 28t-5.5 23q-20 -15 -35.5 -37.5t-26.5 -47.5t-17 -52t-6 -51v-272h90v-12h-313v12zM405 399q22 0 36 14.5t14 34.5
q0 21 -15.5 35.5t-41.5 14.5q-16 0 -29.5 -5t-27.5 -13q1 -6 4 -19t10 -27t19 -24.5t31 -10.5zM233 12v474h-109v-474h109zM405 419q-10 0 -17 5t-12 13t-8 16.5t-5 16.5q18 8 35 8t27 -8.5t10 -21.5q0 -12 -8.5 -20.5t-21.5 -8.5zM144 466h69v-434h-69v434zM137 675l8 10
l116 -97l116 97l8 -10l-124 -103z" />
    <glyph glyph-name="Sacute" unicode="&#x15a;" horiz-adv-x="645" 
d="M71 219h12v-91q2 -3 21 -23.5t52.5 -43.5t80.5 -42t107 -19q35 0 68 8t61.5 23t50.5 37.5t36 52.5q-2 6 -12.5 23.5t-39.5 35.5l-314 199q-32 21 -54.5 39.5t-36.5 38t-20 41.5t-6 48q0 54 20 94t54 66.5t79 40t96 13.5q43 0 78.5 -9.5t62.5 -22t46 -26.5t29 -23v78h12
v-194h-12v98q-2 1 -16.5 15t-41.5 30t-67 29t-91 13q-74 0 -133.5 -29t-86.5 -88q2 -5 11.5 -21.5t41.5 -37.5l314 -201q56 -36 86.5 -73t30.5 -94q0 -52 -20.5 -92.5t-54.5 -68t-78.5 -41.5t-92.5 -14q-52 0 -95 14t-76 33.5t-56 40t-34 33.5v-109h-12v219zM514 190
q23 -15 35 -30t17 -26q12 31 12 70q0 27 -6.5 48t-20.5 39t-35 35t-49 35l-314 201q-23 14 -35.5 28.5t-17.5 25.5q-11 -33 -11 -70q0 -25 5.5 -45t18 -38t34 -36t53.5 -38zM211 406q-55 36 -78.5 66.5t-23.5 73.5v12t1 12q14 -13 32 -25l314 -201q51 -33 76.5 -63t25.5 -77
v-11.5t-1 -11.5q-6 6 -14.5 13t-17.5 13zM287 813l152 101l7 -10l-152 -101z" />
    <glyph glyph-name="sacute" unicode="&#x15b;" horiz-adv-x="483" 
d="M51 167h12v-69q3 -3 17 -19t38.5 -33.5t59.5 -31.5t79 -14t82 14.5t62 42.5q-2 3 -8 13.5t-23 21.5l-209 133q-29 18 -49 32.5t-32.5 29t-18.5 30.5t-6 37q0 40 15.5 69.5t41 48.5t59.5 28.5t72 9.5q31 0 56.5 -7t45.5 -16.5t34.5 -20.5t23.5 -19v60h12v-156h-12v78
q-2 3 -13.5 14t-32 23t-49 22t-65.5 10q-44 0 -82 -13t-62 -41q2 -5 9.5 -18.5t23.5 -23.5l215 -138q48 -30 72 -56t24 -68q0 -36 -15 -64.5t-40.5 -48t-59.5 -29.5t-71 -10q-38 0 -69.5 10.5t-56 25t-42 30t-26.5 26.5v-80h-12v167zM376 102q13 -8 20.5 -17.5t12.5 -17.5
q22 31 22 73q0 19 -5 33.5t-16 27.5t-28 25.5t-41 27.5l-215 138q-14 9 -23 20.5t-13 20.5q-23 -32 -23 -79q0 -19 5 -33t16.5 -27t30.5 -27t48 -32zM178 252q-26 17 -43.5 29t-28 23.5t-15 23t-4.5 26.5q0 11 1 20.5t4 18.5q5 -5 11.5 -9.5t11.5 -8.5l215 -138
q22 -14 37 -25t25 -21.5t14.5 -22.5t4.5 -28q0 -18 -5 -36v-1q-4 3 -8 7q-3 3 -6 5t-5 4zM202 587l152 101l7 -10l-152 -101z" />
    <glyph glyph-name="Scircumflex" unicode="&#x15c;" horiz-adv-x="645" 
d="M71 219h12v-91q2 -3 21 -23.5t52.5 -43.5t80.5 -42t107 -19q35 0 68 8t61.5 23t50.5 37.5t36 52.5q-2 6 -12.5 23.5t-39.5 35.5l-314 199q-32 21 -54.5 39.5t-36.5 38t-20 41.5t-6 48q0 54 20 94t54 66.5t79 40t96 13.5q43 0 78.5 -9.5t62.5 -22t46 -26.5t29 -23v78h12
v-194h-12v98q-2 1 -16.5 15t-41.5 30t-67 29t-91 13q-74 0 -133.5 -29t-86.5 -88q2 -5 11.5 -21.5t41.5 -37.5l314 -201q56 -36 86.5 -73t30.5 -94q0 -52 -20.5 -92.5t-54.5 -68t-78.5 -41.5t-92.5 -14q-52 0 -95 14t-76 33.5t-56 40t-34 33.5v-109h-12v219zM514 190
q23 -15 35 -30t17 -26q12 31 12 70q0 27 -6.5 48t-20.5 39t-35 35t-49 35l-314 201q-23 14 -35.5 28.5t-17.5 25.5q-11 -33 -11 -70q0 -25 5.5 -45t18 -38t34 -36t53.5 -38zM211 406q-55 36 -78.5 66.5t-23.5 73.5v12t1 12q14 -13 32 -25l314 -201q51 -33 76.5 -63t25.5 -77
v-11.5t-1 -11.5q-6 6 -14.5 13t-17.5 13zM202 813l124 103l124 -103l-8 -10l-116 97l-116 -97z" />
    <glyph glyph-name="scircumflex" unicode="&#x15d;" horiz-adv-x="483" 
d="M51 167h12v-69q3 -3 17 -19t38.5 -33.5t59.5 -31.5t79 -14t82 14.5t62 42.5q-2 3 -8 13.5t-23 21.5l-209 133q-29 18 -49 32.5t-32.5 29t-18.5 30.5t-6 37q0 40 15.5 69.5t41 48.5t59.5 28.5t72 9.5q31 0 56.5 -7t45.5 -16.5t34.5 -20.5t23.5 -19v60h12v-156h-12v78
q-2 3 -13.5 14t-32 23t-49 22t-65.5 10q-44 0 -82 -13t-62 -41q2 -5 9.5 -18.5t23.5 -23.5l215 -138q48 -30 72 -56t24 -68q0 -36 -15 -64.5t-40.5 -48t-59.5 -29.5t-71 -10q-38 0 -69.5 10.5t-56 25t-42 30t-26.5 26.5v-80h-12v167zM376 102q13 -8 20.5 -17.5t12.5 -17.5
q22 31 22 73q0 19 -5 33.5t-16 27.5t-28 25.5t-41 27.5l-215 138q-14 9 -23 20.5t-13 20.5q-23 -32 -23 -79q0 -19 5 -33t16.5 -27t30.5 -27t48 -32zM178 252q-26 17 -43.5 29t-28 23.5t-15 23t-4.5 26.5q0 11 1 20.5t4 18.5q5 -5 11.5 -9.5t11.5 -8.5l215 -138
q22 -14 37 -25t25 -21.5t14.5 -22.5t4.5 -28q0 -18 -5 -36v-1q-4 3 -8 7q-3 3 -6 5t-5 4zM117 587l124 103l124 -103l-8 -10l-116 97l-116 -97z" />
    <glyph glyph-name="Scedilla" unicode="&#x15e;" horiz-adv-x="645" 
d="M71 219h12v-91q2 -3 21 -23.5t52.5 -43.5t80.5 -42t107 -19q35 0 68 8t61.5 23t50.5 37.5t36 52.5q-2 6 -12.5 23.5t-39.5 35.5l-314 199q-32 21 -54.5 39.5t-36.5 38t-20 41.5t-6 48q0 54 20 94t54 66.5t79 40t96 13.5q43 0 78.5 -9.5t62.5 -22t46 -26.5t29 -23v78h12
v-194h-12v98q-2 1 -16.5 15t-41.5 30t-67 29t-91 13q-74 0 -133.5 -29t-86.5 -88q2 -5 11.5 -21.5t41.5 -37.5l314 -201q56 -36 86.5 -73t30.5 -94q0 -52 -20.5 -92.5t-54.5 -68t-78.5 -41.5t-92.5 -14h-8l-24 -68q32 -3 54.5 -17t22.5 -46q0 -35 -25 -52.5t-59 -17.5
q-26 0 -47 9l4 12q21 -9 43 -9q29 0 50.5 15t21.5 43q0 29 -24 40t-59 11l29 81q-48 3 -87.5 17.5t-70 33t-51.5 38t-31 31.5v-109h-12v219zM514 190q23 -15 35 -30t17 -26q12 31 12 70q0 27 -6.5 48t-20.5 39t-35 35t-49 35l-314 201q-23 14 -35.5 28.5t-17.5 25.5
q-11 -33 -11 -70q0 -25 5.5 -45t18 -38t34 -36t53.5 -38zM211 406q-55 36 -78.5 66.5t-23.5 73.5v12t1 12q14 -13 32 -25l314 -201q51 -33 76.5 -63t25.5 -77v-11.5t-1 -11.5q-6 6 -14.5 13t-17.5 13z" />
    <glyph glyph-name="scedilla" unicode="&#x15f;" horiz-adv-x="483" 
d="M51 167h12v-69q3 -3 17 -19t38.5 -33.5t59.5 -31.5t79 -14t82 14.5t62 42.5q-2 3 -8 13.5t-23 21.5l-209 133q-29 18 -49 32.5t-32.5 29t-18.5 30.5t-6 37q0 40 15.5 69.5t41 48.5t59.5 28.5t72 9.5q31 0 56.5 -7t45.5 -16.5t34.5 -20.5t23.5 -19v60h12v-156h-12v78
q-2 3 -13.5 14t-32 23t-49 22t-65.5 10q-44 0 -82 -13t-62 -41q2 -5 9.5 -18.5t23.5 -23.5l215 -138q48 -30 72 -56t24 -68q0 -36 -15 -64.5t-40.5 -48t-59.5 -29.5t-71 -10h-7l-24 -68q32 -3 54.5 -17t22.5 -46q0 -35 -25 -52.5t-59 -17.5q-26 0 -47 9l4 12q21 -9 43 -9
q29 0 50.5 15t21.5 43q0 29 -24 40t-59 11l29 81q-34 3 -62 14t-50 25t-37.5 28t-24.5 24v-80h-12v167zM376 102q13 -8 20.5 -17.5t12.5 -17.5q22 31 22 73q0 19 -5 33.5t-16 27.5t-28 25.5t-41 27.5l-215 138q-14 9 -23 20.5t-13 20.5q-23 -32 -23 -79q0 -19 5 -33
t16.5 -27t30.5 -27t48 -32zM178 252q-26 17 -43.5 29t-28 23.5t-15 23t-4.5 26.5q0 11 1 20.5t4 18.5q5 -5 11.5 -9.5t11.5 -8.5l215 -138q22 -14 37 -25t25 -21.5t14.5 -22.5t4.5 -28q0 -18 -5 -36v-1q-4 3 -8 7q-3 3 -6 5t-5 4z" />
    <glyph glyph-name="Scaron" unicode="&#x160;" horiz-adv-x="645" 
d="M71 219h12v-91q2 -3 21 -23.5t52.5 -43.5t80.5 -42t107 -19q35 0 68 8t61.5 23t50.5 37.5t36 52.5q-2 6 -12.5 23.5t-39.5 35.5l-314 199q-32 21 -54.5 39.5t-36.5 38t-20 41.5t-6 48q0 54 20 94t54 66.5t79 40t96 13.5q43 0 78.5 -9.5t62.5 -22t46 -26.5t29 -23v78h12
v-194h-12v98q-2 1 -16.5 15t-41.5 30t-67 29t-91 13q-74 0 -133.5 -29t-86.5 -88q2 -5 11.5 -21.5t41.5 -37.5l314 -201q56 -36 86.5 -73t30.5 -94q0 -52 -20.5 -92.5t-54.5 -68t-78.5 -41.5t-92.5 -14q-52 0 -95 14t-76 33.5t-56 40t-34 33.5v-109h-12v219zM514 190
q23 -15 35 -30t17 -26q12 31 12 70q0 27 -6.5 48t-20.5 39t-35 35t-49 35l-314 201q-23 14 -35.5 28.5t-17.5 25.5q-11 -33 -11 -70q0 -25 5.5 -45t18 -38t34 -36t53.5 -38zM211 406q-55 36 -78.5 66.5t-23.5 73.5v12t1 12q14 -13 32 -25l314 -201q51 -33 76.5 -63t25.5 -77
v-11.5t-1 -11.5q-6 6 -14.5 13t-17.5 13zM202 901l8 10l116 -97l116 97l8 -10l-124 -103z" />
    <glyph glyph-name="scaron" unicode="&#x161;" horiz-adv-x="483" 
d="M51 167h12v-69q3 -3 17 -19t38.5 -33.5t59.5 -31.5t79 -14t82 14.5t62 42.5q-2 3 -8 13.5t-23 21.5l-209 133q-29 18 -49 32.5t-32.5 29t-18.5 30.5t-6 37q0 40 15.5 69.5t41 48.5t59.5 28.5t72 9.5q31 0 56.5 -7t45.5 -16.5t34.5 -20.5t23.5 -19v60h12v-156h-12v78
q-2 3 -13.5 14t-32 23t-49 22t-65.5 10q-44 0 -82 -13t-62 -41q2 -5 9.5 -18.5t23.5 -23.5l215 -138q48 -30 72 -56t24 -68q0 -36 -15 -64.5t-40.5 -48t-59.5 -29.5t-71 -10q-38 0 -69.5 10.5t-56 25t-42 30t-26.5 26.5v-80h-12v167zM376 102q13 -8 20.5 -17.5t12.5 -17.5
q22 31 22 73q0 19 -5 33.5t-16 27.5t-28 25.5t-41 27.5l-215 138q-14 9 -23 20.5t-13 20.5q-23 -32 -23 -79q0 -19 5 -33t16.5 -27t30.5 -27t48 -32zM178 252q-26 17 -43.5 29t-28 23.5t-15 23t-4.5 26.5q0 11 1 20.5t4 18.5q5 -5 11.5 -9.5t11.5 -8.5l215 -138
q22 -14 37 -25t25 -21.5t14.5 -22.5t4.5 -28q0 -18 -5 -36v-1q-4 3 -8 7q-3 3 -6 5t-5 4zM117 675l8 10l116 -97l116 97l8 -10l-124 -103z" />
    <glyph glyph-name="Tcommaaccent" unicode="&#x162;" horiz-adv-x="735" 
d="M203 12h95v724h-261v-173h-12v185h685v-185h-12v173h-262v-724h95v-12h-157l-26 -72q32 -3 54.5 -17t22.5 -46q0 -35 -25 -52.5t-59 -17.5q-26 0 -47 9l4 12q21 -9 43 -9q29 0 50.5 15t21.5 43q0 29 -24 40t-59 11l31 84h-158v12zM424 12v724h-114v-724h114zM330 716h74
v-684h-74v684z" />
    <glyph glyph-name="tcommaaccent" unicode="&#x163;" horiz-adv-x="385" 
d="M98 486h-97v12h97v90l133 95v-185h138v-12h-138v-481h1q24 0 45 9.5t36.5 26t24.5 38.5t9 48h12q0 -28 -10 -52.5t-27.5 -42.5t-40.5 -28.5t-49 -10.5h-3l-23 -65q32 -3 54.5 -17t22.5 -46q0 -35 -25 -52.5t-59 -17.5q-26 0 -47 9l4 12q21 -9 43 -9q29 0 50.5 15t21.5 43
q0 29 -24 40t-59 11l28 78q-55 5 -86.5 43.5t-31.5 92.5v356zM110 130q0 -51 29 -85.5t80 -39.5v653l-109 -77v-451zM130 571l69 49v-591q-32 10 -50.5 37t-18.5 64v441z" />
    <glyph glyph-name="Tcaron" unicode="&#x164;" horiz-adv-x="735" 
d="M203 12h95v724h-261v-173h-12v185h685v-185h-12v173h-262v-724h95v-12h-328v12zM424 12v724h-114v-724h114zM330 716h74v-684h-74v684zM244 901l8 10l116 -97l116 97l8 -10l-124 -103z" />
    <glyph glyph-name="tcaron" unicode="&#x165;" horiz-adv-x="384" 
d="M97 486h-97v12h97v90l133 95v-185h138v-12h-138v-481h1q24 0 45 9.5t36.5 26t24.5 38.5t9 48h12q0 -28 -10 -52.5t-27.5 -42.5t-40.5 -28.5t-49 -10.5q-31 0 -55.5 10.5t-42 29t-27 43.5t-9.5 54v356zM109 130q0 -51 29 -85.5t80 -39.5v653l-109 -77v-451zM129 571l69 49
v-591q-32 10 -50.5 37t-18.5 64v441zM334 706q0 21 14.5 37.5t39.5 16.5q33 0 48 -23t15 -51q0 -17 -7 -33.5t-20.5 -29t-33.5 -20t-45 -7.5v12q37 0 60.5 17.5t30.5 41.5q-8 -6 -20 -10t-27 -4q-26 0 -40.5 16.5t-14.5 36.5zM346 706q0 -16 11.5 -28.5t31.5 -12.5
q17 0 29.5 5.5t20.5 13.5v2q0 23 -12 42.5t-39 19.5q-19 0 -30.5 -12.5t-11.5 -29.5zM366 706q0 9 6 15.5t16 6.5q14 0 21.5 -10t9.5 -24q-5 -4 -13 -6.5t-17 -2.5q-11 0 -17 6.5t-6 14.5z" />
    <glyph glyph-name="Tbar" unicode="&#x166;" horiz-adv-x="735" 
d="M203 12h95v352h-217v12h217v360h-261v-173h-12v185h685v-185h-12v173h-262v-360h217v-12h-217v-352h95v-12h-328v12zM424 12v724h-114v-724h114zM330 716h74v-684h-74v684z" />
    <glyph glyph-name="tbar" unicode="&#x167;" horiz-adv-x="412" 
d="M113 375h-97v12h97v99h-97v12h97v90l133 95v-185h138v-12h-138v-99h138v-12h-138v-370h1q24 0 45 9.5t36.5 26t24.5 38.5t9 48h12q0 -28 -10 -52.5t-27.5 -42.5t-40.5 -28.5t-49 -10.5q-31 0 -55.5 10.5t-42 29t-27 43.5t-9.5 54v245zM125 130q0 -51 29 -85.5t80 -39.5
v653l-109 -77v-451zM145 571l69 49v-591q-32 10 -50.5 37t-18.5 64v441z" />
    <glyph glyph-name="Utilde" unicode="&#x168;" horiz-adv-x="842" 
d="M255 42q37 -22 81 -32t93 -10q58 0 109.5 17t90.5 52.5t61.5 89t22.5 126.5v451h-95v12h202v-12h-95v-451q0 -76 -23.5 -132t-64 -92.5t-94.5 -54.5t-114 -18q-64 0 -120.5 18t-99 54.5t-67.5 92.5t-25 132v451h-95v12h328v-12h-95v-694zM243 736h-114v-451
q0 -85 31 -142.5t83 -92.5v686zM223 92q-36 32 -55 79.5t-19 113.5v431h74v-624zM293 823q0 37 21 63t56 26q26 0 42.5 -13t31.5 -30q14 -15 28 -27.5t37 -12.5q29 0 47 22.5t18 54.5h12q0 -37 -21 -63t-56 -26q-26 0 -42.5 13.5t-31.5 30.5q-14 15 -28 27t-37 12
q-29 0 -47 -22.5t-18 -54.5h-12z" />
    <glyph glyph-name="utilde" unicode="&#x169;" horiz-adv-x="693" 
d="M90 486h-90v12h223v-494q17 -4 42 -4q38 0 69.5 14.5t55 39.5t36.5 59t15 73v300h-90v12h223v-493q20 2 37.5 12t30.5 26.5t20.5 38t7.5 45.5h12q0 -28 -9.5 -52.5t-25 -42.5t-37 -28.5t-45.5 -10.5q-56 0 -89 37t-35 93q-17 -61 -63.5 -98t-112.5 -37q-44 0 -77 16
t-54.5 43.5t-32.5 64.5t-11 80v294zM453 130q0 -53 29 -88.5t80 -36.5v481h-109v-356zM211 486h-109v-294q0 -67 27 -117t82 -67v478zM473 466h69v-439q-35 6 -52 34t-17 69v336zM191 38q-34 21 -51.5 62t-17.5 92v274h69v-428zM183 597q0 37 21 63t56 26q26 0 42.5 -13
t31.5 -30q14 -15 28 -27.5t37 -12.5q29 0 47 22.5t18 54.5h12q0 -37 -21 -63t-56 -26q-26 0 -42.5 13.5t-31.5 30.5q-14 15 -28 27t-37 12q-29 0 -47 -22.5t-18 -54.5h-12z" />
    <glyph glyph-name="Umacron" unicode="&#x16a;" horiz-adv-x="842" 
d="M255 42q37 -22 81 -32t93 -10q58 0 109.5 17t90.5 52.5t61.5 89t22.5 126.5v451h-95v12h202v-12h-95v-451q0 -76 -23.5 -132t-64 -92.5t-94.5 -54.5t-114 -18q-64 0 -120.5 18t-99 54.5t-67.5 92.5t-25 132v451h-95v12h328v-12h-95v-694zM243 736h-114v-451
q0 -85 31 -142.5t83 -92.5v686zM223 92q-36 32 -55 79.5t-19 113.5v431h74v-624zM334 864h210v-12h-210v12z" />
    <glyph glyph-name="umacron" unicode="&#x16b;" horiz-adv-x="693" 
d="M90 486h-90v12h223v-494q17 -4 42 -4q38 0 69.5 14.5t55 39.5t36.5 59t15 73v300h-90v12h223v-493q20 2 37.5 12t30.5 26.5t20.5 38t7.5 45.5h12q0 -28 -9.5 -52.5t-25 -42.5t-37 -28.5t-45.5 -10.5q-56 0 -89 37t-35 93q-17 -61 -63.5 -98t-112.5 -37q-44 0 -77 16
t-54.5 43.5t-32.5 64.5t-11 80v294zM453 130q0 -53 29 -88.5t80 -36.5v481h-109v-356zM211 486h-109v-294q0 -67 27 -117t82 -67v478zM473 466h69v-439q-35 6 -52 34t-17 69v336zM191 38q-34 21 -51.5 62t-17.5 92v274h69v-428zM224 638h210v-12h-210v12z" />
    <glyph glyph-name="Ubreve" unicode="&#x16c;" horiz-adv-x="842" 
d="M255 42q37 -22 81 -32t93 -10q58 0 109.5 17t90.5 52.5t61.5 89t22.5 126.5v451h-95v12h202v-12h-95v-451q0 -76 -23.5 -132t-64 -92.5t-94.5 -54.5t-114 -18q-64 0 -120.5 18t-99 54.5t-67.5 92.5t-25 132v451h-95v12h328v-12h-95v-694zM243 736h-114v-451
q0 -85 31 -142.5t83 -92.5v686zM223 92q-36 32 -55 79.5t-19 113.5v431h74v-624zM439 818q-23 0 -43.5 6.5t-36 18t-24.5 27t-9 33.5h12q0 -31 29.5 -52t71.5 -21t71.5 21t29.5 52h12q0 -18 -9 -33.5t-24.5 -27t-36 -18t-43.5 -6.5z" />
    <glyph glyph-name="ubreve" unicode="&#x16d;" horiz-adv-x="693" 
d="M90 486h-90v12h223v-494q17 -4 42 -4q38 0 69.5 14.5t55 39.5t36.5 59t15 73v300h-90v12h223v-493q20 2 37.5 12t30.5 26.5t20.5 38t7.5 45.5h12q0 -28 -9.5 -52.5t-25 -42.5t-37 -28.5t-45.5 -10.5q-56 0 -89 37t-35 93q-17 -61 -63.5 -98t-112.5 -37q-44 0 -77 16
t-54.5 43.5t-32.5 64.5t-11 80v294zM453 130q0 -53 29 -88.5t80 -36.5v481h-109v-356zM211 486h-109v-294q0 -67 27 -117t82 -67v478zM473 466h69v-439q-35 6 -52 34t-17 69v336zM191 38q-34 21 -51.5 62t-17.5 92v274h69v-428zM329 592q-23 0 -43.5 6.5t-36 18t-24.5 27
t-9 33.5h12q0 -31 29.5 -52t71.5 -21t71.5 21t29.5 52h12q0 -18 -9 -33.5t-24.5 -27t-36 -18t-43.5 -6.5z" />
    <glyph glyph-name="Uring" unicode="&#x16e;" horiz-adv-x="842" 
d="M255 42q37 -22 81 -32t93 -10q58 0 109.5 17t90.5 52.5t61.5 89t22.5 126.5v451h-95v12h202v-12h-95v-451q0 -76 -23.5 -132t-64 -92.5t-94.5 -54.5t-114 -18q-64 0 -120.5 18t-99 54.5t-67.5 92.5t-25 132v451h-95v12h328v-12h-95v-694zM243 736h-114v-451
q0 -85 31 -142.5t83 -92.5v686zM223 92q-36 32 -55 79.5t-19 113.5v431h74v-624zM439 746q-18 0 -34 7t-28 19t-19 28t-7 34t7 34t19 28t28 19t34 7q36 0 62 -26t26 -62q0 -18 -7 -34t-19 -28t-28 -19t-34 -7zM439 758q32 0 54 22t22 54t-22 54t-54 22t-54 -22t-22 -54
t22 -54t54 -22z" />
    <glyph glyph-name="uring" unicode="&#x16f;" horiz-adv-x="693" 
d="M90 486h-90v12h223v-494q17 -4 42 -4q38 0 69.5 14.5t55 39.5t36.5 59t15 73v300h-90v12h223v-493q20 2 37.5 12t30.5 26.5t20.5 38t7.5 45.5h12q0 -28 -9.5 -52.5t-25 -42.5t-37 -28.5t-45.5 -10.5q-56 0 -89 37t-35 93q-17 -61 -63.5 -98t-112.5 -37q-44 0 -77 16
t-54.5 43.5t-32.5 64.5t-11 80v294zM453 130q0 -53 29 -88.5t80 -36.5v481h-109v-356zM211 486h-109v-294q0 -67 27 -117t82 -67v478zM473 466h69v-439q-35 6 -52 34t-17 69v336zM191 38q-34 21 -51.5 62t-17.5 92v274h69v-428zM329 520q-18 0 -34 7t-28 19t-19 28t-7 34
t7 34t19 28t28 19t34 7t34 -7t28 -19t19 -28t7 -34t-7 -34t-19 -28t-28 -19t-34 -7zM329 532q32 0 54 22t22 54t-22 54t-54 22t-54 -22t-22 -54t22 -54t54 -22z" />
    <glyph glyph-name="Uhungarumlaut" unicode="&#x170;" horiz-adv-x="842" 
d="M255 42q37 -22 81 -32t93 -10q58 0 109.5 17t90.5 52.5t61.5 89t22.5 126.5v451h-95v12h202v-12h-95v-451q0 -76 -23.5 -132t-64 -92.5t-94.5 -54.5t-114 -18q-64 0 -120.5 18t-99 54.5t-67.5 92.5t-25 132v451h-95v12h328v-12h-95v-694zM243 736h-114v-451
q0 -85 31 -142.5t83 -92.5v686zM223 92q-36 32 -55 79.5t-19 113.5v431h74v-624zM445 813l127 101l8 -10l-127 -101zM340 813l127 101l8 -10l-127 -101z" />
    <glyph glyph-name="uhungarumlaut" unicode="&#x171;" horiz-adv-x="693" 
d="M90 486h-90v12h223v-494q17 -4 42 -4q38 0 69.5 14.5t55 39.5t36.5 59t15 73v300h-90v12h223v-493q20 2 37.5 12t30.5 26.5t20.5 38t7.5 45.5h12q0 -28 -9.5 -52.5t-25 -42.5t-37 -28.5t-45.5 -10.5q-56 0 -89 37t-35 93q-17 -61 -63.5 -98t-112.5 -37q-44 0 -77 16
t-54.5 43.5t-32.5 64.5t-11 80v294zM453 130q0 -53 29 -88.5t80 -36.5v481h-109v-356zM211 486h-109v-294q0 -67 27 -117t82 -67v478zM473 466h69v-439q-35 6 -52 34t-17 69v336zM191 38q-34 21 -51.5 62t-17.5 92v274h69v-428zM335 587l127 101l8 -10l-127 -101zM230 587
l127 101l8 -10l-127 -101z" />
    <glyph glyph-name="Uogonek" unicode="&#x172;" horiz-adv-x="842" 
d="M255 42q37 -22 81 -32t93 -10q58 0 109.5 17t90.5 52.5t61.5 89t22.5 126.5v451h-95v12h202v-12h-95v-451q0 -60 -15 -108t-42 -83t-63.5 -58.5t-79.5 -35.5h1q-28 -19 -50 -41q-19 -19 -34 -43.5t-15 -51.5q0 -29 20.5 -48t68.5 -19v-12q-54 0 -77.5 23t-23.5 56
q0 21 8.5 40.5t21.5 36.5t27.5 31t25.5 23q-17 -3 -34 -5t-35 -2q-64 0 -120.5 18t-99 54.5t-67.5 92.5t-25 132v451h-95v12h328v-12h-95v-694zM243 736h-114v-451q0 -85 31 -142.5t83 -92.5v686zM223 92q-36 32 -55 79.5t-19 113.5v431h74v-624z" />
    </font>
</defs>
</svg>
