<?xml version="1.0" encoding="utf-8"?>
<!-- Generator: Adobe Illustrator 15.1.0, SVG Export Plug-In . SVG Version: 6.00 Build 0)  -->
<!DOCTYPE svg PUBLIC "-//W3C//DTD SVG 1.1//EN" "http://www.w3.org/Graphics/SVG/1.1/DTD/svg11.dtd">
<svg version="1.1" id="Layer_1" xmlns="http://www.w3.org/2000/svg" xmlns:xlink="http://www.w3.org/1999/xlink" x="0px" y="0px"
	 width="30px" height="30px" viewBox="0 0 30 30" enable-background="new 0 0 30 30" xml:space="preserve">
<g>
	<path d="M6.762,7.755C6.189,8.215,5.607,8.713,5.015,9.25c-0.593,0.538-1.146,1.132-1.662,1.784
		c-0.516,0.651-0.937,1.333-1.261,2.042c-0.325,0.709-0.486,1.466-0.486,2.271c0,0.768,0.123,1.381,0.372,1.842
		c0.248,0.459,0.43,0.785,0.544,0.978c0.229-0.265,0.545-0.567,0.945-0.908c0.401-0.34,0.926-0.511,1.576-0.511
		c0.84,0,1.547,0.266,2.12,0.795c0.573,0.529,0.859,1.248,0.859,2.156c0,0.758-0.307,1.467-0.917,2.129
		C6.494,22.49,5.692,22.82,4.699,22.82c-0.994,0-1.796-0.209-2.406-0.629c-0.612-0.42-1.089-0.926-1.433-1.52
		c-0.344-0.592-0.573-1.204-0.688-1.833C0.057,18.208,0,17.702,0,17.318c0-1.221,0.219-2.357,0.658-3.408
		c0.439-1.05,0.983-2.005,1.634-2.864c0.648-0.86,1.336-1.614,2.062-2.264C5.081,8.134,5.731,7.6,6.304,7.179L6.762,7.755z
		 M17.419,7.755c-0.572,0.46-1.154,0.958-1.746,1.495c-0.594,0.538-1.146,1.132-1.662,1.784c-0.516,0.651-0.938,1.333-1.262,2.042
		s-0.486,1.466-0.486,2.271c0,0.768,0.123,1.381,0.373,1.842c0.248,0.459,0.43,0.785,0.543,0.978
		c0.23-0.265,0.545-0.567,0.947-0.908c0.4-0.34,0.924-0.511,1.574-0.511c0.84,0,1.547,0.266,2.121,0.795
		c0.571,0.529,0.858,1.248,0.858,2.156c0,0.758-0.307,1.467-0.918,2.129c-0.61,0.662-1.412,0.992-2.405,0.992
		c-0.994,0-1.795-0.209-2.406-0.629s-1.088-0.926-1.433-1.52c-0.344-0.592-0.573-1.204-0.688-1.833
		c-0.114-0.631-0.172-1.137-0.172-1.521c0-1.221,0.22-2.357,0.658-3.408c0.439-1.05,0.982-2.005,1.633-2.864
		c0.648-0.86,1.336-1.614,2.062-2.264c0.727-0.65,1.375-1.184,1.949-1.604L17.419,7.755z"/>
</g>
</svg>
