<?xml version="1.0" encoding="utf-8"?>
<!-- Generator: Adobe Illustrator 15.1.0, SVG Export Plug-In . SVG Version: 6.00 Build 0)  -->
<!DOCTYPE svg PUBLIC "-//W3C//DTD SVG 1.1//EN" "http://www.w3.org/Graphics/SVG/1.1/DTD/svg11.dtd">
<svg version="1.1" id="Layer_1" xmlns="http://www.w3.org/2000/svg" xmlns:xlink="http://www.w3.org/1999/xlink" x="0px" y="0px"
	 width="30px" height="30px" viewBox="0 0 30 30" enable-background="new 0 0 30 30" xml:space="preserve">
<g>
	<path d="M12.579,22.245c0.573-0.46,1.155-0.958,1.748-1.495c0.592-0.537,1.146-1.132,1.662-1.783
		c0.517-0.65,0.937-1.333,1.26-2.042c0.324-0.709,0.487-1.467,0.487-2.272c0-0.767-0.124-1.381-0.372-1.842
		c-0.249-0.46-0.431-0.786-0.545-0.978c-0.229,0.265-0.544,0.568-0.945,0.909c-0.401,0.341-0.927,0.51-1.575,0.51
		c-0.841,0-1.547-0.264-2.12-0.794c-0.573-0.53-0.859-1.249-0.859-2.158c0-0.756,0.305-1.465,0.916-2.128
		c0.611-0.663,1.413-0.993,2.407-0.993c0.955,0,1.738,0.21,2.349,0.63c0.611,0.421,1.089,0.927,1.434,1.519
		c0.344,0.593,0.582,1.203,0.717,1.833c0.133,0.63,0.199,1.137,0.199,1.519c0,1.223-0.221,2.359-0.658,3.41
		c-0.439,1.051-0.983,2.005-1.633,2.864c-0.65,0.858-1.338,1.624-2.062,2.292c-0.727,0.669-1.375,1.193-1.948,1.576L12.579,22.245z
		 M23.237,22.245c0.572-0.46,1.154-0.958,1.748-1.495c0.592-0.537,1.146-1.132,1.662-1.783c0.516-0.65,0.936-1.333,1.26-2.042
		s0.486-1.467,0.486-2.272c0-0.767-0.123-1.381-0.371-1.842c-0.25-0.46-0.43-0.786-0.545-0.978
		c-0.229,0.265-0.545,0.568-0.945,0.909c-0.4,0.341-0.928,0.51-1.576,0.51c-0.84,0-1.547-0.264-2.119-0.794
		c-0.574-0.53-0.859-1.249-0.859-2.158c0-0.756,0.306-1.465,0.916-2.128c0.611-0.663,1.412-0.994,2.406-0.994
		c0.955,0,1.738,0.21,2.351,0.63c0.61,0.421,1.088,0.927,1.432,1.519c0.345,0.593,0.582,1.203,0.718,1.833
		c0.133,0.63,0.2,1.137,0.2,1.519c0,1.223-0.221,2.359-0.659,3.41c-0.439,1.052-0.982,2.005-1.634,2.864
		c-0.647,0.859-1.338,1.624-2.062,2.292c-0.728,0.669-1.375,1.194-1.947,1.575L23.237,22.245z"/>
</g>
</svg>
